<?xml version="1.0" encoding="UTF-8" standalone="no"?>
<!-- Created with Inkscape (http://www.inkscape.org/) -->

<svg
   width="333.30051mm"
   height="188.57442mm"
   viewBox="0 0 333.3005 188.57442"
   version="1.1"
   id="svg1"
   xml:space="preserve"
   inkscape:version="1.4 (86a8ad7, 2024-10-11)"
   sodipodi:docname="birdo.svg"
   xmlns:inkscape="http://www.inkscape.org/namespaces/inkscape"
   xmlns:sodipodi="http://sodipodi.sourceforge.net/DTD/sodipodi-0.dtd"
   xmlns="http://www.w3.org/2000/svg"
   xmlns:svg="http://www.w3.org/2000/svg"><sodipodi:namedview
     id="namedview1"
     pagecolor="#ffffff"
     bordercolor="#000000"
     borderopacity="0.25"
     inkscape:showpageshadow="2"
     inkscape:pageopacity="0.0"
     inkscape:pagecheckerboard="0"
     inkscape:deskcolor="#d1d1d1"
     inkscape:document-units="mm"
     inkscape:zoom="0.57764414"
     inkscape:cx="-228.51439"
     inkscape:cy="273.5248"
     inkscape:window-width="3840"
     inkscape:window-height="2054"
     inkscape:window-x="3829"
     inkscape:window-y="-11"
     inkscape:window-maximized="1"
     inkscape:current-layer="layer1"><inkscape:page
       x="7.5372761e-15"
       y="0"
       width="333.30048"
       height="188.57442"
       id="page2"
       margin="0"
       bleed="0" /></sodipodi:namedview><defs
     id="defs1" /><g
     inkscape:label="Layer 1"
     inkscape:groupmode="layer"
     id="layer1"
     transform="translate(69.315521,-33.215513)"><g
       id="wing"
       inkscape:label="wing"
       inkscape:export-filename="wing.svg"
       inkscape:export-xdpi="96"
       inkscape:export-ydpi="96"><path
         id="outline"
         style="fill:#2a3537;fill-opacity:1;stroke-width:1.10763"
         d="m 99.573753,33.234777 c -7.056012,0.171871 -15.004201,1.500489 -19.893827,3.889931 -3.388671,1.655956 -5.102025,1.965772 -6.854888,1.240361 -6.187174,-2.560527 -38.222225,2.217017 -42.575744,6.349464 -1.018735,0.967008 -9.382453,4.250975 -9.94348,3.904242 -0.130114,-0.08042 -0.280785,-0.0144 -0.334838,0.14654 -0.194976,0.580577 -12.3368538,3.342162 -17.3890688,3.955181 -2.37906365,0.288661 -7.8647067,1.342031 -8.4987825,1.631865 -0.6751358,0.308587 -3.257727,0.892487 -3.5877132,0.811076 -0.1221166,-0.03013 -0.9474035,0.09836 -1.8339195,0.285614 -2.377901,0.502301 -9.712073,1.20711 -14.301054,1.374297 -2.208167,0.08041 -6.025658,0.302262 -8.482755,0.49283 -3.349539,0.259806 -4.827125,0.263329 -5.905871,0.01429 -2.532371,-0.584542 -11.505664,-3.91267 -14.5094,-5.381569 -3.132708,-1.531968 -4.862986,-1.845672 -4.862986,-0.880901 -13.805023,17.600239 -4.875936,45.611479 -4.644329,67.135652 -0.800687,1.56499 -0.425077,3.51483 0.896928,4.07538 0.550638,0.23348 -0.571129,5.15273 -1.848806,8.10785 -0.976091,2.25758 -1.629396,7.99375 -1.468745,12.8947 0.225426,6.87688 0.149553,12.33742 -0.199185,14.36 -0.587533,3.40745 -1.132998,6.15429 -1.222052,6.15429 -0.0175,0 -0.09902,0.98909 -0.181442,2.19796 -0.181408,2.65852 -0.316262,10.10008 -0.175726,9.67846 0.159289,-0.47786 0.9307,-0.34832 0.9307,0.15626 0,0.25133 -0.121629,0.38203 -0.270162,0.2902 -0.51484,-0.31819 -1.195602,1.66447 -1.192279,3.47438 0.0011,0.98264 -0.152521,3.04062 -0.342292,4.57393 -0.271437,2.1934 -0.264725,3.4119 0.0298,5.7147 0.205832,1.60978 0.392845,3.2239 0.415551,3.58657 0.02271,0.36266 0.13954,0.65939 0.260427,0.65939 0.120887,0 0.219799,0.30195 0.219799,0.67083 0,0.36887 0.264325,1.18788 0.586702,1.82018 0.322366,0.63231 0.58555,1.31944 0.58555,1.52713 0,0.20769 0.116512,0.37778 0.258145,0.37778 0.141622,0 0.419472,0.39351 0.618747,0.8746 0.26005,0.62782 0.663516,0.95816 1.428104,1.17054 2.42368,0.6732 3.495392,0.10611 7.827934,-4.14179 1.968729,-1.93029 3.627687,-3.36607 3.68617,-3.19048 0.05859,0.17559 0.02913,1.27261 -0.06579,2.43722 -0.536571,6.58369 1.296983,10.64984 5.802847,12.86894 l 1.970148,0.97077 h 3.084581 3.084017 l 2.296416,-1.1007 c 2.546405,-1.22056 2.832163,-1.2018 2.832163,0.18832 0,2.2517 3.802871,5.96966 6.753573,6.60247 3.891759,0.83463 9.654853,-0.0283 11.973728,-1.79272 l 0.704609,-0.53575 0.524299,1.1711 c 0.873446,1.95091 2.576876,3.31184 5.1240004,4.0937 0.6316058,0.19388 1.4125206,0.47041 1.7348973,0.61416 5.7628836,2.56977 12.0797945,1.67355 16.1676041,-2.29354 l 1.2186072,-1.18255 0.162556,0.64852 c 0.417401,1.66306 4.319106,4.58123 7.090704,5.30314 6.634059,1.72796 13.936121,-0.67286 16.371375,-5.38213 0.572447,-1.10697 0.542342,-1.1047 1.649045,-0.10644 7.607492,6.86176 24.218504,1.94077 25.093944,-7.43415 0.141722,-1.5176 0.254224,-1.85684 0.503696,-1.51568 2.097171,2.868 7.645905,4.18655 12.250769,2.91115 12.34072,-3.41797 15.719522,-6.88611 13.857447,-14.22663 -0.402957,-1.58851 -0.732645,-2.96667 -0.732645,-3.06226 0,-0.0956 0.824235,0.62504 1.831627,1.60153 7.152931,6.9334 14.431817,7.66001 22.381417,2.23345 3.39967,-2.32067 4.88685,-4.34394 5.27511,-7.17657 l 0.178,-1.29874 2.53053,0.90551 2.53108,0.90551 4.24939,-0.0155 4.24939,-0.0155 2.16706,-0.78646 c 6.79442,-2.46747 10.02725,-8.02892 8.25665,-14.2026 -0.32518,-1.13383 -0.37162,-1.12739 2.56829,-0.37892 13.30515,3.38737 25.58882,-4.19232 21.71574,-13.40012 -0.82464,-1.96049 -0.86712,-1.93559 2.55799,-1.52483 12.39564,1.48654 20.40668,-4.69715 17.49553,-13.50543 -0.94332,-2.85416 -1.03601,-2.75841 2.23573,-2.3113 5.99044,0.81863 14.31149,-0.53372 17.69645,-2.87624 4.66353,-3.22731 5.00902,-8.62354 0.83625,-13.05325 -0.94109,-0.99903 -1.95103,-2.19957 -2.24432,-2.66789 l -0.53289,-0.85113 1.86025,0.19404 c 5.54801,0.49511 40.11638,3.49783 31.88531,-12.0035 -0.33996,-0.36187 -0.53057,-0.79937 -0.42357,-0.97248 0.10699,-0.17312 0.0293,-0.31481 -0.17286,-0.31481 -0.20217,0 -0.70437,-0.31336 -1.11615,-0.69603 -1.06042,-0.98544 -7.75708,-4.37436 -12.03155,-6.08902 -4.12214,-1.65356 -4.5427,-1.83603 -5.22473,-2.26322 -1.08667,-0.68063 -0.21821,-0.87381 2.73371,-0.60844 35.9903,3.23538 55.03058,-11.688658 23.88451,-18.010686 -16.9365,-3.437762 -18.44304,-3.961683 -11.42768,-3.974643 12.5657,-0.02315 26.17847,-3.235895 29.96322,-7.071253 1.59578,-1.617333 2.104,-2.315574 1.34226,-1.844797 -0.22482,0.138942 -0.28328,0.05649 -0.17,-0.238684 2.30936,-6.018104 -1.21684,-8.508042 -15.45899,-10.917676 -2.75169,-0.465561 -6.18946,-1.36744 -7.05065,-1.849383 -0.63649,-0.356192 0.54656,-0.812859 5.8784,-2.268931 9.16146,-2.5019 11.00488,-3.34986 12.82315,-5.900718 l 0.86716,-1.21689 -0.34629,-2.053154 c -0.65037,-3.855838 -2.33964,-4.740305 -12.90442,-6.75529 -2.81892,-0.537645 -5.83612,-0.901126 -12.45511,-1.500799 -3.54604,-0.321269 -7.898,-0.719108 -9.67102,-0.884334 -5.46529,-0.50929 -6.22711,-0.54963 -13.77389,-0.730363 -4.02959,-0.09647 -8.975,-0.241962 -10.98979,-0.322819 -6.29172,-0.252707 -40.36713,-0.328967 -44.98493,-0.100795 -2.41775,0.119525 -7.62692,0.298784 -11.57592,0.397807 -3.949,0.09902 -9.57556,0.239769 -12.50375,0.313094 -5.3306,0.133492 -14.20758,0.628239 -15.68108,0.874034 -0.64962,0.108326 -0.88824,-0.0453 -1.39204,-0.899221 -1.32055,-2.238173 -7.48429,-3.223258 -14.540313,-3.051386 z m 75.102697,3.916259 c 8.06174,-0.03101 15.53962,0.02537 19.42161,0.180877 4.59373,0.183978 13.03391,0.444947 18.75593,0.579824 5.72202,0.134865 11.92026,0.393343 13.77388,0.574097 1.85361,0.180744 4.68897,0.454263 6.30081,0.608456 8.1823,0.782776 9.63281,0.951812 12.7642,1.484761 5.64012,0.95993 10.25631,2.416258 11.3504,3.580846 3.30303,3.515916 -0.15669,6.28367 -11.80602,9.445499 -1.61184,0.437471 -4.03974,1.17727 -5.39531,1.643318 -2.91376,1.001766 -3.98391,1.037465 -7.99736,0.269022 -1.66031,-0.317891 -5.45849,-0.915138 -8.44039,-1.327355 -2.98189,-0.412217 -8.11973,-1.219105 -11.41738,-1.792716 -3.54615,-0.616818 -7.67688,-1.131292 -10.11062,-1.259246 l -4.11488,-0.216365 -2.63755,-1.252379 c -4.82702,-2.292114 -5.54435,-2.542816 -10.55021,-3.686736 -6.6969,-1.530361 -27.08449,-2.867374 -55.68165,-3.652387 l -9.67102,-0.265589 -3.03765,-0.882041 c -3.77176,-1.095184 -3.73205,-1.042394 -1.31306,-1.754935 2.79222,-0.822473 7.22524,-1.14218 20.61562,-1.487629 6.36676,-0.164262 13.68595,-0.364677 16.2649,-0.445313 6.21843,-0.194334 14.86402,-0.312984 22.92575,-0.344009 z M 67.041087,39.449741 c 2.726761,0.121618 4.701439,0.60839 6.75529,1.496778 2.956318,1.278741 3.032279,1.389737 1.729758,2.533379 -2.7887,2.448502 -13.378905,8.155428 -12.938211,6.972231 0.859524,-2.307654 0.902932,-2.55284 0.576402,-3.269467 -1.024849,-2.249316 -9.206605,-4.033957 -18.184117,-3.966059 -2.631848,0.01994 -4.840879,-0.01905 -4.908777,-0.08695 -0.366704,-0.366705 10.066793,-2.351728 15.701678,-2.987277 5.06235,-0.570973 8.541216,-0.81421 11.267977,-0.692581 z m 27.718338,1.50194 c 4.547787,-0.05306 9.534605,0.222136 14.266125,0.870024 6.2781,0.859656 7.11685,1.071635 9.991,2.522502 0.99889,0.504228 1.81145,1.08012 1.80702,1.279283 -0.0158,0.644377 -0.60812,1.415079 -1.50767,1.962129 l -0.87918,0.53461 -2.24604,-0.689723 C 109.5373,45.387243 103.19461,44.810388 87.463233,44.818141 l -9.778066,0.0044 1.21174,-1.075512 c 1.922929,-1.706465 8.282871,-2.706636 15.862518,-2.794958 z m 31.335815,3.177878 c 5.20963,-0.15981 17.07946,0.233998 32.68893,1.11902 22.42935,1.271696 27.11987,2.065747 34.84454,5.895567 l 3.4864,1.728606 2.08176,0.0022 c 2.00703,0.0022 9.60023,1.011612 14.33597,1.904897 1.25994,0.237665 4.62282,0.706049 7.47306,1.041175 5.75858,0.677085 12.43355,1.938358 20.92927,3.954606 3.10541,0.736986 7.29505,1.664895 9.30985,2.062313 6.45702,1.273668 9.31534,2.39137 10.1255,3.95804 1.01232,1.95762 -0.48698,5.360159 -2.91974,6.625364 -1.4502,0.754199 -6.61775,2.442941 -9.69621,3.168729 -13.94991,3.288907 -32.4745,1.958019 -40.56839,-2.914017 -7.27655,-4.38007 -20.77226,-8.614818 -39.73099,-12.467134 -17.87357,-3.631819 -29.09276,-5.51453 -37.55821,-6.303099 -5.63883,-0.525262 -5.59471,-0.510763 -8.01283,-2.651862 -1.04769,-0.927666 -1.96566,-1.74007 -2.03998,-1.80531 -0.0743,-0.06524 0.22236,-0.409747 0.6594,-0.765275 0.57718,-0.469537 0.87477,-1.0792 1.0881,-2.228869 0.16154,-0.870522 0.4417,-1.760694 0.62218,-1.978166 0.14836,-0.178761 1.14484,-0.29359 2.88139,-0.346867 z m -81.485934,1.065787 c 6.612838,-0.01739 13.297095,0.897825 15.486454,2.330748 2.179391,1.426411 -2.503617,5.732435 -7.985915,7.343133 -1.12829,0.331493 -2.812469,0.894603 -3.742261,1.251239 -1.992854,0.764388 -2.124828,0.696989 -1.662203,-0.84713 1.30755,-4.364186 -5.102059,-8.016496 -13.212948,-7.52916 -3.36437,0.202143 -4.365704,-0.0033 -3.615182,-0.739522 0.303004,-0.297411 4.458091,-1.030188 8.312179,-1.465887 2.019293,-0.228272 4.215597,-0.337651 6.419876,-0.343421 z m 48.731174,1.044022 c 2.769349,0.02858 5.187889,0.194334 6.73297,0.53461 0.69887,0.153917 3.28477,0.532174 5.74675,0.840262 8.65447,1.083033 13.59252,2.851203 16.28551,5.832033 3.28142,3.632129 -3.95503,6.892038 -9.62524,4.33582 -9.05945,-4.084144 -25.007036,-7.342003 -35.460415,-7.243535 -5.704168,0.05372 -5.316817,0.0967 -4.754804,-0.524298 0.255531,-0.282369 0.603206,-0.878088 0.772718,-1.323932 0.527234,-1.386735 11.994463,-2.536813 20.302511,-2.45096 z m -64.748815,3.394254 c 7.668057,-0.305342 13.117902,0.786962 15.825312,3.17101 0.5486,0.483083 0.683886,1.392362 0.247279,1.662203 -0.145942,0.09027 -0.207448,0.394661 -0.136228,0.676565 0.888644,3.515363 -11.420941,3.968562 -14.056067,0.517442 -0.806623,-1.056361 -1.012454,-1.560323 -0.889496,-2.175071 0.11762,-0.588098 -0.04109,-1.038982 -0.598709,-1.701701 -0.798271,-0.948699 -1.012787,-2.125748 -0.392091,-2.150448 z m 49.522788,2.705095 c 12.408495,0.171838 35.995457,6.311827 40.147117,11.47918 1.35335,1.684445 -0.12806,4.297729 -2.68105,4.729052 -0.70506,0.119126 -1.72011,0.399756 -2.2552,0.623332 -2.12761,0.888976 -4.14861,0.560429 -7.4765,-1.215173 C 86.125001,57.431427 69.43568,52.146089 66.187091,55.394678 c -0.751064,0.751053 -0.328646,0.897637 3.129806,1.086965 6.75951,0.370049 12.896552,2.181317 21.330516,6.29509 2.014796,0.982748 4.850161,2.261854 6.300817,2.842464 6.58531,2.635725 13.62735,7.62054 13.62735,9.646413 0,1.332582 -1.27212,1.766996 -7.06438,2.412027 l -4.347271,0.484246 -2.799533,-2.676474 C 91.355623,70.696988 88.143043,68.689114 75.309194,62.324553 68.056654,58.727868 64.298565,57.579773 59.582904,57.520514 l -2.197955,-0.02747 2.344484,-1.097842 c 1.289462,-0.603705 3.399515,-1.458731 4.688989,-1.899746 1.289473,-0.441005 2.542306,-0.976324 2.78408,-1.189986 0.365841,-0.323363 0.535109,-0.318567 1.008545,0.02858 0.764721,0.560894 2.3284,0.526856 3.474945,-0.07554 1.29664,-0.681294 3.564962,-0.959487 6.428461,-0.919823 z m 48.603537,2.988993 c 0.37332,-0.03234 0.82612,-0.02802 1.38919,0.0066 0.75074,0.04652 1.69774,0.148511 2.91458,0.291917 27.89741,3.287821 62.97854,11.580972 73.47998,17.370749 6.18553,3.41027 24.87887,9.459643 35.16736,11.380744 24.06264,4.493071 18.69191,11.108279 8.73975,13.584426 -9.69471,2.412104 -32.53841,2.340494 -38.40305,-0.1202 -3.62337,-1.520304 -12.59901,-5.120933 -15.90774,-6.38153 -1.53125,-0.583402 -7.59761,-2.92927 -13.48082,-5.213287 -16.24364,-6.3062 -17.2917,-6.708969 -19.34205,-7.431279 -1.0477,-0.369086 -2.43242,-0.876127 -3.07715,-1.126452 -0.64473,-0.250325 -2.55695,-0.938841 -4.24938,-1.530561 -1.69243,-0.59172 -6.83565,-2.433094 -11.42939,-4.09141 -9.1658,-3.308811 -10.80762,-3.807966 -16.81611,-5.11484 -4.56303,-0.992473 -4.7285,-1.07642 -4.96373,-2.525936 -0.0926,-0.57073 -0.57781,-1.504199 -1.07838,-2.07432 -1.25457,-1.428881 -1.14629,-1.586663 2.08978,-3.041085 1.53647,-0.690543 2.1034,-1.190064 2.91173,-2.562577 0.52987,-0.899697 0.93549,-1.324242 2.05543,-1.421226 z m -70.881346,2.78294 0.920399,0.422994 c 1.650175,0.758707 2.928572,1.067626 5.609942,1.354259 4.333915,0.46329 8.224975,1.808123 11.859253,4.099429 0.730474,0.460543 1.655968,0.936427 2.056588,1.057192 0.40062,0.120754 1.191891,0.57814 1.758368,1.016553 0.566477,0.438423 2.876579,1.755599 5.133149,2.927187 6.387767,3.316465 15.051664,10.329113 16.730249,13.541494 3.105298,5.942741 -7.259341,6.658028 -12.400155,0.855713 -7.873158,-8.886255 -14.094059,-13.643884 -24.406514,-18.66606 -3.103866,-1.511587 -8.366919,-2.597943 -9.345911,-1.928943 -0.674228,0.460753 -0.151414,1.130916 1.045185,1.339959 5.251245,0.917375 15.240337,5.890827 20.46449,10.189031 6.459076,5.314248 8.6879,7.47873 11.344681,11.017851 3.698953,4.927418 3.733234,6.61667 0.172292,8.391165 -2.990289,1.490121 -4.524705,0.993004 -7.354586,-2.382265 C 73.155157,83.869108 59.768311,72.582556 50.002318,66.540737 l -1.228343,-0.759548 0.05616,-1.20659 0.05605,-1.206024 -1.294735,-0.485952 c -1.864402,-0.699792 -1.81221,-1.110901 0.172293,-1.358845 1.161929,-0.145166 2.680461,-0.709262 4.879579,-1.812166 z m -27.401233,1.223182 c 0.915968,0.01 1.931391,0.147016 2.673041,0.408683 0.659252,0.232603 2.104924,0.54829 3.212225,0.701742 5.890649,0.816314 18.313655,12.821831 20.672848,19.977973 0.95499,2.896761 0.818873,4.807595 -0.41842,5.880692 -1.305025,1.131846 -1.824017,0.69813 -4.757662,-3.978088 C 41.567402,69.17428 34.629928,62.759487 27.011892,61.237588 c -0.985163,-0.196816 -1.340724,-1.040234 -0.651377,-1.544296 0.342591,-0.250513 1.158916,-0.368886 2.074896,-0.35946 z m -6.236142,0.494547 1.064635,1.199711 c 0.585561,0.659851 1.348056,1.976561 1.694258,2.926035 2.764742,7.582593 -5.006038,11.360509 -10.951448,5.324339 -1.431284,-1.453138 -1.508032,-2.046287 -0.264437,-2.046287 0.475341,0 1.195303,-0.482119 2.107517,-1.410925 0.761996,-0.775853 2.107316,-1.995734 2.989569,-2.710822 0.882263,-0.715099 1.999012,-1.746173 2.481863,-2.291251 z m 6.271055,4.052487 c 0.277539,-0.05483 0.605897,-0.02248 0.985649,0.119625 7.461506,2.791712 23.580685,23.819014 27.959315,36.472399 1.640803,4.74162 -0.849478,10.0472 -5.115982,10.90051 -0.973931,0.19477 -0.915204,0.29947 -1.64848,-2.9661 -1.889279,-8.413586 -7.485652,-19.797909 -16.009611,-32.567017 -2.526224,-3.78434 -3.140816,-4.465468 -4.896759,-5.429641 -2.679708,-1.471413 -3.216921,-6.145659 -1.274132,-6.529776 z m 93.315996,4.157801 c 0.28418,-3.87e-4 0.59131,0.03268 0.93127,0.09614 0.65554,0.122504 2.37072,0.442655 3.81094,0.711477 4.37493,0.81657 16.10895,4.843039 31.96258,10.968052 1.61184,0.622734 5.04065,1.931713 7.61959,2.908291 4.19773,1.589576 8.34668,3.176881 21.54001,8.240626 2.17598,0.835156 4.22009,1.63037 4.54245,1.767528 0.32237,0.137159 2.61352,1.056827 5.09195,2.043418 6.59887,2.626841 10.41947,4.388111 15.54426,7.166271 2.51173,1.36161 6.28148,3.15575 8.37686,3.98723 7.11885,2.82489 11.15479,5.16572 12.46198,7.22694 4.49371,7.08585 -6.52081,11.41578 -24.89075,9.78493 -8.60535,-0.76396 -10.27203,-1.41758 -21.41981,-8.39804 -21.01434,-13.15866 -23.7572,-14.742652 -42.31016,-24.433414 -5.03417,-2.629511 -18.32465,-9.249836 -21.26984,-10.595433 -12.15156,-5.551802 -13.99063,-7.021587 -9.86105,-7.878884 1.81169,-0.376108 4.7423,-1.728872 5.66718,-2.616374 0.70468,-0.676188 1.35001,-0.977609 2.20254,-0.978783 z M 11.094989,69.664241 c 0.522449,0.07853 1.156259,0.562634 2.132715,1.487629 2.618523,2.480523 3.74801,2.943525 7.217771,2.956374 l 2.916886,0.01108 0.204337,0.732655 c 0.918759,3.299463 -3.670266,8.314151 -6.873209,7.510264 -1.21287,-0.304411 -5.553297,-5.964606 -7.2292242,-9.426614 L 8.8397922,71.646041 9.628538,70.611168 c 0.532517,-0.698163 0.944003,-1.025259 1.466451,-0.946727 z m 39.935335,0.422429 c 5.885897,2.18761 25.373721,19.347997 28.407485,25.014959 3.322036,6.205441 -5.030528,7.164421 -9.617216,1.104134 -3.360659,-4.440359 -5.896652,-7.392301 -8.986451,-10.459205 L 57.785614,82.720935 57.05411,80.471454 C 56.106408,77.558776 54.69062,75.04827 52.389168,72.19762 51.370389,70.935727 50.758987,69.985876 51.030324,70.08667 Z M 6.9291689,72.240552 c 0.051394,0.06602 0.529338,0.977409 1.0617774,2.025097 1.4880168,2.927996 3.4696287,5.746037 5.7559057,8.185112 1.143809,1.220258 2.231793,2.50642 2.417753,2.858492 0.450076,0.852124 0.493894,0.740907 -0.817932,2.092641 -1.758224,1.811733 -5.229591,2.670382 -6.6820309,1.653054 C 5.1122735,86.566771 0.05352349,75.437902 2.4748655,75.437902 c 0.6738952,0 1.2966399,-0.393952 2.6226765,-1.658781 0.9563307,-0.912191 1.7802327,-1.604584 1.8316269,-1.538569 z m 20.4954051,0.502556 c 4.964601,0.77778 18.468469,22.097873 21.457583,36.569132 1.665482,8.06312 -1.419664,13.34699 -8.072343,13.82654 -2.620207,0.18887 -2.913519,-0.12271 -2.915734,-3.10347 -0.0022,-2.73431 -0.756182,-6.00671 -2.315298,-10.05396 -0.643933,-1.67158 -2.708363,-7.12756 -4.587673,-12.124261 -1.8793,-4.9967 -4.061714,-10.767437 -4.849817,-12.823725 -1.532754,-3.999177 -1.682806,-4.946148 -0.99481,-6.265329 0.269155,-0.516068 0.43849,-1.650407 0.439597,-2.94492 0.0022,-2.345037 0.692825,-3.259499 1.838495,-3.080007 z m -27.89634565,3.500708 c 0.11276816,0.824788 0.0407609,0.618525 1.76351855,5.041571 1.1201275,2.875859 3.4779799,6.537906 5.616244,8.72258 2.533645,2.588639 1.1705692,4.706755 -3.3730649,5.240767 L 1.9459816,95.435326 0.90595816,94.155478 C -3.1218621,89.197223 -6.4851577,80.713006 -4.4229437,80.713006 c 0.9544145,0 2.2640027,-1.30014 3.0754217,-3.052538 0.45409647,-0.98072 0.84817028,-1.61813 0.87575035,-1.416652 z m 113.83143165,0.439022 8.93838,4.216184 c 8.1906,3.863669 22.09151,10.71148 25.64286,12.631983 6.07275,3.284034 13.09787,7.194255 15.67879,8.727155 6.60539,3.9232 9.20226,5.49888 16.41142,9.95607 4.11019,2.54119 9.12154,5.63837 11.13634,6.88294 7.86608,4.85901 12.21726,8.61453 13.78303,11.89531 2.85926,5.99104 -3.57103,10.82141 -14.36916,10.79405 -6.78894,-0.0172 -9.22851,-1.18476 -21.68653,-10.37964 -1.53124,-1.13017 -3.36955,-2.46078 -4.08512,-2.95694 -5.20444,-3.60873 -15.34463,-11.19908 -19.55955,-14.64105 -3.8145,-3.11497 -14.33101,-11.03977 -16.15559,-12.17406 -1.00899,-0.62727 -5.42391,-3.665038 -9.81068,-6.750717 -4.38679,-3.085678 -8.89876,-6.113183 -10.02704,-6.72782 -7.651,-4.167958 -10.288611,-8.304437 -5.31289,-8.332793 3.90356,-0.02226 6.91781,-0.845899 8.53655,-2.333041 z m -146.211278,1.956989 c 0.21857,0.01108 0.410212,0.177166 0.546053,0.531165 0.263472,0.685902 0.442843,3.854343 0.270174,4.765682 -0.07632,0.402957 -0.396522,1.979628 -0.710902,3.503577 -0.314379,1.523948 -0.571239,3.118376 -0.571239,3.54364 0,2.174794 -4.248472,6.385884 -6.965368,6.904112 -1.908629,0.364057 -3.874545,-1.245966 -3.876761,-3.175596 -0.0011,-0.845722 0.117841,-0.905413 2.445223,-1.218607 2.613627,-0.351718 4.713238,-2.318598 5.563025,-5.212146 0.4461,-1.518998 0.648376,-2.450108 1.388607,-6.396406 0.357777,-1.9074 1.255469,-3.277177 1.911188,-3.245421 z m 26.2026635,2.289533 0.02171,0.844272 c 0.098247,3.81007 2.9842524,10.485932 5.71239774,13.214088 2.00294456,2.002945 -3.10393214,5.84195 -5.71755934,4.298039 -2.5173184,-1.48702 -6.5081329,-12.929937 -5.2979989,-15.191104 0.549596,-1.026909 3.063559,-2.805369 4.2339398,-2.995295 z m 28.9483865,1.757803 c 0.7573,0.01739 1.154409,1.236751 2.556274,4.766247 5.84877,14.7255 8.981223,23.27194 10.311524,28.13389 2.070798,7.56826 -1.940651,16.15231 -7.590401,16.24258 -2.332078,0.0372 -2.417277,-0.17417 -2.444082,-6.06557 l -0.02348,-5.04844 -1.058908,-4.54245 c -0.582671,-2.49834 -1.464391,-6.49412 -1.959282,-8.87942 -1.248757,-6.01884 -1.653896,-7.629885 -3.182463,-12.660589 -2.051636,-6.752189 -1.773222,-9.015195 1.343969,-10.918818 1.008135,-0.615656 1.592467,-1.037875 2.04684,-1.02743 z m 35.020267,3.991236 c 2.285391,-0.298829 12.100828,10.734507 13.392096,15.383431 0.34299,1.23505 0.341816,1.32944 -0.03035,2.61981 -0.486905,1.68834 -1.668661,2.16384 -5.090794,2.04685 -4.215963,-0.14412 -4.668918,-0.53453 -5.73187,-4.93796 -0.759161,-3.144928 -1.814935,-5.814767 -3.682726,-9.313859 l -1.620423,-3.035358 0.980499,-0.920975 c 0.539096,-0.506333 1.183019,-1.237737 1.431539,-1.625574 0.08063,-0.125894 0.199651,-0.196439 0.352017,-0.216365 z m 44.796031,0.489396 c 3.76602,0.0123 14.49874,7.321778 39.23129,26.455085 1.20888,0.93521 2.72546,2.0526 3.3702,2.483 0.64474,0.43041 2.4251,1.72436 3.95634,2.8751 9.48786,7.13011 20.52947,15.12848 27.07039,19.60991 4.19754,2.8759 5.67791,4.65389 6.9024,8.28872 2.59279,7.69657 -8.3431,13.16323 -19.53151,9.76318 -2.55201,-0.77552 -7.58279,-5.2148 -21.47475,-18.94882 -6.04439,-5.97569 -12.11077,-11.90315 -13.48083,-13.17174 -1.37007,-1.26858 -3.98912,-3.76499 -5.82002,-5.54756 -1.83089,-1.78256 -3.48083,-3.37272 -3.66612,-3.5339 -0.1853,-0.16118 -1.98415,-1.81952 -3.99755,-3.68502 -2.0134,-1.86551 -5.57263,-5.02076 -7.90979,-7.01172 -2.33716,-1.99097 -5.76598,-4.95452 -7.619596,-6.585864 -1.853613,-1.631334 -4.204255,-3.601514 -5.223588,-4.378176 -2.012658,-1.533529 -2.568679,-2.37645 -2.292402,-3.477238 l 0.178584,-0.710912 2.715972,0.02979 c 3.223789,0.03533 4.902031,-0.496884 6.38324,-2.025108 0.27417,-0.282867 0.66973,-0.430482 1.20774,-0.42871 z m -116.410035,1.848231 c 0.820689,-0.09315 1.206644,0.969389 2.090347,4.375883 0.344419,1.327653 1.00963,3.243914 1.47847,4.258551 1.228808,2.65928 0.519535,3.84998 -2.440073,4.09542 -4.234416,0.35114 -6.215861,-1.923949 -7.117043,-8.171954 l -0.195187,-1.352542 0.849998,-0.605588 c 0.467599,-0.332954 1.436135,-0.837315 2.152165,-1.120725 0.71603,-0.283399 1.697803,-0.753368 2.181362,-1.044609 0.404696,-0.243735 0.726397,-0.403389 0.999961,-0.434436 z m 28.183687,1.384597 c 0.432819,-0.03954 0.871874,0.03046 1.306177,0.228383 1.451996,0.661578 6.256534,19.982574 6.725528,27.046354 0.324913,4.89361 0.346977,6.3153 0.144812,9.19766 -0.301088,4.29271 -0.922581,6.16563 -2.553405,7.69 l -1.332517,1.24551 h -1.580925 c -1.865664,0 -3.189707,-0.50375 -4.199016,-1.59753 l -0.732655,-0.79389 -0.195763,-7.37633 C 11.109466,112.4008 10.524946,105.57426 9.3228865,100.93538 8.1258117,96.315706 10.859606,90.677409 13.889382,90.400623 Z m -36.109513,3.14641 0.296502,1.129309 c 0.718478,2.733307 1.141416,4.917549 1.015412,5.245918 -0.07499,0.19549 0.465162,0.96518 1.200287,1.71086 0.735114,0.74568 1.336526,1.41447 1.336526,1.48591 0,0.20131 -1.929708,1.625 -2.20254,1.625 -0.133282,0 -0.475098,0.21077 -0.75956,0.46821 -2.167539,1.9616 -5.839709,-1.40425 -7.130778,-6.536067 -0.962721,-3.82673 -0.690687,-4.361573 2.32675,-4.575645 1.128291,-0.08008 2.471286,-0.237488 2.984419,-0.349735 z m 113.212683,0.539184 c 0.573709,0.115804 1.347956,0.730307 3.085733,2.123544 3.86368,3.097641 16.253195,13.961719 20.453625,17.935129 1.12828,1.06731 3.52016,3.31198 5.31517,4.98834 7.17612,6.70174 20.4667,19.55175 25.30974,24.47062 5.30794,5.39104 9.86701,9.82474 13.22954,12.86551 2.22088,2.00836 3.47245,3.76317 4.16525,5.84004 2.9864,8.95274 -13.88586,14.54144 -24.28574,8.04431 -1.9779,-1.23566 -6.16165,-5.49279 -11.05334,-11.2468 -0.41109,-0.48356 -1.70664,-2.00015 -2.87909,-3.37021 -3.2794,-3.8321 -8.56364,-10.48321 -12.57303,-15.82531 -4.72467,-6.29514 -7.06334,-9.18752 -11.60969,-14.36 -2.054251,-2.33716 -5.93758,-6.88694 -8.629849,-10.11062 -2.692269,-3.22368 -5.671571,-6.72212 -6.62079,-7.77414 -4.475382,-4.96002 -4.776703,-5.49142 -3.784031,-6.67115 0.385756,-0.45845 0.791294,-1.192667 0.901503,-1.631877 0.342791,-1.365756 1.715879,-2.426658 4.22077,-3.260872 1.284866,-0.42789 2.824122,-1.108631 3.420572,-1.513393 0.321357,-0.218071 0.56528,-0.380616 0.798481,-0.463057 0.174896,-0.06181 0.343943,-0.07864 0.535176,-0.0401 z M -32.25004,95.74327 c 1.08166,-0.173001 1.659833,0.560939 2.178505,2.297553 1.320266,4.420477 -0.09947,6.811937 -5.297434,8.924057 -2.62114,1.06507 -3.879733,0.34153 -5.589343,-3.21051 -1.564156,-3.24985 -1.474836,-4.285442 0.369761,-4.285442 1.25414,0 3.501986,-0.959786 5.751899,-2.455534 1.107324,-0.736145 1.937617,-1.166327 2.586612,-1.270124 z m -13.961057,1.09154 c 0.177642,-0.0494 0.493362,0.376119 1.07838,1.239785 1.30168,1.9217 2.143581,3.837175 2.143581,4.877875 0,0.94035 1.332538,3.73178 2.185937,4.5785 1.786934,1.77293 1.981667,2.11147 1.611263,2.80355 -0.52812,0.98683 -4.765338,6.84925 -5.032411,6.9625 -0.126702,0.0537 -0.230099,0.20799 -0.230099,0.34286 0,1.1542 -5.880027,7.69543 -8.205714,9.1284 -4.716558,2.90612 -6.574779,1.55274 -6.500014,-4.73363 2.157703,-4.74821 7.100163,-9.03502 8.502792,-14.02745 0.05394,-0.38133 0.32477,-0.75283 0.602143,-0.82538 0.277385,-0.0726 0.657569,-0.48603 0.844272,-0.91868 0.186702,-0.43265 0.792744,-1.40858 1.346826,-2.16877 1.02609,-1.40779 1.306232,-2.53653 1.403483,-5.651155 0.03234,-1.034884 0.07189,-1.559049 0.249561,-1.608405 z m 51.8100425,0.214648 c 1.3704416,-0.06535 1.53549,0.953196 1.9701475,4.763962 0.1011269,0.88652 0.3668039,2.66685 0.590136,3.95633 0.4796828,2.76947 0.9650699,7.86614 1.158507,12.16204 0.6142714,13.64166 0.5027659,15.60266 -1.0617774,18.69812 -2.8789607,5.69606 -7.1261367,7.15217 -9.3453356,3.20364 l -0.6639708,-1.18084 0.37263,-4.27972 c 0.64422177,-7.40035 0.78679634,-13.93984 0.51399731,-23.5508 L -1.130592,101.5152 -0.50554339,100.22333 C 0.27771957,98.605329 1.0218166,98.116264 3.7718931,97.412917 4.5511464,97.21362 5.1421353,97.071245 5.5989455,97.049458 Z m -11.7339027,4.734772 c 3.1485808,0.0491 3.1476615,0.0481 3.4125631,3.76228 0.5877767,8.24144 0.3410957,27.27191 -0.4046739,31.20645 -0.483061,2.54857 -1.7532618,4.78767 -4.0627882,7.16284 -3.7618108,3.86873 -8.4371098,-0.72634 -6.9630708,-6.84344 0.264625,-1.09817 0.878597,-4.5681 1.36456,-7.71118 0.485952,-3.14308 1.165252,-7.49504 1.509383,-9.67102 0.49447,-3.12689 0.620906,-5.18104 0.603295,-9.79695 -0.03035,-7.96248 0.09094,-8.17832 4.5407318,-8.10898 z m 81.3153662,0.61531 c 2.761297,0 4.000096,1.23295 16.489283,16.41258 1.126585,1.36929 3.566325,4.24905 5.421633,6.39927 6.382845,7.39748 7.773895,9.0507 9.381405,11.15293 0.8865,1.15935 2.03779,2.66268 2.55855,3.34044 0.52077,0.67776 2.21591,2.94675 3.76687,5.04214 4.42292,5.97546 12.21609,15.10692 18.13317,21.24696 3.54977,3.68353 5.38997,5.86031 6.30253,7.45531 2.91595,5.09655 1.26879,9.58558 -4.67237,12.73386 -8.35058,4.42506 -16.58533,1.49745 -21.04834,-7.48279 -1.11006,-2.2336 -3.57979,-6.69864 -5.4886,-9.9223 -1.9088,-3.22368 -4.87902,-8.30097 -6.600749,-11.28287 -1.721728,-2.9819 -4.878417,-8.25699 -7.014576,-11.72245 -4.537199,-7.36062 -3.851319,-6.20371 -8.914334,-15.03656 -2.199737,-3.83764 -5.618005,-9.50838 -7.596127,-12.60165 -5.312985,-8.3081 -5.472573,-8.57139 -5.472573,-9.00934 0,-0.22156 0.545554,-0.95878 1.212881,-1.63874 1.047178,-1.06699 1.232131,-1.45009 1.35026,-2.79553 0.160086,-1.82355 0.607714,-2.29126 2.191087,-2.29126 z m -89.934914,1.46531 c 1.539278,0 1.780953,0.24977 2.209983,2.28553 0.616454,2.92504 0.353291,9.62651 -0.59471,15.15162 -0.705917,4.11416 -0.906709,5.33234 -1.403493,8.49877 -0.758076,4.83189 -2.301109,10.70625 -3.080573,11.72819 -0.41143,0.53939 -0.748106,1.09879 -0.748106,1.24264 0,0.34638 -1.134593,1.33289 -2.051437,1.78413 -0.402957,0.19834 -1.062342,0.55661 -1.465299,0.79618 -2.148034,1.27701 -4.403973,-1.06525 -5.109114,-5.30543 -0.257115,-1.54609 -0.03002,-2.41716 2.404583,-9.21999 3.786401,-10.57984 4.747693,-14.03472 5.594501,-20.1142 0.791737,-5.68415 1.512396,-6.84744 4.243665,-6.84744 z m -13.483111,0.57581 0.653659,0.61417 c 1.111001,1.04373 -0.110099,5.85303 -1.930084,7.60186 -0.08385,0.0806 -0.326088,0.54216 -0.538609,1.02571 -0.427868,0.97358 -0.576922,1.22026 -4.777699,7.91266 -1.618795,2.57893 -3.176818,4.95274 -3.462366,5.2751 -0.285548,0.32237 -1.156569,1.50926 -1.935811,2.63755 -0.779242,1.12829 -2.009125,2.64488 -2.732565,3.37021 -0.723439,0.72532 -1.345663,1.49765 -1.38288,1.71659 -0.03722,0.21893 -0.340774,0.689 -0.674848,1.0446 -0.334062,0.3556 -0.607293,0.78891 -0.607293,0.96275 0,0.30047 -0.686943,0.73282 -1.318782,0.82996 -0.161193,0.0248 -0.529969,0.14777 -0.819083,0.27302 -2.618501,1.13445 -4.678411,-1.33424 -4.721609,-5.65802 l -0.02747,-2.73658 0.772142,-0.63363 c 0.424722,-0.34874 1.385417,-1.11809 2.134997,-1.70914 2.144455,-1.69094 6.053105,-6.84056 10.134092,-13.35261 l 2.491016,-3.97522 2.937488,-1.49506 c 1.615793,-0.82251 3.583304,-1.99251 4.371873,-2.59978 z m 7.999085,2.66789 0.01949,1.23579 c 0.06025,3.8822 -4.346476,19.11155 -7.393498,25.55243 -0.412925,0.87284 -0.808893,1.89005 -0.880336,2.26092 -0.07144,0.37086 -0.263063,0.71902 -0.425852,0.77329 -0.162777,0.0543 -0.303092,0.2527 -0.311953,0.44074 -0.04242,0.92448 -2.839939,4.42491 -4.086824,5.11369 -6.507937,3.595 -9.973888,-5.44745 -4.888754,-12.75446 6.444403,-9.26023 7.823296,-11.48153 10.832403,-17.44402 2.538796,-5.031 2.240887,-4.75054 5.358099,-5.02269 z m 80.261033,0.27933 1.874558,0.91295 c 1.256322,0.61213 2.483381,0.96242 3.721649,1.06178 2.270681,0.18226 2.0525,-0.0445 6.281931,6.51776 6.140088,9.52681 8.60835,13.63258 12.59706,20.95387 1.80542,3.31386 4.215885,7.32966 7.125051,11.86899 3.938766,6.14588 4.757662,7.4864 7.071253,11.57592 1.094242,1.93421 3.711686,6.41804 5.816586,9.96409 4.25518,7.16858 8.17437,14.67187 8.84735,16.93803 0.98406,3.31368 -1.22583,6.28385 -6.88521,9.25319 -9.771602,5.1269 -19.908187,-2.47231 -24.496392,-18.365 C 80.39384,172.588 73.19357,150.98882 66.080625,130.3869 62.565584,120.20593 62.216812,119.30775 59.973843,114.65947 57.8607,110.28024 57.820205,109.94559 59.205135,108.3369 Z m -4.152086,4.59282 0.575249,0.70461 c 0.316241,0.38735 1.47158,2.55031 2.567716,4.80688 2.018163,4.1547 3.237269,7.52684 11.597099,32.09023 8.763584,25.74973 10.706528,31.89569 12.38127,39.15631 0.487447,2.11327 1.161354,4.55299 1.497365,5.42163 2.533468,6.54933 1.458931,8.54075 -6.342032,11.75279 -13.373377,5.50648 -17.76408,2.28139 -19.435344,-14.27643 -0.864054,-8.56044 -2.1906,-18.09195 -3.385658,-24.32409 -3.944139,-20.5684 -5.652243,-28.37237 -8.321916,-38.02356 -1.49731,-5.41296 -1.504731,-5.21602 0.249561,-6.30655 1.813196,-1.12714 2.80291,-2.6102 3.583127,-5.36726 0.748395,-2.64455 1.548029,-3.73732 3.518453,-4.80975 z m -18.115998,12.96109 c 0.319663,0.0678 1.681055,0.13478 3.025058,0.1494 2.944211,0.032 2.93514,0.0232 4.137199,3.97063 4.041621,13.27245 10.63472,47.26878 11.737912,60.52346 0.187821,2.25657 0.599496,6.27886 0.914673,8.93838 0.315188,2.65954 0.641474,6.15428 0.725212,7.76612 l 0.152244,2.93062 -0.704599,1.4653 c -2.483945,5.16417 -10.829287,7.65113 -17.78116,5.29915 -5.342736,-1.80758 -5.335958,-1.77705 -5.724992,-26.83915 -0.101348,-6.52795 -0.305297,-14.50654 -0.453332,-17.73021 -0.148035,-3.22368 -0.272566,-8.57754 -0.275889,-11.89761 -0.0055,-5.55642 -0.773826,-17.56339 -1.46016,-22.83017 -0.42717,-3.27795 -0.412295,-3.34886 1.046326,-5.03355 0.742923,-0.85806 1.964664,-2.74723 2.715396,-4.19787 1.120626,-2.16541 1.468944,-2.61551 1.946112,-2.5145 z m -98.676393,0.17 0.204912,1.08639 c 0.62949,3.33401 1.32474,4.01561 4.115456,4.03189 0.97516,0.006 1.93127,0.16831 2.124696,0.36174 0.634518,0.63452 0.02968,4.23833 -0.826528,4.92366 -0.1768,0.14152 -0.643612,1.23948 -0.592993,1.3949 0.149874,0.46032 -3.590017,6.17831 -6.213237,9.49931 l -2.102952,2.66217 -0.247268,-0.84369 c -1.448586,-4.94477 0.0617,-16.52511 2.842464,-21.79759 z m 84.446893,7.35859 1.144772,0.64337 c 0.799113,0.44913 1.638965,0.64335 2.782929,0.64335 2.943957,0 3.77147,5.40004 4.131484,26.96165 0.223088,13.36101 0.44271,22.59659 0.595851,25.05674 0.07022,1.12828 0.197004,4.49118 0.282181,7.47307 0.08518,2.9819 0.229601,8.5867 0.320538,12.4551 l 0.165425,7.03348 -0.713194,1.48934 c -2.416402,5.04538 -10.270398,7.28071 -15.899147,4.52528 -4.826424,-2.36266 -5.727096,-4.9989 -4.557912,-13.34116 0.158126,-1.12828 0.496242,-4.75492 0.751541,-8.05919 0.577918,-7.47954 0.844681,-10.38125 1.748643,-19.04898 1.067448,-10.23523 1.291733,-13.44714 1.773819,-25.34981 0.622014,-15.35728 0.4706,-14.55518 2.966674,-15.65932 1.09669,-0.48512 2.443506,-1.87729 4.088552,-4.22592 z m -11.885017,4.49609 c 0.886948,-0.0893 1.726745,0.54308 2.550547,1.89402 0.501536,0.82249 0.872549,7.33434 0.445324,7.81593 -0.05959,0.0671 -0.186027,3.48479 -0.281616,7.59497 -0.09559,4.11019 -0.300811,8.65997 -0.45619,10.11063 -0.155367,1.45064 -0.429518,4.28602 -0.609021,6.30081 -0.179514,2.0148 -0.45012,4.78423 -0.601002,6.15429 -0.150882,1.37006 -0.418264,3.80979 -0.59471,5.42163 -0.176446,1.61184 -0.379121,3.3922 -0.449899,3.95634 -0.07078,0.56415 -0.1874,2.21261 -0.259286,3.66326 -0.157328,3.1741 -0.481211,7.4003 -0.627906,8.19771 -0.05848,0.31793 -0.381613,2.95547 -0.718345,5.86122 -0.3367312,2.90574 -0.737905,5.81063 -0.8912014,6.45536 -0.1533076,0.64473 -0.3278263,1.59952 -0.3880815,2.12184 -0.6137175,5.31841 -9.19655831,7.51195 -16.6197844,4.24766 -0.7034469,-0.30933 -1.7103411,-0.7323 -2.2374527,-0.93985 -2.46732,-0.97147 -2.773802,-2.32723 -1.361137,-6.02149 3.0570566,-7.99455 6.0231992,-21.00598 8.9166256,-39.11797 1.90430979,-11.92044 4.4117924,-26.21409 4.6311703,-26.39955 0.110863,-0.0937 0.7949374,-0.33532 1.5202601,-0.53691 2.1083912,-0.58596 3.4777695,-1.73006 5.1995413,-4.3444 1.0112804,-1.53552 1.9452257,-2.34629 2.8321637,-2.4355 z m -54.366882,0.35144 c 0.30914,0.16227 0.426638,0.8704 0.72921,2.32217 0.220851,1.05964 0.654346,2.5103 0.963907,3.22368 0.767812,1.7694 0.59059,2.29044 -2.53853,7.45131 -0.58637,0.9671 -1.152204,1.98916 -1.25754,2.27123 -0.105336,0.28207 -0.327716,0.51285 -0.49396,0.51285 -0.166245,0 -0.302218,0.14824 -0.302218,0.3297 0,0.29316 -4.553968,7.45736 -5.937934,9.34133 -0.296015,0.40295 -1.182465,1.72172 -1.969572,2.93061 -0.787106,1.20888 -2.231405,3.3727 -3.209367,4.80861 -0.977974,1.43592 -1.777829,2.7102 -1.777829,2.83159 0,0.12138 -1.022058,1.28795 -2.271225,2.59234 l -2.271224,2.37138 -1.113294,-0.001 c -1.445672,-0.001 -2.414353,-1.00387 -2.621524,-2.71197 -0.287132,-2.36772 -0.260017,-7.27012 0.04863,-8.79756 0.358319,-1.7731 1.845217,-9.67353 2.379407,-12.6417 l 0.364611,-2.02396 2.472138,-3.39768 c 1.359808,-1.86878 3.615902,-5.00863 5.013525,-6.97738 2.91096,-4.10049 2.977496,-4.14919 4.297462,-3.1424 2.299148,1.75364 4.716126,1.64572 7.616165,-0.33999 1.068878,-0.73188 1.569993,-1.11529 1.879145,-0.95302 z m 39.9238847,4.04676 0.9015028,0.51916 c 0.4958875,0.28531 1.14695443,0.91421 1.44642528,1.39777 0.8147862,1.31565 0.71970695,2.19207 -1.61928248,14.94613 -0.3842824,2.09539 -0.8601438,4.79889 -1.0571918,6.00776 -0.197048,1.20888 -0.470855,2.59359 -0.6090211,3.07714 -0.1381552,0.48354 -0.4047182,1.80233 -0.5918529,2.93061 -0.1871346,1.12829 -0.4438176,2.57894 -0.5706638,3.22367 -0.1268351,0.64474 -0.499166,2.75478 -0.827092,4.68898 -1.8427143,10.86874 -2.7831837,15.53847 -3.8367092,19.04899 -0.2902442,0.9671 -0.9485435,3.40684 -1.4630175,5.42164 -1.553068,6.08214 -2.533446,7.80581 -5.232737,9.20167 -11.757806,6.0802 -19.1946,-0.1824 -13.709777,-11.54502 5.4393,-11.26825 8.756086,-20.6599 13.041796,-36.92687 4.00703,-15.20923 4.296754,-15.84858 7.3431335,-16.20938 2.4154273,-0.28607 3.6520224,-1.27869 6.2533105,-5.01868 z m -26.0578507,0.12307 c 0.288992,-0.002 0.451792,0.4024 0.820235,1.21117 0.331316,0.72728 0.564916,1.74933 0.519724,2.27122 -0.304998,3.52057 -0.441303,4.00969 -1.940961,6.95678 -0.861218,1.69243 -1.833399,3.53871 -2.16076,4.10285 -0.327361,0.56414 -1.256079,2.27857 -2.063444,3.80981 -1.757792,3.33382 -1.782016,3.37612 -5.076486,8.93837 -1.432015,2.41775 -2.68486,4.46181 -2.784657,4.54245 -0.0998,0.0806 -0.352892,0.47622 -0.562656,0.87918 -1.896833,3.64385 -10.206908,14.94882 -11.035019,15.01195 -0.237632,0.0182 -0.928895,0.8797 -1.859107,2.31702 -0.241786,0.37357 -0.89663,1.14431 -1.45501,1.71258 -0.55838,0.56828 -0.987001,1.13206 -0.952443,1.25295 0.03456,0.12089 -0.06458,0.21979 -0.220374,0.21979 -0.155822,0 -1.111931,0.84196 -2.124696,1.87114 -5.596262,5.68699 -10.163733,-4.24456 -7.228648,-15.71829 0.309794,-1.21102 0.362938,-1.23636 1.651902,-0.78703 3.410237,1.18882 9.530687,-6.32212 21.747208,-26.68747 4.694538,-7.82594 4.982102,-8.12995 7.743812,-8.18511 1.887495,-0.0377 3.647204,-0.84891 5.402747,-2.49102 0.874156,-0.81767 1.28964,-1.22627 1.578633,-1.22834 z m 12.785379,1.86598 c 0.308044,-0.0731 0.578627,0.17057 0.953595,0.69716 0.906509,1.27309 0.949363,3.90719 0.106443,6.55725 -0.358862,1.12829 -1.080729,3.63396 -1.604396,5.56816 -2.554413,9.43479 -4.96747,17.75476 -5.269377,18.16981 -0.117243,0.16118 -0.281793,0.8346 -0.365752,1.49679 -0.08396,0.66218 -0.350333,1.65127 -0.591842,2.19795 -0.241497,0.5467 -0.672909,1.78551 -0.959321,2.7526 -0.286412,0.96711 -0.616243,1.95619 -0.732655,2.19797 -0.488777,1.01512 -0.886849,1.97444 -1.276415,3.07714 -0.227774,0.64474 -0.649018,1.69976 -0.936426,2.34449 -0.287409,0.64473 -0.542298,1.23815 -0.566666,1.31878 -0.02437,0.0806 -0.263672,0.63653 -0.531176,1.23578 -0.267505,0.59926 -0.485952,1.16752 -0.485952,1.26211 0,1.7245 -6.140986,12.6282 -6.9396,12.32174 -0.229535,-0.0881 -0.340509,-0.0356 -0.246692,0.11619 0.484102,0.78327 -5.307152,3.52705 -7.444452,3.52705 -4.801613,0 -8.958661,-4.76819 -8.942379,-10.25715 0.01617,-5.42982 1.28635,-8.21597 8.416353,-18.46287 2.13781,-3.07236 5.680597,-8.78843 7.538323,-12.16204 0.532539,-0.96711 1.295211,-2.35181 1.694834,-3.07714 0.399623,-0.72533 0.825586,-1.45066 0.946152,-1.61184 0.55786,-0.7458 5.833528,-10.99985 6.29509,-12.23532 0.863068,-2.31018 1.544119,-2.77912 4.211621,-2.90027 2.612442,-0.11866 4.124572,-0.91705 5.552711,-2.93176 0.524453,-0.73988 0.869913,-1.12953 1.177968,-1.20258 z"
         sodipodi:nodetypes="ssssssssssssssccssssssssscsssssssssssssccccsssccssssccsssssssssssccccccssssssssscccssssssssssssssscssssscssssssssssssssssssscssscsssssssssssssscsscscsccsccssscssssssssssssssssssssssssssssssssssscsssssscssssssssssscssscssssssssssssssssssssssssscsssssssssssssssccccsscccsssssssccssssssccscsssssssssssssssssssssssssssccssccscsscccssssssssssssssssssscsssssccsssccsssssssssssssscccssssscssccsssssccssscccsssssssssscssssssssssssssssssscssssssssccsssssssscsscscsccssssssscsssssssssssssssssssssssssssssssssssscsscssssssssccscccsssssssssssssssssssssssssssssssssssssssssscsssssssssscssccssccscccssscsscccscssssssssssscccsssssssssssscsssssscsssscssssccssssscsscssssssscsssssssccssssssssssssssssssssssssssssssssssccssccsssssccsssssssssssssscssssssssssssssssssssssssssssssssssssssssssssssssssssssssssss"
         inkscape:label="outline" /><g
         id="primaries"
         transform="matrix(1.1076334,0,0,1.1076334,-148.47265,-558.60556)"
         inkscape:label="primaries"><g
           id="g15"><path
             style="fill:#247cb0;fill-opacity:1;stroke:none;stroke-width:4.6266;stroke-linecap:round;stroke-linejoin:round"
             d="m 1693.5725,2072.3896 c -1.0324,-0.3941 -39.2448,-6.433 -85.0267,-13.4373 -6.3687,-0.9743 -17.3858,-2.1157 -24.4825,-2.5363 -12.1203,-0.7184 -13.7096,-1.1346 -26.2012,-6.8605 -21.1296,-9.6854 -39.2379,-13.3959 -82.1833,-16.8397 -24.6528,-1.9769 -82.4914,-4.7357 -130.3689,-6.2183 -37.393,-1.1579 -44.652,-1.6922 -52.0252,-3.8292 -4.7129,-1.366 -9.0178,-2.9087 -9.5665,-3.4282 -1.4907,-1.4117 8.6336,-3.6198 22.7507,-4.9619 43.697,-4.1544 209.3659,-5.9369 294.0703,-3.1641 121.3711,3.973 175.6615,13.0093 175.6615,29.2377 0,8.4059 -9.9157,13.8143 -45.3314,24.7251 -23.2506,7.163 -32.7899,9.0333 -37.2968,7.3127 z"
             id="path7"
             transform="matrix(0.26458333,0,0,0.26458333,-102.92291,6.3500071)" /><path
             style="fill:#247cb0;fill-opacity:1;stroke:none;stroke-width:4.6266;stroke-linecap:round;stroke-linejoin:round"
             d="m 1659.9092,2144.5591 c -1.6832,-0.2846 -7.1819,-1.1273 -12.2194,-1.8726 -16.761,-2.4798 -27.3898,-6.0485 -47.1506,-15.8314 -32.6942,-16.1859 -71.4032,-27.6695 -140.1619,-41.5809 -45.0952,-9.1238 -87.9222,-16.3329 -112.6192,-18.9575 -10.4356,-1.1089 -20.7451,-2.5629 -22.9099,-3.2309 -2.1649,-0.668 -6.6967,-3.6965 -10.0707,-6.7301 l -6.1346,-5.5155 2.345,-3.2784 c 1.2897,-1.8031 2.9405,-5.5813 3.6683,-8.3959 1.3137,-5.0805 1.3727,-5.1236 8.1634,-5.9721 10.9402,-1.3668 103.9678,2.4382 153.4713,6.2773 41.6603,3.2309 56.3544,6.4558 80.1294,17.5858 11.2802,5.2806 13.4708,5.875 23.9821,6.5072 10.7023,0.6437 43.395,5.2455 89.0422,12.5336 26.3597,4.2086 101.2143,21.0439 108.7946,24.4686 10.738,4.8513 12.7277,11.8484 6.1472,21.6181 -3.7143,5.5144 -9.7572,8.6305 -26.5475,13.6897 -23.2707,7.0118 -33.9437,8.4395 -66.1026,8.8423 -15.8218,0.1981 -30.144,0.1274 -31.8271,-0.1573 z"
             id="path8"
             transform="matrix(0.26458333,0,0,0.26458333,-102.92291,6.3500071)" /><path
             style="fill:#247cb0;fill-opacity:1;stroke:none;stroke-width:4.6266;stroke-linecap:round;stroke-linejoin:round"
             d="m 1645.9412,2221.1741 c -21.9929,-1.723 -27.6449,-3.2363 -59.2193,-15.8549 -28.8593,-11.5334 -112.3571,-43.9907 -133.0773,-51.7298 -56.3148,-21.0338 -100.6531,-36.1783 -120.576,-41.1848 l -22.6462,-5.691 -2.4483,-4.9458 c -1.3465,-2.7202 -3.3892,-6.2528 -4.5394,-7.8502 -1.1501,-1.5975 -1.7986,-3.3779 -1.4409,-3.9565 0.3576,-0.5786 3.8485,-2.6666 7.7576,-4.6399 4.1042,-2.0718 8.7652,-5.6809 11.0307,-8.5414 3.859,-4.8723 4.0532,-4.9537 11.828,-4.9537 14.9511,0 71.8979,8.8383 118.8361,18.4437 64.7206,13.2443 114.7274,27.7434 141.1363,40.9213 27.7287,13.8366 77.5282,29.9055 123.0242,39.6964 30.4268,6.548 44.2873,11.5758 51.7191,18.7607 7.6048,7.3522 4.1155,14.7051 -10.0309,21.1381 -4.7503,2.1602 -11.1228,4.5287 -14.1612,5.2635 -18.874,4.5641 -69.9623,7.2577 -97.1925,5.1243 z"
             id="path9"
             transform="matrix(0.26458333,0,0,0.26458333,-102.92291,6.3500071)" /><path
             style="fill:#247cb0;fill-opacity:1;stroke:none;stroke-width:4.6266;stroke-linecap:round;stroke-linejoin:round"
             d="m 1601.1513,2300.6146 c -23.6256,-2.6475 -30.4449,-5.8445 -86.3006,-40.4597 -41.6108,-25.7873 -56.3427,-34.5322 -79.5679,-47.2313 -28.9182,-15.8121 -77.5057,-40.6353 -111.2109,-56.8174 -36.4955,-17.5218 -45.4767,-22.5568 -45.4767,-25.495 0,-1.0388 3.777,-3.0397 9.5753,-5.0728 5.2664,-1.8466 10.7749,-4.2172 12.2412,-5.2681 1.4663,-1.0508 3.9537,-2.84 5.5277,-3.9759 2.5532,-1.8427 3.8727,-1.903 12.2412,-0.5593 19.375,3.1108 50.0037,13.1753 113.4298,37.2729 132.226,50.2366 149.7012,57.2854 183.6183,74.064 15.4851,7.6603 32.8371,15.8671 38.5598,18.2372 31.1459,12.8991 41.6054,21.2513 41.6156,33.2315 0.01,10.3468 -11.5097,17.6874 -33.8738,21.5874 -11.4798,2.0019 -44.4827,2.2678 -60.379,0.4865 z"
             id="path10"
             transform="matrix(0.26458333,0,0,0.26458333,-102.92291,6.3500071)" /><path
             style="fill:#247cb0;fill-opacity:1;stroke:none;stroke-width:4.6266;stroke-linecap:round;stroke-linejoin:round"
             d="m 1532.6005,2364.7954 c -6.1367,-0.9756 -17.8085,-5.7217 -25.7095,-10.4542 -14.3277,-8.5818 -85.8614,-60.76 -116.2886,-84.8233 -32.7917,-25.9331 -104.8712,-76.9436 -127.3087,-90.096 -11.7815,-6.906 -20.8101,-15.4595 -20.8101,-19.715 0,-3.5924 1.9073,-4.6405 8.4442,-4.6405 11.2288,0 23.4552,-3.681 28.9862,-8.7269 2.5187,-2.2977 2.8342,-2.1811 33.0513,12.2137 87.1212,41.5027 120.6464,59.8014 206.1698,112.5315 43.8347,27.0266 54.338,34.2587 64.3032,44.2764 9.7865,9.838 12.8036,15.189 12.8057,22.7115 0,13.5866 -11.7789,22.5849 -34.3738,26.251 -7.5716,1.2285 -22.9509,1.4764 -29.2697,0.4718 z"
             id="path11"
             transform="matrix(0.26458333,0,0,0.26458333,-102.92291,6.3500071)" /><path
             style="fill:#247cb0;fill-opacity:1;stroke:none;stroke-width:4.6266;stroke-linecap:round;stroke-linejoin:round"
             d="m 1456.5491,2417.2184 c -13.364,-3.4878 -15.346,-5.214 -96.5498,-84.0932 -31.3069,-30.4106 -61.8793,-59.8635 -67.9387,-65.4508 -12.6519,-11.6662 -60.5649,-53.3657 -73.8036,-64.2326 -13.7041,-11.249 -13.5797,-15.3241 0.4678,-15.3241 9.5201,0 15.3681,-1.709 20.9958,-6.1357 4.1716,-3.2814 7.7491,-2.5355 20.8066,4.3382 17.4185,9.1694 43.932,27.7614 93.3515,65.4607 34.2522,26.1291 94.8171,70.7331 124.7303,91.8598 27.3194,19.2946 35.5119,27.096 38.7766,36.925 4.9745,14.9767 0.6044,25.3505 -13.8083,32.7784 -12.2889,6.3334 -31.5314,7.9186 -47.0282,3.8743 z"
             id="path12"
             transform="matrix(0.26458333,0,0,0.26458333,-102.92291,6.3500071)" /><path
             style="fill:#247cb0;fill-opacity:1;stroke:none;stroke-width:4.6266;stroke-linecap:round;stroke-linejoin:round"
             d="m 1384.8757,2470.2448 c -3.4864,-0.9394 -8.9949,-2.9209 -12.2413,-4.4032 -11.9355,-5.45 -49.5121,-46.7647 -86.7043,-95.3297 -27.7494,-36.2347 -34.5187,-44.4061 -98.7773,-119.236 -8.6175,-10.0353 -15.6682,-19.2306 -15.6682,-20.4341 0,-2.5285 4.2041,-10.2676 7.7255,-14.2215 1.3287,-1.492 6.6066,-4.4403 11.7286,-6.5519 5.122,-2.1117 9.836,-4.3339 10.4756,-4.9382 3.9765,-3.7575 9.5762,0.1464 46.407,32.354 38.1543,33.3648 74.6707,67.8531 146.4123,138.2804 53.5757,52.5943 56.3507,55.9022 56.3507,67.171 0,7.2426 -2.061,11.5964 -7.9283,16.7479 -9.627,8.4527 -22.6415,12.4719 -39.9891,12.3499 -6.2989,-0.044 -14.3049,-0.8492 -17.7912,-1.7886 z"
             id="path13"
             transform="matrix(0.26458333,0,0,0.26458333,-102.92291,6.3500071)" /><path
             style="fill:#247cb0;fill-opacity:1;stroke:none;stroke-width:4.6266;stroke-linecap:round;stroke-linejoin:round"
             d="m 1308.3955,2521.8909 c -15.322,-5.7124 -23.1293,-14.137 -37.6211,-40.596 -12.1667,-22.214 -37.8932,-66.2403 -58.2976,-99.766 -7.5806,-12.4554 -21.1774,-35.3159 -30.215,-50.801 -9.0377,-15.4851 -22.5052,-37.7948 -29.9277,-49.5769 -18.3427,-29.1162 -17.0886,-26.0033 -12.556,-31.1656 2.3714,-2.7009 4.356,-6.7811 5.2374,-10.768 l 1.4192,-6.4192 5.3097,-0.3828 c 9.2886,-0.6695 10.7915,0.7663 51.0109,48.7356 12.7012,15.1485 29.8565,35.4504 38.123,45.1153 8.2665,9.665 23.3777,28.5977 33.5805,42.0728 20.648,27.2704 38.2019,48.3849 58.1423,69.9358 32.133,34.7284 35.2011,39.23 35.2972,51.7894 0.05,6.4794 -0.4677,8.293 -3.6617,12.8376 -4.6877,6.6697 -13.1022,13.041 -22.241,16.8405 -8.7401,3.6338 -26.5602,4.7732 -33.6001,2.1485 z"
             id="path14"
             transform="matrix(0.26458333,0,0,0.26458333,-102.92291,6.3500071)" /><path
             style="fill:#247cb0;fill-opacity:1;stroke:none;stroke-width:4.6266;stroke-linecap:round;stroke-linejoin:round"
             d="m 1228.2636,2556.0743 c -3.4448,-0.836 -8.8842,-3.056 -12.0877,-4.9334 -19.0178,-11.1452 -31.2472,-31.2713 -43.9333,-72.3016 -18.1015,-58.5452 -60.2557,-180.5397 -68.9441,-199.5245 -9.2219,-20.1507 -9.4201,-20.9581 -6.3588,-25.9114 2.9625,-4.7933 3.3479,-4.8548 9.7989,-1.5638 2.7123,1.3837 7.7857,2.8461 11.2743,3.2498 4.9981,0.5783 7.1216,1.5555 10.0153,4.6091 6.4191,6.7734 34.0744,51.0022 53.2155,85.1068 6.2349,11.1089 18.0701,30.9397 26.3005,44.0684 37.2089,59.3538 75.3354,128.1698 75.3354,135.9759 0,5.934 -2.9281,11.2469 -9.4101,17.0737 -7.6374,6.8655 -16.2396,11.5854 -25.5201,14.0027 -8.4012,2.1883 -11.1933,2.2093 -19.6858,0.1483 z"
             id="path15"
             transform="matrix(0.26458333,0,0,0.26458333,-102.92291,6.3500071)" /></g></g><g
         id="secondaries"
         transform="matrix(1.1076334,0,0,1.1076334,-148.47265,-558.60556)"
         inkscape:label="secondaries"><path
           style="fill:#309b3f;fill-opacity:1;stroke:none;stroke-width:6.543;stroke-linecap:round;stroke-linejoin:round"
           d="m 1120.0668,2591.2117 c -1.4283,-0.5178 -5.1513,-3.3576 -8.2735,-6.3109 -8.1056,-7.6668 -11.829,-21.602 -16.9181,-63.3178 -7.135,-58.4855 -20.0085,-126.6118 -34.8287,-184.3116 l -7.9542,-30.9686 6.3414,-5.3859 c 3.7913,-3.2201 7.9046,-9.2149 10.2286,-14.9074 2.1379,-5.2368 4.646,-10.737 5.5734,-12.2227 1.8322,-2.935 9.4334,-8.5513 11.5735,-8.5513 2.0973,0 15.061,26.8805 21.6885,44.9713 14.6388,39.9593 57.8761,169.5128 64.4458,193.1013 3.9722,14.2619 9.1159,32.277 11.4305,40.0335 5.1477,17.2507 5.2334,21.3474 0.5701,27.2757 -9.5333,12.1198 -50.6704,25.3826 -63.8773,20.5944 z"
           id="path16"
           transform="matrix(0.26458333,0,0,0.26458333,-102.92291,6.3500071)" /><path
           style="fill:#309b3f;fill-opacity:1;stroke:none;stroke-width:6.543;stroke-linecap:round;stroke-linejoin:round"
           d="m 1039.5674,2620.8211 c -11.7278,-2.8798 -18.4355,-6.5606 -21.0027,-11.525 -3.3177,-6.4158 -4.8825,-36.8313 -7.592,-147.5729 -1.0251,-41.8943 -2.927,-86.6883 -4.2265,-99.5422 l -2.3627,-23.3708 5.6534,-8.6559 c 3.1093,-4.7607 7.4442,-11.6667 9.6331,-15.3468 3.8867,-6.5345 4.1614,-6.6661 11.7474,-5.6263 4.2722,0.5856 8.8467,1.0647 10.1656,1.0647 3.1759,0 4.8711,4.703 12.792,35.489 15.1117,58.734 28.9313,135.887 35.4666,198.005 5.7249,54.4149 5.7413,53.9543 -2.2343,62.8084 -3.5705,3.9638 -9.8275,8.6876 -13.9043,10.4973 -7.2794,3.2312 -27.3238,5.4482 -34.1356,3.7755 z"
           id="path17"
           transform="matrix(0.26458333,0,0,0.26458333,-102.92291,6.3500071)" /><path
           style="fill:#309b3f;fill-opacity:1;stroke:none;stroke-width:6.543;stroke-linecap:round;stroke-linejoin:round"
           d="m 956.94336,2630.2728 c -3.54891,-0.9994 -9.78112,-4.7697 -13.84936,-8.3786 l -7.39681,-6.5614 v -13.6171 c 0,-13.5844 0.75885,-22.8539 8.69684,-106.2347 2.31146,-24.2796 5.00343,-61.6729 5.98215,-83.0961 2.4973,-54.6635 2.7715,-56.6248 8.38925,-60.0083 2.54676,-1.5339 7.39723,-5.82 10.77882,-9.5248 l 6.14834,-6.736 9.11145,2.1032 c 5.0113,1.1567 9.76527,3.3248 10.56438,4.818 3.67569,6.8681 5.51558,27.6106 6.99568,78.8693 0.8798,30.4686 2.4779,84.7022 3.5515,120.5191 2.1221,70.7981 2.1799,70.1737 -7.29902,78.7957 -10.0233,9.1172 -27.76012,12.9698 -41.67322,9.0517 z"
           id="path18"
           transform="matrix(0.26458333,0,0,0.26458333,-102.92291,6.3500071)" /><path
           style="fill:#309b3f;fill-opacity:1;stroke:none;stroke-width:6.543;stroke-linecap:round;stroke-linejoin:round"
           d="m 882.01099,2625.2898 c -10.18169,-2.0243 -26.10792,-9.4855 -27.39244,-12.8329 -0.61241,-1.5959 1.56067,-11.235 4.82905,-21.4202 7.29143,-22.7222 13.137,-46.0827 18.92943,-75.6472 4.18441,-21.3572 23.56235,-134.7029 23.56235,-137.8212 0,-0.8091 3.68936,-3.239 8.19858,-5.3997 4.96867,-2.3809 10.50308,-6.9976 14.04819,-11.7188 3.21729,-4.2846 6.9444,-8.422 8.28247,-9.1942 3.92184,-2.2632 8.75382,0.2636 11.03489,5.7706 2.86914,6.9268 0.86649,67.5449 -3.71625,112.4873 -1.89325,18.5668 -4.50929,46.6117 -5.81343,62.3221 -2.87929,34.6855 -7.29089,69.8637 -9.70817,77.4132 -2.46683,7.7042 -10.21547,13.6822 -20.62978,15.9157 -9.78346,2.0982 -11.648,2.109 -21.62489,0.1253 z"
           id="path19"
           transform="matrix(0.26458333,0,0,0.26458333,-102.92291,6.3500071)" /><path
           style="fill:#309b3f;fill-opacity:1;stroke:none;stroke-width:6.543;stroke-linecap:round;stroke-linejoin:round"
           d="m 804.89278,2611.555 c -8.39489,-2.5397 -12.31738,-5.575 -14.7604,-11.4219 -5.0901,-12.1824 -4.31238,-15.1497 17.03956,-65.0122 9.87516,-23.0612 19.02306,-51.2193 31.71895,-97.634 12.3479,-45.1426 14.56173,-50.6275 20.98285,-51.9866 9.54648,-2.0207 15.77388,-5.8707 20.65735,-12.7713 2.7292,-3.8565 5.54645,-7.0284 6.26056,-7.0487 3.05273,-0.087 8.22305,7.2715 8.22305,11.7031 0,2.6484 -2.27932,17.6447 -5.06515,33.325 -8.60691,48.4447 -17.43013,96.9177 -21.10264,115.9337 -4.52633,23.437 -16.17312,64.4742 -19.92252,70.1965 -6.03514,9.2108 -32.73401,18.1342 -44.03161,14.7164 z"
           id="path20"
           transform="matrix(0.26458333,0,0,0.26458333,-102.92291,6.3500071)" /><path
           style="fill:#309b3f;fill-opacity:1;stroke:none;stroke-width:6.543;stroke-linecap:round;stroke-linejoin:round"
           d="m 739.26094,2589.6853 c -13.62076,-5.9079 -19.77752,-16.7364 -19.70614,-34.6591 0.061,-15.3199 4.8564,-26.26 23.44469,-53.4861 16.51825,-24.1941 39.93562,-64.1397 53.56559,-91.3726 5.82294,-11.6344 11.36983,-21.6505 12.32641,-22.2582 0.95659,-0.6076 5.56681,-1.6124 10.24494,-2.233 6.40906,-0.8502 10.21372,-2.6714 15.43492,-7.3885 8.4237,-7.6103 11.2259,-6.0477 10.85723,6.0545 -0.35226,11.5639 -28.17881,106.8527 -39.71493,135.9991 -12.74686,32.2055 -24.24279,53.893 -32.15866,60.6687 -6.11457,5.2339 -20.3223,11.515 -25.6897,11.3572 -1.42822,-0.042 -5.30017,-1.2489 -8.60435,-2.682 z"
           id="path21"
           transform="matrix(0.26458333,0,0,0.26458333,-102.92291,6.3500071)" /><path
           style="fill:#309b3f;fill-opacity:1;stroke:none;stroke-width:6.543;stroke-linecap:round;stroke-linejoin:round"
           d="m 675.54267,2556.6412 c -1.21564,-0.4887 -3.93543,-4.1276 -6.04399,-8.0864 -3.218,-6.0417 -3.83617,-9.9782 -3.84885,-24.5095 -0.0207,-23.7419 0.99696,-26.8331 8.83402,-26.8331 11.94511,0 32.90779,-26.0583 70.62666,-87.7945 15.46302,-25.3091 21.07255,-31.6562 27.9775,-31.6562 6.05526,0 13.20394,-3.1821 18.50072,-8.2352 6.49326,-6.1946 9.15221,-3.3396 8.8422,9.4941 -0.25035,10.3636 -7.09349,25.752 -26.83355,60.3415 -28.44462,49.8421 -49.72465,79.6016 -76.94586,107.6067 -10.23107,10.5257 -14.32308,12.4008 -21.10885,9.6726 z"
           id="path22"
           transform="matrix(0.26458333,0,0,0.26458333,-102.92291,6.3500071)" /><path
           style="fill:#309b3f;fill-opacity:1;stroke:none;stroke-width:6.543;stroke-linecap:round;stroke-linejoin:round"
           d="m 671.09655,2487.1217 c -4.62495,-5.1105 -3.77787,-30.9449 1.99962,-60.9849 l 4.84652,-25.1994 16.14914,-22.4078 c 8.88203,-12.3242 16.68596,-23.0094 17.34206,-23.7448 0.65611,-0.7354 4.71236,0.2198 9.01389,2.1225 8.51551,3.7668 14.24305,3.1207 22.95879,-2.5901 5.65572,-3.7058 6.47865,-2.8594 10.45744,10.7552 l 3.12167,10.6817 -7.36267,13.4152 c -4.04948,7.3783 -8.04559,14.257 -8.88027,15.2858 -0.83467,1.0289 -11.70856,17.4512 -24.16419,36.4941 -22.71003,34.7204 -34.49705,49.3383 -39.78335,49.3383 -1.55848,0 -4.12287,-1.4246 -5.69865,-3.1658 z"
           id="path23"
           transform="matrix(0.26458333,0,0,0.26458333,-102.92291,6.3500071)" /><path
           style="fill:#309b3f;fill-opacity:1;stroke:none;stroke-width:6.543;stroke-linecap:round;stroke-linejoin:round"
           d="m 676.01914,2386.4131 c -1.72525,-2.7915 -1.13565,-32.6989 0.85329,-43.2839 3.94249,-20.9817 12.13309,-38.5212 12.13309,-25.9821 0,4.7155 8.17741,10.4105 14.9484,10.4105 5.34257,0 5.82563,0.4387 5.82563,5.2906 0,7.0384 -8.34579,23.513 -20.3748,40.2198 -10.78279,14.976 -11.76963,15.9598 -13.38561,13.3451 z"
           id="path24"
           transform="matrix(0.26458333,0,0,0.26458333,-102.92291,6.3500071)" /></g><g
         id="primary-converts"
         transform="matrix(1.1076334,0,0,1.1076334,-148.47265,-558.60556)"
         inkscape:label="primary-converts"><path
           style="fill:#ffc707;fill-opacity:1;stroke:none;stroke-width:4.6266;stroke-linecap:round;stroke-linejoin:round"
           d="m 1289.0002,2042.8492 c -20.7395,-5.819 -30.911,-6.7744 -80.792,-7.5891 l -47.1287,-0.7697 3.9055,-2.7857 c 14.7826,-10.5441 76.1371,-12.461 120.3429,-3.7599 7.8295,1.5411 22.0342,8.1162 22.0342,10.1993 0,1.369 -4.1747,5.713 -6.7327,7.0058 -0.6733,0.3402 -5.9064,-0.6951 -11.6292,-2.3007 z"
           id="path6228"
           transform="matrix(0.26458333,0,0,0.26458333,-102.92291,6.3500071)" /><path
           style="fill:#ffc707;fill-opacity:1;stroke:none;stroke-width:4.6266;stroke-linecap:round;stroke-linejoin:round"
           d="m 1275.5349,2077.2306 c -31.8732,-13.1171 -80.2662,-22.5422 -115.7422,-22.5422 -9.7279,0 -17.6871,-0.3281 -17.6871,-0.7291 0,-0.401 1.098,-2.2711 2.44,-4.1557 2.0985,-2.947 3.9402,-3.7 13.1593,-5.3796 15.48,-2.8203 45.3963,-4.8125 60.2963,-4.0152 7.0693,0.3783 22.7116,2.1346 34.7606,3.903 33.5846,4.9289 50.2345,10.5896 58.3569,19.8406 5.6289,6.4109 4.293,11.257 -4.1614,15.0956 -8.3545,3.7933 -18.9573,3.1125 -31.4224,-2.0174 z"
           id="path6229"
           transform="matrix(0.26458333,0,0,0.26458333,-102.92291,6.3500071)" /><path
           style="fill:#ffc707;fill-opacity:1;stroke:none;stroke-width:4.6266;stroke-linecap:round;stroke-linejoin:round"
           d="m 1224.0492,2138.8966 c -13.0785,-12.1255 -23.255,-19.1626 -43.9434,-30.3871 -36.8523,-19.9942 -59.2528,-28.883 -76.0528,-30.1785 -11.5984,-0.8944 -11.7389,-0.7521 8.8535,-8.976 9.0003,-3.5944 14.9484,-5.3493 15.959,-4.7085 2.5924,1.6439 7.6892,1.2184 12.7846,-1.0671 7.3779,-3.3094 33.9647,-2.6581 57.3326,1.4045 43.1662,7.5047 85.1181,21.5456 97.1158,32.5039 7.8351,7.1562 4.0901,15.0781 -9.0395,19.1216 -14.0429,4.3247 -16.2129,3.7834 -48.2477,-12.0335 -47.4481,-23.427 -79.5755,-34.9492 -100.6515,-36.0977 -9.9527,-0.5424 -12.4308,-0.3026 -15.1264,1.4636 -1.9469,1.2757 -2.7805,2.5554 -2.1048,3.2311 0.6153,0.6154 7.1467,1.6879 14.5142,2.3834 23.1478,2.1852 36.6709,6.1926 66.5299,19.7154 46.2125,20.9291 56.429,26.671 66.0751,37.1358 8.4573,9.1751 5.4509,11.3301 -20.1282,14.4287 l -13.538,1.6399 z"
           id="path6230"
           transform="matrix(0.26458333,0,0,0.26458333,-102.92291,6.3500071)" /><path
           style="fill:#ffc707;fill-opacity:1;stroke:none;stroke-width:4.6266;stroke-linecap:round;stroke-linejoin:round"
           d="m 1176.7742,2202.4578 c -1.4669,-0.8178 -9.795,-8.9348 -18.5068,-18.0378 -23.7145,-24.7795 -57.1725,-52.7942 -83.3101,-69.7563 -11.78,-7.6447 -12.2538,-8.1228 -12.335,-12.4456 -0.076,-4.024 -0.534,-4.6439 -4.369,-5.9095 -5.6878,-1.8772 -5.406,-3.1802 0.9063,-4.1895 2.8549,-0.4565 10.2039,-3.2048 16.331,-6.1072 10.539,-4.9924 11.3249,-5.1805 14.5615,-3.4847 1.8817,0.986 10.6453,3.0485 19.4746,4.5834 22.2519,3.8685 22.9582,4.1738 65.6302,28.3742 22.0533,12.507 31.024,18.7575 47.0368,32.7737 14.0412,12.2904 18.8594,22.8777 12.8759,28.2928 -4.003,3.6227 -15.9771,3.8541 -25.0252,0.4837 -6.4551,-2.4045 -9.3463,-4.7656 -23.8704,-19.4938 -18.7872,-19.0514 -27.9192,-26.8603 -43.0348,-36.8 -13.0464,-8.5789 -34.9935,-19.8795 -43.4433,-22.3689 -10.4273,-3.0719 -19.2958,-3.7998 -21.0178,-1.7249 -2.0746,2.4997 -0.3724,3.515 11.4024,6.8015 12.9786,3.6225 41.5906,17.7514 54.0654,26.6981 24.6607,17.6862 45.7798,39.0606 53.1228,53.765 4.7358,9.4836 3.8435,12.5908 -4.8861,17.0144 -6.6659,3.3779 -11.4533,3.8476 -15.6084,1.5314 z"
           id="path6231"
           transform="matrix(0.26458333,0,0,0.26458333,-102.92291,6.3500071)" /></g><g
         id="secondary-converts"
         inkscape:label="secondary-converts"><path
           style="fill:#ec5299;fill-opacity:1;stroke:none;stroke-width:0.95875;stroke-linecap:round;stroke-linejoin:round"
           d="m -57.698803,127.7452 c -0.724644,-0.50756 -1.331806,-2.58732 -1.331806,-4.56194 0,-1.49359 0.06975,-1.66688 1.589641,-3.94924 0.874301,-1.31291 2.179154,-3.18619 2.899672,-4.16282 1.752715,-2.37573 3.01551,-4.50898 3.610539,-6.09934 0.26961,-0.72058 0.811926,-1.65313 1.205144,-2.07232 0.393221,-0.4192 1.193583,-1.55238 1.778586,-2.51822 1.107256,-1.82806 1.583103,-3.69383 1.608283,-6.305975 l 0.01222,-1.26834 0.762929,0.887859 c 0.996863,1.160054 2.233016,3.680056 2.429537,4.952766 0.252692,1.63648 1.479262,4.06488 2.726836,5.39863 0.639554,0.68374 1.162824,1.46677 1.162824,1.74005 0,0.50749 -2.011559,3.60114 -4.140679,6.36811 -0.652509,0.84797 -1.186379,1.62819 -1.186379,1.73381 0,0.46936 -2.970238,3.99278 -5.260384,6.24003 -3.49235,3.42694 -6.297149,4.7165 -7.866967,3.61694 z"
           id="path6232" /><path
           style="fill:#ec5299;fill-opacity:1;stroke:none;stroke-width:0.95875;stroke-linecap:round;stroke-linejoin:round"
           d="m -50.643384,137.22787 c -1.084831,-1.01068 -1.614188,-2.66859 -1.728792,-5.41448 l -0.105875,-2.53668 2.041243,-1.59587 c 1.255771,-0.98176 2.84387,-2.59236 4.127068,-4.18553 1.895946,-2.35396 7.310286,-10.28317 8.652941,-12.67209 0.448269,-0.7976 1.056879,-1.24662 3.348583,-2.47059 1.540407,-0.82272 3.539554,-2.01096 4.442546,-2.64058 1.526858,-1.06457 1.67338,-1.11615 2.092771,-0.73661 0.923533,0.83579 0.243045,4.91119 -1.1258,6.74241 -0.335752,0.44917 -1.035621,1.59853 -1.555265,2.55414 -2.863558,5.26608 -9.953151,15.78312 -12.337739,18.30242 -0.894616,0.94515 -1.980669,2.46165 -2.733893,3.8175 -0.369078,0.66437 -2.244161,1.38272 -3.609261,1.38272 -0.593171,0 -1.130824,-0.19488 -1.508527,-0.54676 z"
           id="path6233" /><path
           style="fill:#ec5299;fill-opacity:1;stroke:none;stroke-width:0.95875;stroke-linecap:round;stroke-linejoin:round"
           d="m -38.25562,142.53055 c -0.483947,-0.32067 -1.140047,-1.12717 -1.496114,-1.83911 -0.553021,-1.10572 -0.632716,-1.59258 -0.622799,-3.80466 0.01565,-3.4879 0.419726,-4.38643 5.073141,-11.28058 3.779457,-5.59935 6.019113,-9.36158 8.733946,-14.67153 0.736266,-1.44007 1.614495,-2.79654 1.955073,-3.0197 0.364812,-0.23902 1.392212,-0.4548 2.505763,-0.52628 l 1.887423,-0.12112 v 0.76113 c 0,2.95107 -2.856777,13.87007 -5.459633,20.86749 -1.12746,3.03102 -2.758838,6.95048 -3.167509,7.61008 -0.129662,0.20927 -0.448598,0.83712 -0.708749,1.39517 -0.758539,1.62723 -2.941576,4.06655 -4.172627,4.66249 -1.513759,0.7328 -3.392496,0.71897 -4.527915,-0.0334 z"
           id="path6234" /><path
           style="fill:#ec5299;fill-opacity:1;stroke:none;stroke-width:0.95875;stroke-linecap:round;stroke-linejoin:round"
           d="m -24.87257,144.57902 c -0.734072,-0.76612 -1.23683,-1.6131 -1.564124,-2.63494 -0.76797,-2.39774 -0.616364,-3.79225 0.880752,-8.10133 4.788657,-13.783 5.46914,-16.1332 6.590838,-22.7631 0.772943,-4.56856 1.349474,-6.28215 2.281441,-6.78091 0.269411,-0.14419 1.130997,-0.26215 1.914637,-0.26215 1.404552,0 1.43062,0.0135 1.83416,0.95125 0.55351,1.28625 0.736375,7.45551 0.337808,11.39639 -0.438668,4.33737 -2.661407,17.23521 -3.538076,20.53036 -1.25393,4.7131 -2.098495,6.18485 -4.326942,7.54017 -0.879533,0.53496 -1.988301,1.03577 -2.463925,1.11293 -0.772533,0.12537 -0.980164,0.0199 -1.946569,-0.98867 z"
           id="path6235" /><path
           style="fill:#ec5299;fill-opacity:1;stroke:none;stroke-width:0.95875;stroke-linecap:round;stroke-linejoin:round"
           d="m -10.855341,145.12101 c -1.154299,-0.31241 -1.913198,-0.97968 -2.646455,-2.32691 -1.00703,-1.85024 -0.973688,-3.66499 0.187755,-10.21969 2.233236,-12.60349 2.522455,-14.98455 2.702222,-22.24676 0.156668,-6.32898 0.202373,-6.81948 0.6973248,-7.48326 0.6604928,-0.88578 2.2276441,-1.22045 4.5501903,-0.97173 1.3155699,0.1409 1.7251143,0.29203 2.0229584,0.7466 1.1548785,1.76256 1.1414417,29.58108 -0.016704,34.59 -0.4501803,1.94701 -0.98832,3.02835 -2.5232785,5.07031 -1.7797117,2.36753 -3.3694434,3.27567 -4.974013,2.84144 z"
           id="path6236" /><path
           style="fill:#ec5299;fill-opacity:1;stroke:none;stroke-width:0.95875;stroke-linecap:round;stroke-linejoin:round"
           d="m 1.2520421,141.81994 c -0.93342962,-0.2717 -1.59055811,-0.87661 -2.3383041,-2.15254 l -0.6007083,-1.02504 0.4240392,-4.17548 c 0.34135492,-3.3613 0.42651855,-7.04446 0.43674932,-18.88833 0.0116345,-13.45468 0.0502366,-14.78143 0.45156062,-15.51487 0.62953676,-1.150502 1.55698506,-1.791573 3.42790026,-2.369432 2.2073116,-0.681778 3.2597593,-0.665982 3.6454866,0.05477 0.3988682,0.745285 1.8659156,10.978552 2.2833082,15.927012 0.1824073,2.16252 0.3360535,7.64963 0.3414399,12.19352 l 0.00979,8.26166 -1.0751834,2.17152 c -2.0181991,4.07614 -4.7003169,6.18829 -7.0060795,5.51721 z"
           id="path6237" /><path
           style="fill:#ec5299;fill-opacity:1;stroke:none;stroke-width:0.95875;stroke-linecap:round;stroke-linejoin:round"
           d="m 14.438343,135.37259 c -0.540666,-0.19272 -1.356195,-0.71208 -1.812283,-1.15414 l -0.829249,-0.80375 -0.159232,-4.9862 c -0.463916,-14.52714 -1.005362,-21.74421 -1.962415,-26.1576 -0.7283952,-3.358923 -0.5852728,-5.916382 0.455573,-8.140629 1.246296,-2.663283 2.975838,-3.978278 4.65646,-3.540386 0.746427,0.194475 1.544638,2.072442 2.896208,6.813998 3.365935,11.808287 4.897743,22.480327 4.258451,29.668417 -0.37235,4.18661 -0.833974,5.58718 -2.409776,7.31138 -1.22788,1.34348 -1.263467,1.36145 -2.677564,1.35046 -0.78823,-0.006 -1.875508,-0.16884 -2.416173,-0.36155 z"
           id="path6238" /><path
           style="fill:#ec5299;fill-opacity:1;stroke:none;stroke-width:0.95875;stroke-linecap:round;stroke-linejoin:round"
           d="m 25.649122,131.11581 c -0.210066,-0.37778 -0.372322,-2.41488 -0.479867,-6.02466 -0.158171,-5.30905 -0.193218,-5.58526 -1.319649,-10.40046 -0.636439,-2.7206 -1.625667,-7.08133 -2.198283,-9.69054 -0.572618,-2.60918 -1.601076,-6.687279 -2.285465,-9.062423 -1.891547,-6.564545 -2.082045,-8.778125 -0.909445,-10.567733 0.520055,-0.793698 3.39377,-2.685204 3.92992,-2.586706 0.528724,0.09712 1.119081,1.39503 4.104746,9.024442 5.202618,13.29446 8.227363,21.87164 8.858324,25.11922 0.190607,0.98112 0.25423,2.50509 0.164143,3.93186 -0.232573,3.68343 -1.400305,6.58178 -3.532502,8.76787 -1.413286,1.44898 -2.742782,2.0473 -4.564867,2.0543 -1.243339,0.005 -1.494848,-0.0757 -1.767055,-0.56517 z"
           id="path6239" /><path
           style="fill:#ec5299;fill-opacity:1;stroke:none;stroke-width:0.95875;stroke-linecap:round;stroke-linejoin:round"
           d="m 38.410164,122.71949 c -0.15626,-0.18826 -0.395544,-1.70618 -0.53173,-3.37311 -0.372628,-4.56074 -0.127511,-3.82536 -9.795053,-29.388453 -1.635669,-4.325057 -3.025475,-8.380264 -3.088459,-9.011577 -0.0655,-0.656428 0.05984,-1.734952 0.292771,-2.519302 0.22401,-0.75434 0.407291,-1.984289 0.407291,-2.733236 0,-0.748977 0.174157,-1.698525 0.387016,-2.110159 2.319572,-4.485567 14.722681,12.67373 20.545223,28.423577 3.123799,8.44984 3.377854,14.20381 0.782503,17.72163 -0.939349,1.2732 -2.405183,2.26463 -4.174864,2.82364 -1.872368,0.59149 -4.399788,0.67897 -4.824698,0.16699 z"
           id="path6240" /><path
           style="fill:#ec5299;fill-opacity:1;stroke:none;stroke-width:0.95875;stroke-linecap:round;stroke-linejoin:round"
           d="m 51.486561,111.21076 c -0.07203,-0.11658 -0.473704,-1.57869 -0.892606,-3.24914 -2.141341,-8.53916 -7.286765,-19.062523 -15.128647,-30.940827 -2.665099,-4.036949 -3.731374,-5.27906 -6.052419,-7.050645 -1.236233,-0.943569 -1.94222,-2.381475 -1.94222,-3.955742 0,-2.058375 0.879775,-2.524957 2.85803,-1.515742 4.939291,2.519858 13.886454,12.617961 20.422307,23.04942 3.405549,5.435379 6.308497,11.452632 6.900188,14.302716 0.86289,4.15651 -1.623765,8.6228 -5.233343,9.39967 -0.440149,0.0947 -0.859226,0.0768 -0.93129,-0.0397 z"
           id="path6241" /><path
           style="fill:#ffc707;fill-opacity:1;stroke:none;stroke-width:0.677939;stroke-linecap:round;stroke-linejoin:round"
           d="m 74.832032,99.85118 c -2.303961,-0.796688 -3.602398,-1.925062 -6.543444,-5.686299 -2.574075,-3.291958 -4.486799,-5.460758 -7.90955,-8.968556 l -2.625331,-2.690566 -0.5909,-1.793712 c -0.878744,-2.667473 -2.27946,-5.261124 -4.301525,-7.96482 -0.988964,-1.322381 -1.764786,-2.437655 -1.724021,-2.47842 0.150106,-0.150106 2.052016,0.931994 4.153793,2.363276 7.593072,5.170862 19.047638,15.578085 23.054021,20.946119 2.261437,3.030049 2.343905,5.443438 0.217012,6.349701 -0.790943,0.337017 -2.643765,0.298897 -3.730055,-0.07672 z"
           id="path6242" /><g
           id="g6304"
           inkscape:label="secondary-converts-too"
           transform="translate(-1.2708334e-6)"><path
             style="fill:#bd3c7b;fill-opacity:1;stroke:none;stroke-width:0.612061;stroke-linecap:round;stroke-linejoin:round"
             d="M 52.429378,86.001432 C 52.044044,85.587648 51.098185,84.257706 50.327472,83.046007 45.838546,75.988612 42.78568,71.968287 39.18445,68.371737 35.768642,64.960369 31.900071,62.515397 28.411331,61.563026 26.55335,61.055825 26.194797,60.8924 26.093954,60.50677 c -0.262681,-1.004488 1.822889,-1.431819 4.26067,-0.873009 0.57894,0.13271 2.009037,0.445643 3.177993,0.69541 1.488302,0.317997 2.54617,0.656029 3.529208,1.127726 6.207022,2.978335 15.213565,12.306897 17.574363,18.202706 1.207426,3.015406 1.205738,5.250267 -0.0049,6.460889 -0.868063,0.868064 -1.304658,0.844455 -2.201923,-0.11906 z"
             id="path6301" /><path
             style="fill:#bd3c7b;fill-opacity:1;stroke:none;stroke-width:0.612061;stroke-linecap:round;stroke-linejoin:round"
             d="m 63.39061,106.50706 c -2.069849,-0.36177 -2.477913,-0.91342 -3.482655,-4.70813 -0.894352,-3.377795 -1.457177,-4.809638 -3.42573,-8.715163 l -1.829363,-3.629379 1.248508,-1.309826 c 0.686681,-0.720402 1.395608,-1.329105 1.575392,-1.352671 1.525495,-0.199959 7.480181,5.812258 11.008323,11.114685 2.111899,3.173964 2.699007,5.055054 2.120937,6.795464 -0.33928,1.02148 -0.952389,1.5616 -2.03654,1.79411 -0.924877,0.19835 -4.068551,0.20497 -5.178872,0.0109 z"
             id="path6302" /></g></g><g
         id="alula"
         inkscape:label="alula"><path
           style="fill:#ee7f03;fill-opacity:1;stroke:none;stroke-width:0.677939;stroke-linecap:round;stroke-linejoin:round"
           d="m 35.966443,57.834479 c -2.52443,-0.294381 -4.605283,-1.161022 -5.499923,-2.290597 -0.696196,-0.879008 -0.954931,-1.549503 -0.814241,-2.110071 0.08062,-0.321225 -0.08595,-0.761198 -0.627506,-1.657526 -0.876441,-1.450536 -0.937287,-1.94877 -0.2588,-2.119067 0.72589,-0.182197 6.127514,0.07558 8.279229,0.395075 3.206999,0.476196 5.93373,1.522718 7.340893,2.817434 0.421657,0.387983 0.564759,1.44362 0.224221,1.654096 -0.09867,0.06096 -0.179382,0.436925 -0.179382,0.83546 0,1.321208 -1.349929,2.098319 -4.304925,2.478243 -1.532242,0.196996 -2.449905,0.196322 -4.159566,-0.0029 z"
           id="path6243" /><path
           style="fill:#ee7f03;fill-opacity:1;stroke:none;stroke-width:0.677939;stroke-linecap:round;stroke-linejoin:round"
           d="m 46.657526,55.824254 c 0.330602,-2.076604 0.327496,-2.210445 -0.07297,-3.141413 -1.405405,-3.266901 -6.904964,-5.328206 -13.286023,-4.979698 -2.444249,0.13349 -3.576051,0.01671 -3.576051,-0.36914 0,-0.433584 2.159949,-0.893866 8.0717,-1.720006 2.602677,-0.363719 11.990135,-0.306191 14.977514,0.09176 3.823513,0.509341 6.644697,1.278803 7.488772,2.042579 1.255358,1.135906 -1.68308,4.370658 -5.506212,6.061417 -0.921267,0.407414 -7.817059,2.776844 -8.081547,2.776844 -0.07511,0 -0.08194,-0.343058 -0.01524,-0.76234 z"
           id="path6244" /><path
           style="fill:#ee7f03;fill-opacity:1;stroke:none;stroke-width:0.677939;stroke-linecap:round;stroke-linejoin:round"
           d="m 62.726811,50.33668 c 0,-0.08323 0.163645,-0.626975 0.363689,-1.20835 0.213085,-0.619327 0.319789,-1.256882 0.25766,-1.539657 -0.571441,-2.601798 -8.566798,-4.428567 -19.545022,-4.46558 -4.058665,-0.01377 -4.078535,-0.07945 -0.26906,-0.889588 10.220133,-2.173431 21.622153,-3.225023 26.238631,-2.419983 1.684839,0.293823 3.612831,0.935188 5.183141,1.724256 1.13532,0.570502 1.293045,0.736492 1.144492,1.20457 -0.261,0.822359 -5.441093,4.132809 -10.04075,6.416753 -2.511125,1.246918 -3.332781,1.537224 -3.332781,1.177579 z"
           id="path6245" /></g><g
         id="lesser-converts"
         style="fill:#de3720;fill-opacity:1"
         transform="matrix(1.1076334,0,0,1.1076334,-287.66911,-448.60519)"
         inkscape:label="lesser-converts"><path
           style="fill:#de3720;fill-opacity:1;stroke:none;stroke-width:0.432792;stroke-linecap:round;stroke-linejoin:round"
           d="m 222.21527,493.48591 c -0.61474,-0.15803 -0.9406,-0.32453 -1.36576,-0.69783 -0.82319,-0.72277 -1.33072,-1.97229 -1.09331,-2.69166 0.2217,-0.67181 0.70946,-0.93253 2.4393,-1.3039 0.85498,-0.18356 1.67294,-0.39523 1.81772,-0.4704 0.82637,-0.42905 1.88076,-1.62803 2.48372,-2.82437 0.22175,-0.43998 1.50609,-4.0893 1.49743,-4.25479 -0.0103,-0.19696 -0.4573,0.58322 -1.33786,2.33513 -1.47386,2.93227 -2.17369,3.9143 -3.14844,4.41806 -1.12006,0.57886 -2.68705,-0.0845 -3.32975,-1.40964 -1.16142,-2.39459 -1.11207,-2.22859 -1.11207,-3.74007 v -1.38679 h 0.62981 0.62982 v 0.57076 c 0,0.46895 0.0596,0.63743 0.33432,0.94469 0.30031,0.33587 0.39651,0.37336 0.94473,0.36796 0.46492,-0.005 0.78091,-0.0971 1.32627,-0.38825 1.46894,-0.78425 2.09222,-1.83309 2.71537,-4.56938 0.6106,-2.6811 1.20809,-3.5365 1.81898,-2.60414 0.30803,0.47012 0.53248,1.4726 0.53248,2.37837 0,0.69173 0.0365,0.8953 0.16054,0.8953 0.11121,0 0.25504,-0.41363 0.46787,-1.34549 0.16901,-0.74001 0.34483,-1.50008 0.39073,-1.68902 0.0754,-0.31017 0.12166,-0.33967 0.47686,-0.30382 0.9932,0.10022 1.8152,0.74306 2.1345,1.66928 0.3247,0.94181 0.24892,2.27698 -0.29392,5.17893 -0.90446,4.83497 -1.52231,6.58842 -2.93079,8.3175 -1.53771,1.88766 -4.35798,3.07419 -6.18855,2.60357 z"
           id="path6246-5" /><path
           style="fill:#de3720;fill-opacity:1;stroke:none;stroke-width:0.432792;stroke-linecap:round;stroke-linejoin:round"
           d="m 228.4185,473.85074 c -0.22717,-0.15415 -0.56615,-0.45046 -0.75335,-0.65842 -0.45048,-0.50054 -1.28545,-2.10383 -1.67976,-3.2254 -0.26434,-0.75192 -0.28974,-0.91581 -0.15396,-0.99259 1.31175,-0.74168 2.13339,-1.97085 2.33508,-3.49326 0.16846,-1.27151 0.1401,-1.22357 0.6726,-1.1366 1.34207,0.21918 2.38382,1.09564 2.81308,2.36678 0.13152,0.38952 0.23915,0.8215 0.23915,0.95998 0,0.27776 0.1972,0.39079 0.68175,0.39079 0.51824,0 2.44166,0.52668 3.04999,0.83519 0.74623,0.3784 0.98015,0.65947 1.04023,1.24997 0.0842,0.82759 -0.57742,1.58784 -1.71283,1.96815 -1.30363,0.4367 -2.01581,0.11118 -2.79268,-1.27645 -0.22037,-0.39362 -0.42034,-0.71567 -0.44439,-0.71567 -0.0241,0 -0.17679,0.43621 -0.33941,0.9694 -0.81071,2.65785 -1.77593,3.55862 -2.9555,2.75813 z"
           id="path6248-7" /><path
           style="fill:#de3720;fill-opacity:1;stroke:none;stroke-width:0.432792;stroke-linecap:round;stroke-linejoin:round"
           d="m 231.56789,489.56077 c -0.50303,-0.24202 -0.75245,-0.94218 -0.74427,-2.08936 0.008,-1.09043 0.1139,-1.63367 0.83899,-4.29411 0.24889,-0.91321 0.50617,-2.14093 0.57174,-2.72828 0.17417,-1.55998 0.58145,-2.2207 1.57004,-2.54696 0.50585,-0.16695 1.47933,-0.0778 1.99601,0.18278 0.53936,0.27201 1.10689,0.83179 1.38986,1.37091 0.19021,0.36237 0.24191,0.67323 0.2476,1.48862 0.004,0.56682 -0.0323,1.26246 -0.0805,1.54588 -0.0584,0.34325 0.061,0.10634 0.35769,-0.70958 0.71683,-1.97149 1.25518,-2.70248 2.17212,-2.94939 0.67961,-0.18301 1.24,0.0321 1.93225,0.74181 1.29291,1.32543 1.23698,3.17839 -0.16383,5.42809 -1.12178,1.8016 -2.83668,3.10949 -4.10228,3.12862 -0.81489,0.0124 -1.03108,-0.27345 -0.99931,-1.32099 0.0138,-0.45432 0.15007,-1.36708 0.30284,-2.02838 0.15277,-0.66129 0.26477,-1.21647 0.24892,-1.23372 -0.0159,-0.0172 -0.14591,0.29194 -0.289,0.68707 -0.8664,2.39263 -2.47806,4.5153 -3.94795,5.19978 -0.63276,0.29464 -0.89887,0.32067 -1.30096,0.12721 z"
           id="path6249-6" /><path
           style="fill:#de3720;fill-opacity:1;stroke:none;stroke-width:0.432792;stroke-linecap:round;stroke-linejoin:round"
           d="m 221.92901,482.29486 c -0.0945,-0.0345 -0.2926,-0.17216 -0.44029,-0.30586 -0.77113,-0.69802 -0.80066,-1.7993 -0.065,-2.42247 0.26157,-0.22156 0.28052,-0.3315 0.39447,-2.29021 0.18637,-3.2037 0.5351,-5.00925 1.19904,-6.20805 l 0.26932,-0.48633 -0.51332,-0.63016 c -0.28233,-0.34657 -0.55366,-0.63016 -0.60296,-0.63016 -0.0493,0 -0.23503,0.29631 -0.41275,0.65845 -0.34925,0.71173 -0.42402,1.49079 -0.2532,2.6381 0.0896,0.60206 0.0882,0.60624 -0.25789,0.72689 -0.19143,0.0667 -0.34801,0.18069 -0.34798,0.25326 5e-5,0.0725 0.13184,0.61259 0.29286,1.20005 0.16103,0.58745 0.27692,1.11442 0.25758,1.17104 -0.0193,0.0566 -0.28983,-0.21788 -0.601,-0.61005 -1.37496,-1.73281 -1.24945,-1.50526 -1.04664,-1.8974 0.40513,-0.78346 0.19658,-1.59184 -0.86127,-3.33875 l -0.65876,-1.08786 0.47839,-0.11954 0.47837,-0.11957 0.0341,-0.71064 c 0.0312,-0.6509 0.0143,-0.71062 -0.2004,-0.71062 -0.22225,0 -0.23447,-0.0665 -0.23447,-1.27262 v -1.27262 l 0.54391,0.076 c 0.29916,0.0418 0.71125,0.10491 0.91574,0.1402 0.35732,0.0616 0.3695,0.0514 0.31195,-0.26341 -0.0968,-0.52962 -0.48739,-3.3029 -0.46837,-3.32582 0.01,-0.0116 0.70366,0.49509 1.54244,1.12586 0.83879,0.63076 1.54274,1.12916 1.56438,1.10754 0.0217,-0.0217 -0.0292,-0.37369 -0.113,-0.78234 -0.0838,-0.40868 -0.18683,-1.12951 -0.229,-1.60184 -0.0422,-0.47236 -0.10409,-0.95502 -0.13764,-1.07254 -0.16772,-0.58778 2.57498,1.43819 3.521,2.60085 1.22941,1.51096 1.64907,3.00855 1.15562,4.12403 -0.31515,0.71245 -0.83095,0.95626 -1.61134,0.76169 -0.92776,-0.2313 -1.94903,-0.93557 -2.54026,-1.75176 l -0.31991,-0.44159 -0.13438,0.49475 c -0.19225,0.70786 -0.0628,1.93246 0.32469,3.0712 0.2902,0.85291 0.3673,0.97766 0.62299,1.00828 0.2394,0.0287 0.31499,-0.0315 0.42085,-0.33523 l 0.12906,-0.37018 0.33181,0.3179 c 0.85289,0.81711 1.26291,2.61479 1.05321,4.6174 -0.16733,1.59755 -1.068,5.59403 -1.44796,6.42485 -0.57452,1.25619 -1.48424,1.85356 -2.34403,1.53924 z"
           id="path6250-1" /><path
           style="fill:#de3720;fill-opacity:1;stroke:none;stroke-width:0.432792;stroke-linecap:round;stroke-linejoin:round"
           d="m 240.95901,466.25849 c -0.2971,-0.29914 -0.72827,-0.90461 -0.95808,-1.34548 -0.35401,-0.67906 -1.58253,-3.61313 -1.58253,-3.77955 0,-0.0298 0.45972,-0.28512 1.02161,-0.56732 l 1.02164,-0.51308 1.41171,0.25606 1.41168,0.25604 0.13462,1.37237 c 0.28072,2.86231 0.17717,3.72123 -0.53448,4.43291 -0.36137,0.36136 -0.50999,0.43198 -0.90898,0.43198 -0.41685,0 -0.54504,-0.0685 -1.01719,-0.54393 z"
           id="path6251-8" /><path
           style="fill:#de3720;fill-opacity:1;stroke:none;stroke-width:0.432792;stroke-linecap:round;stroke-linejoin:round"
           d="m 235.11939,467.60048 c -1.10717,-0.22746 -1.96845,-1.00666 -1.96845,-1.78088 0,-0.52393 0.17225,-0.92477 0.69504,-1.61737 0.24754,-0.32793 0.45005,-0.62511 0.45005,-0.66035 0,-0.0352 -0.27051,0.0768 -0.60115,0.24911 -0.48824,0.25437 -0.75515,0.31387 -1.42076,0.31684 -0.74393,0.003 -0.86016,-0.0286 -1.25961,-0.34576 -0.52109,-0.41376 -0.92355,-1.16105 -1.02531,-1.90389 l -0.0734,-0.53562 0.49779,-0.13404 c 0.66405,-0.17883 2.00483,-0.0947 2.52545,0.15843 0.53279,0.25908 1.20218,0.92451 1.48502,1.47627 0.19487,0.38007 0.55901,0.59547 0.55901,0.33062 0,-0.167 0.68554,-0.97197 1.01005,-1.18599 0.89525,-0.59042 1.75877,0.16944 2.08669,1.83621 0.29186,1.48349 -0.15698,3.06474 -1.00433,3.53816 -0.52478,0.29322 -1.29257,0.39458 -1.95612,0.25826 z"
           id="path6252-9" /><path
           style="fill:#de3720;fill-opacity:1;stroke:none;stroke-width:0.432792;stroke-linecap:round;stroke-linejoin:round"
           d="m 240.63421,472.63934 c -0.87572,-0.11819 -1.44738,-0.40764 -2.06719,-1.04669 -1.50836,-1.55514 -1.22611,-3.95081 0.57825,-4.90802 l 0.50948,-0.27027 0.95673,0.81227 c 0.52623,0.44675 1.0405,0.90765 1.14287,1.02423 0.12644,0.14401 0.27998,0.87185 0.47903,2.27078 0.16113,1.13237 0.28331,2.06695 0.27151,2.07688 -0.10713,0.0901 -1.31104,0.11636 -1.87068,0.0408 z"
           id="path6253-2" /><path
           style="fill:#de3720;fill-opacity:1;stroke:none;stroke-width:0.432792;stroke-linecap:round;stroke-linejoin:round"
           d="m 243.34354,479.30282 c -0.46823,-0.46823 -0.70263,-1.3553 -0.78679,-2.97736 l -0.0733,-1.41266 -0.53391,0.72813 c -0.68627,0.93594 -1.66568,1.86055 -2.21313,2.08929 -1.57768,0.65918 -3.05684,-0.38307 -3.06999,-2.16321 -0.009,-1.23161 0.57928,-2.1149 1.52678,-2.29211 0.57362,-0.10727 2.95235,0.44246 4.52372,1.04544 0.066,0.0254 0.29519,-0.31607 0.50929,-0.75869 0.21413,-0.44259 0.45434,-0.80473 0.5338,-0.80473 0.0794,0 1.05439,0.28668 2.16654,0.63707 1.11215,0.35038 2.08105,0.61444 2.15313,0.58679 0.072,-0.0276 0.22973,-0.32721 0.35036,-0.66569 0.12065,-0.33848 0.28678,-0.77899 0.3692,-0.97891 l 0.14983,-0.36348 1.46209,0.63105 c 0.80415,0.34708 1.62324,0.69861 1.82025,0.78121 l 0.35817,0.15015 -0.1506,0.89914 c -0.18056,1.07812 -0.28734,1.44354 -0.60225,2.06084 -0.57639,1.12979 -1.32641,1.63721 -2.42546,1.64084 -1.28831,0.004 -1.79313,-0.66583 -1.67995,-2.22999 0.0365,-0.50385 0.10086,-1.08355 0.14312,-1.28823 0.0617,-0.29871 0.0401,-0.37216 -0.10925,-0.37216 -0.10234,0 -0.18605,0.0228 -0.18605,0.0506 0,0.2798 -0.8998,2.90616 -1.16854,3.41077 -0.86553,1.62521 -2.29436,2.36863 -3.0671,1.59589 z"
           id="path6254-7" /><path
           style="fill:#de3720;fill-opacity:1;stroke:none;stroke-width:0.432792;stroke-linecap:round;stroke-linejoin:round"
           d="m 233.19275,476.4364 c -0.43855,-0.27461 -0.91035,-1.19975 -1.07924,-2.11619 -0.0679,-0.3683 -0.10152,-0.69154 -0.0747,-0.71829 0.0805,-0.0805 3.97526,-0.31028 4.0468,-0.23873 0.0902,0.0903 -0.47818,1.76958 -0.74956,2.21459 -0.53108,0.87077 -1.50247,1.25989 -2.14326,0.85862 z"
           id="path6255-9" /><path
           style="fill:#de3720;fill-opacity:1;stroke:none;stroke-width:0.432792;stroke-linecap:round;stroke-linejoin:round"
           d="m 246.26229,472.48445 c -1.5558,-0.50215 -2.35987,-1.41033 -2.95225,-3.33459 -0.52387,-1.7017 -0.5322,-1.64428 0.32002,-2.2043 0.40732,-0.26768 0.83129,-0.48517 0.94213,-0.48331 0.25675,0.004 2.45501,1.93016 2.89253,2.53412 0.47186,0.65138 0.62841,1.47183 0.50313,2.63658 l -0.10242,0.9522 -0.57253,0.0236 c -0.31491,0.013 -0.77867,-0.043 -1.03061,-0.12427 z"
           id="path6256-5" /><path
           style="fill:#de3720;fill-opacity:1;stroke:none;stroke-width:0.432792;stroke-linecap:round;stroke-linejoin:round"
           d="m 243.3423,484.74921 c 0,-1.19237 0.99687,-3.68696 1.83801,-4.59949 0.6369,-0.69096 1.17945,-0.86346 1.77911,-0.56562 1.30135,0.64635 1.15263,1.93267 -0.40296,3.48541 -0.8545,0.85293 -2.1953,1.75559 -2.95651,1.9904 -0.23233,0.0717 -0.25765,0.0412 -0.25765,-0.3107 z"
           id="path6257-4" /><path
           style="fill:#de3720;fill-opacity:1;stroke:none;stroke-width:0.432792;stroke-linecap:round;stroke-linejoin:round"
           d="m 254.36844,476.31075 c -0.75256,-0.45886 -1.29281,-1.66597 -1.29281,-2.88864 0,-0.83066 0.19709,-1.32318 0.69818,-1.74482 0.38397,-0.32308 0.39135,-0.32427 1.53284,-0.24784 0.63085,0.0423 1.58501,0.13923 2.12034,0.21548 l 0.97333,0.13867 -0.0766,0.68704 c -0.0909,0.81492 -0.36025,1.65248 -0.74189,2.30667 -0.32782,0.56192 -1.28524,1.48598 -1.70497,1.64555 -0.47027,0.1788 -1.10919,0.13131 -1.50839,-0.11211 z"
           id="path6258-3" /><path
           style="fill:#de3720;fill-opacity:1;stroke:none;stroke-width:0.432792;stroke-linecap:round;stroke-linejoin:round"
           d="m 256.16739,470.25095 c -0.60872,-0.1982 -1.23899,-0.58934 -1.58535,-0.9838 -0.47715,-0.54346 -0.50449,-1.24643 -0.0686,-1.76443 0.24828,-0.29509 0.27252,-0.38552 0.15968,-0.59637 -0.11811,-0.22072 -0.0756,-0.30591 0.37967,-0.76121 l 0.51266,-0.51265 1.20359,0.8075 c 1.04949,0.70414 1.24195,0.88451 1.50331,1.40902 0.4028,0.8083 0.41389,1.67068 0.0273,2.12016 -0.24215,0.28151 -0.36,0.31998 -1.05921,0.34589 -0.4327,0.0161 -0.91556,-0.0127 -1.07302,-0.0641 z"
           id="path6259-1" /><path
           style="fill:#de3720;fill-opacity:1;stroke:none;stroke-width:0.432792;stroke-linecap:round;stroke-linejoin:round"
           d="m 250.92121,471.3147 c -1.11165,-0.55395 -1.86119,-1.77397 -1.94424,-3.16462 -0.0622,-1.04225 0.0959,-1.38957 0.71004,-1.55914 0.92217,-0.25464 2.52735,0.55488 3.25765,1.64285 0.36161,0.53869 0.38116,0.61775 0.33081,1.33691 -0.0871,1.24336 -0.70011,2.04113 -1.56856,2.04113 -0.10419,0 -0.45778,-0.13372 -0.7857,-0.29713 z"
           id="path6260-2" /><path
           style="fill:#de3720;fill-opacity:1;stroke:none;stroke-width:0.432792;stroke-linecap:round;stroke-linejoin:round"
           d="m 246.46615,466.57676 c -0.66579,-0.40595 -1.47761,-1.73562 -1.96601,-3.22009 -0.22534,-0.6849 -0.63238,-3.18688 -0.5344,-3.28488 0.0225,-0.0225 0.70662,-0.1248 1.5205,-0.22759 2.20356,-0.27832 3.05279,-0.0328 3.60064,1.04113 0.33409,0.6549 0.41113,2.15604 0.16444,3.20456 -0.52033,2.21162 -1.62253,3.19577 -2.78517,2.48687 z"
           id="path6261-3" /><path
           style="fill:#de3720;fill-opacity:1;stroke:none;stroke-width:0.432792;stroke-linecap:round;stroke-linejoin:round"
           d="m 257.92917,465.58666 c -0.96583,-0.34253 -1.87941,-1.41467 -2.33825,-2.74407 -0.22704,-0.6577 -0.84357,-3.47742 -0.77462,-3.54261 0.0188,-0.0177 0.89733,0.0227 1.95225,0.0904 l 1.91805,0.12276 v 3.12936 c 0,2.43197 -0.0319,3.12733 -0.14314,3.12031 -0.0787,-0.005 -0.35515,-0.0842 -0.61429,-0.17613 z"
           id="path6262-3" /><path
           style="fill:#de3720;fill-opacity:1;stroke:none;stroke-width:0.432792;stroke-linecap:round;stroke-linejoin:round"
           d="m 253.01837,466.41322 c -1.26817,-0.40106 -2.07981,-1.22616 -2.48631,-2.52754 -0.22439,-0.7184 -0.74581,-4.01487 -0.65125,-4.11737 0.16153,-0.1751 1.97231,-0.2233 2.45116,-0.0653 0.641,0.21154 1.24309,0.82272 1.60594,1.63021 0.42902,0.95469 0.51731,2.54825 0.22968,4.14567 -0.22003,1.22206 -0.22542,1.22645 -1.14922,0.9343 z"
           id="path6263-4" /><path
           style="fill:#de3720;fill-opacity:1;stroke:none;stroke-width:0.432792;stroke-linecap:round;stroke-linejoin:round"
           d="m 260.91955,465.54745 c -0.3387,-0.14102 -0.82307,-0.69242 -1.01783,-1.15869 -0.38946,-0.93234 -0.66503,-4.47262 -0.37102,-4.76663 0.0733,-0.0733 2.03057,0.48953 3.12076,0.89744 0.82558,0.30888 1.60874,1.02394 1.7676,1.61385 0.48829,1.81333 -1.85455,4.09893 -3.49951,3.41403 z"
           id="path6264-1" /><path
           style="fill:#de3720;fill-opacity:1;stroke:none;stroke-width:0.432792;stroke-linecap:round;stroke-linejoin:round"
           d="m 260.79488,471.50981 c -0.47988,-0.29263 -0.79704,-0.71925 -1.05921,-1.42473 -0.2635,-0.70908 -0.73097,-3.30412 -0.61537,-3.41601 0.16359,-0.15833 3.20445,-0.68352 4.33568,-0.74885 1.13257,-0.0654 1.16974,-0.0597 1.45203,0.22262 0.41767,0.41767 0.58507,1.13853 0.43638,1.87897 -0.27279,1.35823 -1.46794,2.98111 -2.56069,3.47707 -0.63638,0.28885 -1.52506,0.29371 -1.98882,0.0109 z"
           id="path6265-1" /><path
           style="fill:#de3720;fill-opacity:1;stroke:none;stroke-width:0.432792;stroke-linecap:round;stroke-linejoin:round"
           d="m 266.68257,468.12137 c -0.81479,-0.45755 -1.46891,-3.27015 -1.46891,-6.31592 0,-1.08834 0.16364,-1.60097 0.62753,-1.96588 0.74549,-0.5864 1.58729,-0.42387 2.43092,0.46937 0.64225,0.68 1.10037,1.57067 1.34784,2.62033 0.24198,1.02647 0.21595,1.58919 -0.11994,2.59336 -0.67508,2.01814 -1.87706,3.12682 -2.81744,2.59874 z"
           id="path6266-3" /><path
           style="fill:#de3720;fill-opacity:1;stroke:none;stroke-width:0.432792;stroke-linecap:round;stroke-linejoin:round"
           d="m 272.03771,464.04946 c -0.51009,-0.15259 -1.03849,-0.72843 -2.00978,-2.19028 -1.28449,-1.93317 -1.87587,-3.19254 -1.87264,-3.98777 0.006,-1.34189 0.88329,-2.45692 2.10865,-2.67846 0.90668,-0.16393 2.62189,0.68088 3.54309,1.74509 0.74692,0.86289 1.29828,2.08719 1.34969,2.99704 0.0933,1.65187 -0.81274,3.48811 -1.98366,4.02005 -0.50559,0.22969 -0.64431,0.24122 -1.13535,0.0943 z"
           id="path6267-8" /><path
           style="fill:#de3720;fill-opacity:1;stroke:none;stroke-width:0.432792;stroke-linecap:round;stroke-linejoin:round"
           d="m 276.39526,459.33067 c -0.98827,-0.99362 -2.74129,-3.41519 -3.49332,-4.82553 -1.03097,-1.93352 0.2158,-3.39055 2.90127,-3.39055 1.67738,0 2.94775,0.60653 3.49361,1.66796 0.26511,0.51554 0.28675,0.67267 0.27456,1.99369 -0.0274,2.96055 -0.95497,5.15561 -2.17872,5.15561 -0.32961,0 -0.504,-0.10512 -0.9974,-0.60118 z"
           id="path6268-7" /><path
           style="fill:#de3720;fill-opacity:1;stroke:none;stroke-width:0.432792;stroke-linecap:round;stroke-linejoin:round"
           d="m 262.10898,459.1521 c -0.28958,-0.25874 -0.37086,-0.43431 -0.41534,-0.89712 -0.0688,-0.71668 0.10305,-1.07199 0.86233,-1.78218 0.98081,-0.91745 2.8189,-1.69389 4.00992,-1.69389 0.87008,0 1.5105,0.47003 1.5105,1.10858 0,1.59771 -2.66075,3.58632 -4.79851,3.58632 -0.72474,0 -0.84629,-0.0335 -1.1689,-0.32171 z"
           id="path6269-4" /><path
           style="fill:#de3720;fill-opacity:1;stroke:none;stroke-width:0.432792;stroke-linecap:round;stroke-linejoin:round"
           d="m 269.49628,454.04667 c -0.38505,-0.17176 -0.50583,-0.3774 -0.50017,-0.85164 0.007,-0.59949 0.49091,-0.93726 1.33432,-0.9317 0.59307,0.004 0.83286,0.12877 1.05762,0.55068 0.41878,0.78605 -0.92713,1.66303 -1.89177,1.23266 z"
           id="path6270-2" /><path
           style="fill:#de3720;fill-opacity:1;stroke:none;stroke-width:0.432792;stroke-linecap:round;stroke-linejoin:round"
           d="m 259.03249,458.31541 c -0.72414,-0.28893 -0.99264,-0.78973 -1.19076,-2.22118 l -0.15034,-1.0863 h 0.58349 c 1.08976,0.003 2.33891,0.84579 2.5282,1.70762 0.10615,0.48332 -0.11742,1.08956 -0.52978,1.43653 -0.35965,0.30263 -0.75827,0.35475 -1.24081,0.16222 z"
           id="path6271-7" /><path
           style="fill:#de3720;fill-opacity:1;stroke:none;stroke-width:0.432792;stroke-linecap:round;stroke-linejoin:round"
           d="m 253.76503,458.07107 c -0.62011,-0.31687 -0.91599,-0.70689 -0.99756,-1.3149 -0.13094,-0.97637 0.70721,-1.64722 2.06775,-1.65508 0.94284,-0.005 1.42774,0.15902 1.8973,0.64349 0.4845,0.49988 0.58779,1.20709 0.25389,1.73829 -0.51602,0.82095 -2.17358,1.12358 -3.22138,0.5882 z"
           id="path6272-7" /><path
           style="fill:#de3720;fill-opacity:1;stroke:none;stroke-width:0.432792;stroke-linecap:round;stroke-linejoin:round"
           d="m 250.30206,458.09236 c -0.22318,-0.13006 -0.54721,-1.11053 -0.54721,-1.65571 0,-0.36179 5e-5,-0.36181 0.48667,-0.28252 0.67553,0.11012 1.06902,0.31898 1.21835,0.6467 0.19442,0.42672 0.15463,0.67606 -0.16933,1.06106 -0.30308,0.3602 -0.63365,0.43727 -0.98848,0.23047 z"
           id="path6273-9" /><path
           style="fill:#de3720;fill-opacity:1;stroke:none;stroke-width:0.432792;stroke-linecap:round;stroke-linejoin:round"
           d="m 246.31748,458.23556 c -0.35742,-0.28943 -0.46124,-1.30234 -0.16682,-1.62767 0.38667,-0.42725 2.21499,-0.1597 2.79617,0.40918 0.14378,0.14073 0.12973,0.19968 -0.10768,0.45241 -0.35383,0.37664 -1.5512,0.97375 -1.95265,0.97375 -0.1719,0 -0.42797,-0.0935 -0.56902,-0.20767 z"
           id="path6274-3" /><path
           style="fill:#de3720;fill-opacity:1;stroke:none;stroke-width:0.432792;stroke-linecap:round;stroke-linejoin:round"
           d="m 242.33439,459.16774 c -0.89244,-0.43982 -0.93641,-1.6273 -0.0754,-2.03587 1.25183,-0.59404 2.91045,0.59439 2.33368,1.67209 -0.27797,0.5194 -1.53246,0.72149 -2.2583,0.36378 z"
           id="path6275-1" /><path
           style="fill:#de3720;fill-opacity:1;stroke:none;stroke-width:0.432792;stroke-linecap:round;stroke-linejoin:round"
           d="m 239.10428,458.87262 c -0.45966,-0.31284 -0.76351,-0.71871 -0.86878,-1.16054 l -0.0787,-0.33033 0.50297,0.0678 c 0.27663,0.0373 0.89885,0.10147 1.38269,0.14267 l 0.87974,0.0749 -0.47895,0.72922 c -0.53798,0.81904 -0.73326,0.88852 -1.33895,0.4763 z"
           id="path6276-9" /><path
           style="fill:#de3720;fill-opacity:1;stroke:none;stroke-width:0.432792;stroke-linecap:round;stroke-linejoin:round"
           d="m 234.56218,460.56857 c -1.11503,-0.34864 -1.64026,-0.93075 -1.64026,-1.81795 0,-0.43571 0.0549,-0.56224 0.35237,-0.81256 0.45681,-0.38439 0.75758,-0.45241 1.7018,-0.38484 1.38264,0.0989 2.18268,0.77827 2.18268,1.85341 0,0.64101 -0.30538,1.01285 -0.98732,1.20221 -0.5684,0.15783 -1.01118,0.14674 -1.60927,-0.0403 z"
           id="path6277-8" /><path
           style="fill:#de3720;fill-opacity:1;stroke:none;stroke-width:0.432792;stroke-linecap:round;stroke-linejoin:round"
           d="m 229.757,458.91805 c -0.24807,-0.17971 -0.54038,-0.46313 -0.6496,-0.62981 l -0.1986,-0.30306 0.37481,0.003 c 0.57907,0.005 2.50902,0.20354 2.57014,0.26466 0.0961,0.0961 -0.3006,0.75192 -0.52862,0.87394 -0.42293,0.22636 -1.09,0.13751 -1.56813,-0.20883 z"
           id="path6278-6" /><path
           style="fill:#de3720;fill-opacity:1;stroke:none;stroke-width:0.432792;stroke-linecap:round;stroke-linejoin:round"
           d="m 227.82626,462.35927 c -0.41701,-0.088 -1.0749,-0.66228 -1.77295,-1.54757 -0.37896,-0.48062 -0.68903,-0.97825 -0.68903,-1.10588 0,-0.19865 0.0741,-0.23201 0.51531,-0.23201 0.28342,0 0.5153,-0.0278 0.5153,-0.0618 0,-0.034 -0.10732,-0.27215 -0.23847,-0.52922 l -0.23847,-0.46741 0.75142,0.0478 c 0.93977,0.0598 1.5844,0.46895 1.99445,1.26574 0.32171,0.62516 0.38928,1.55511 0.15357,2.11352 -0.16124,0.38203 -0.58441,0.60269 -0.99113,0.51683 z"
           id="path6279-5" /><path
           style="fill:#de3720;fill-opacity:1;stroke:none;stroke-width:0.432792;stroke-linecap:round;stroke-linejoin:round"
           d="m 264.53354,453.45366 c 0.20884,-0.25162 0.89768,-0.5874 1.39735,-0.68114 0.48635,-0.0913 1.30506,0.24207 1.5453,0.62913 0.14218,0.22905 0.12247,0.23217 -1.47402,0.23217 -1.45876,0 -1.6034,-0.0177 -1.46863,-0.18016 z"
           id="path6280-0" /></g><g
         id="median-converts"
         transform="matrix(1.1076334,0,0,1.1076334,-148.47265,-558.60556)"
         inkscape:label="median-converts"><path
           style="fill:#b32c11;fill-opacity:1;stroke:none;stroke-width:1.63575;stroke-linecap:round;stroke-linejoin:round"
           d="m 765.80896,2248.1123 c -2.06461,-0.6003 -4.73993,-3.1802 -6.91234,-6.6657 -2.67013,-4.284 -6.23999,-12.6119 -6.55828,-15.2994 -0.2259,-1.9073 -0.12992,-2.2979 0.79088,-3.2188 0.83379,-0.8337 1.66343,-1.1015 4.05931,-1.31 4.94385,-0.4303 10.89276,-2.878 18.15907,-7.4717 7.83145,-4.9509 10.75311,-6.0069 13.16674,-4.7587 1.7443,0.902 2.81402,2.6533 4.10805,6.7255 4.39462,13.8297 0.88639,21.7614 -12.61167,28.5137 -6.74978,3.3765 -10.99377,4.418 -14.20176,3.4851 z"
           id="path6289"
           transform="matrix(0.26458333,0,0,0.26458333,-102.92291,6.3500071)" /><path
           style="fill:#b32c11;fill-opacity:1;stroke:none;stroke-width:1.63575;stroke-linecap:round;stroke-linejoin:round"
           d="m 814.76943,2242.2886 c -6.27222,-2.3845 -12.74666,-11.5503 -15.76751,-22.322 -1.87117,-6.6722 -2.40031,-10.6244 -1.70682,-12.7484 0.82232,-2.5185 2.52233,-3.1766 10.20246,-3.9494 3.50271,-0.3525 7.63449,-0.8967 9.18172,-1.2094 1.54723,-0.3126 2.88994,-0.4962 2.98379,-0.4079 0.4567,0.4296 3.97462,15.9248 4.21682,18.5736 0.15236,1.6662 0.5542,3.5788 0.89299,4.2501 0.33878,0.6714 2.27907,3.0621 4.31176,5.3127 3.23917,3.5864 3.62358,4.179 3.1114,4.7962 -0.85458,1.0297 -4.90535,3.9563 -6.30447,4.5549 -0.6631,0.2837 -2.14954,1.1895 -3.3032,2.0129 -2.4532,1.7509 -5.16594,2.1453 -7.81894,1.1367 z"
           id="path6290"
           transform="matrix(0.26458333,0,0,0.26458333,-102.92291,6.3500071)" /><path
           style="fill:#b32c11;fill-opacity:1;stroke:none;stroke-width:1.63575;stroke-linecap:round;stroke-linejoin:round"
           d="m 841.99764,2228.5153 c -6.47005,-2.1445 -10.51569,-7.1057 -13.17001,-16.1504 -1.14523,-3.9024 -3.11422,-15.4163 -2.68791,-15.7178 3.68317,-2.6051 5.43943,-3.6009 10.00081,-5.6701 2.98337,-1.3534 6.64026,-3.0996 8.12643,-3.8806 2.35015,-1.2349 2.84663,-1.354 3.81162,-0.9143 1.53593,0.6998 2.80214,3.7711 5.3662,13.0162 1.18043,4.2561 3.25351,10.5336 4.60684,13.9498 2.82294,7.126 3.23239,9.4393 2.09499,11.8362 -0.60322,1.2712 -1.31254,1.8825 -3.18695,2.7468 -2.11281,0.9742 -3.08022,1.1269 -7.82095,1.2349 -3.64126,0.083 -5.97587,-0.064 -7.14107,-0.4507 z"
           id="path6291"
           transform="matrix(0.26458333,0,0,0.26458333,-102.92291,6.3500071)" /><path
           style="fill:#b32c11;fill-opacity:1;stroke:none;stroke-width:1.63575;stroke-linecap:round;stroke-linejoin:round"
           d="m 875.97184,2221.7607 c -3.5423,-0.699 -6.06238,-3.2151 -9.6555,-9.6402 -5.51687,-9.8651 -11.27065,-27.7173 -11.84408,-36.7485 -0.23932,-3.7691 -0.16982,-4.3669 0.72181,-6.2087 1.87253,-3.8682 10.59065,-9.7171 15.47606,-10.3828 l 2.27216,-0.3096 v 2.6776 c 0,11.1439 8.70757,32.3453 17.75588,43.2324 2.78752,3.3541 3.01699,3.784 3.00282,5.6263 -0.008,1.0972 -0.25188,2.3925 -0.54099,2.8786 -3.41731,5.7453 -11.61022,9.9756 -17.18816,8.8749 z"
           id="path6292"
           transform="matrix(0.26458333,0,0,0.26458333,-102.92291,6.3500071)" /><path
           style="fill:#b32c11;fill-opacity:1;stroke:none;stroke-width:1.63575;stroke-linecap:round;stroke-linejoin:round"
           d="m 899.31453,2203.9192 c -3.93244,-4.9862 -5.54406,-7.2903 -8.38624,-11.9899 -8.33535,-13.7826 -13.97926,-29.5423 -11.94263,-33.3478 0.23988,-0.4482 1.13027,-0.8933 2.09574,-1.0477 3.27276,-0.5233 7.3115,-4.8184 10.5085,-11.1753 0.91871,-1.8268 1.84552,-3.4297 2.05957,-3.562 0.21405,-0.1322 0.49391,0.4049 0.62191,1.1936 0.37413,2.3055 5.76282,16.0861 8.32816,21.2978 4.08508,8.2991 8.8175,15.288 15.47148,22.8484 4.07052,4.6251 5.07519,6.4633 5.07519,9.2859 0,3.0937 -1.25307,4.6993 -5.20619,6.671 -3.3143,1.6531 -7.40648,2.6645 -12.75469,3.1523 l -3.02955,0.2763 z"
           id="path6293"
           transform="matrix(0.26458333,0,0,0.26458333,-102.92291,6.3500071)" /><path
           style="fill:#b32c11;fill-opacity:1;stroke:none;stroke-width:1.63575;stroke-linecap:round;stroke-linejoin:round"
           d="m 926.68332,2186.6578 c -3.17162,-1.2715 -8.60804,-7.5642 -13.39692,-15.5072 -8.49067,-14.0829 -13.48768,-29.4326 -10.13821,-31.1423 0.40632,-0.2074 1.40414,-0.5035 2.21739,-0.658 1.72609,-0.328 3.23471,-1.4006 8.25947,-5.8721 2.02346,-1.8007 4.09481,-3.6248 4.60302,-4.0536 0.92224,-0.7782 0.92999,-0.7683 4.06166,5.1935 5.96264,11.3511 11.51954,19.2978 20.32142,29.0611 5.88532,6.5281 7.91241,9.0656 8.63411,10.8079 0.49079,1.1849 0.451,1.4795 -0.35214,2.6074 -2.73705,3.8439 -9.07899,8.0431 -14.13658,9.3605 -2.78517,0.7254 -8.48338,0.8402 -10.07322,0.2028 z"
           id="path6294"
           transform="matrix(0.26458333,0,0,0.26458333,-102.92291,6.3500071)" /><path
           style="fill:#b32c11;fill-opacity:1;stroke:none;stroke-width:1.63575;stroke-linecap:round;stroke-linejoin:round"
           d="m 951.80459,2162.6208 c -4.53489,-2.324 -18.20225,-20.5562 -23.74628,-31.6775 -2.32675,-4.6674 -2.33012,-4.6424 1.14023,-8.4395 1.84732,-2.0213 2.50957,-2.4702 3.6442,-2.4702 1.79147,0 4.25365,1.6295 9.12994,6.0424 8.68228,7.8572 12.36587,9.1054 26.87084,9.1054 h 6.5523 l 0.56026,2.64 c 1.71223,8.0684 -5.01655,19.0517 -14.5927,23.8194 -3.35734,1.6716 -7.40036,2.0861 -9.55879,0.98 z"
           id="path6295"
           transform="matrix(0.26458333,0,0,0.26458333,-102.92291,6.3500071)" /><path
           style="fill:#b32c11;fill-opacity:1;stroke:none;stroke-width:1.63575;stroke-linecap:round;stroke-linejoin:round"
           d="m 961.88113,2128.4133 c -2.60237,-0.3968 -6.07277,-1.56 -8.89588,-2.9817 -6.36612,-3.2059 -14.07464,-10.7875 -13.22344,-13.0057 0.13303,-0.3466 0.81509,-0.6153 1.562,-0.6153 2.38801,0 4.21668,-1.1704 9.61089,-6.1513 2.92607,-2.7019 7.36508,-6.6843 9.86445,-8.8499 2.49938,-2.1655 5.88743,-5.3347 7.529,-7.0426 l 2.98468,-3.1052 1.49357,1.4301 c 3.87818,3.7133 7.80383,10.7815 9.01723,16.2354 1.05875,4.7589 0.72196,10.8155 -0.7828,14.0773 -0.62984,1.3652 -1.66169,3.1594 -2.293,3.9871 -1.4352,1.8817 -4.9448,4.2128 -7.76368,5.1567 -2.26305,0.7579 -6.91021,1.1995 -9.10302,0.8651 z"
           id="path6296"
           transform="matrix(0.26458333,0,0,0.26458333,-102.92291,6.3500071)" /></g></g></g></svg>
