<svg width="1259.718" height="712.722" viewBox="0 0 333.3 188.574" xmlns="http://www.w3.org/2000/svg">
    <path
        d="M168.89.02c-7.057.171-15.005 1.5-19.895 3.89-3.388 1.655-5.102 1.965-6.854 1.24-6.188-2.561-38.223 2.217-42.576 6.349-1.019.967-9.383 4.251-9.944 3.904-.13-.08-.28-.014-.335.147-.194.58-12.336 3.342-17.389 3.955-2.379.289-7.864 1.342-8.498 1.632-.675.308-3.258.892-3.588.81-.122-.03-.947.1-1.834.287-2.378.502-9.712 1.207-14.301 1.374-2.208.08-6.026.302-8.483.493-3.35.26-4.827.263-5.906.014-2.532-.585-11.505-3.913-14.51-5.382-3.132-1.532-4.862-1.845-4.862-.88-13.805 17.6-4.876 45.611-4.644 67.135-.801 1.565-.425 3.515.897 4.076.55.233-.572 5.152-1.85 8.107-.975 2.258-1.629 7.994-1.468 12.895.225 6.877.15 12.337-.2 14.36-.587 3.408-1.132 6.154-1.221 6.154-.018 0-.1.99-.182 2.198-.181 2.659-.316 10.1-.175 9.679.159-.478.93-.349.93.156 0 .251-.121.382-.27.29-.515-.318-1.195 1.665-1.192 3.475 0 .982-.153 3.04-.342 4.574-.272 2.193-.265 3.411.03 5.714.205 1.61.392 3.224.415 3.587.023.362.14.66.26.66.121 0 .22.301.22.67 0 .369.264 1.188.587 1.82.322.633.585 1.32.585 1.527 0 .208.117.378.259.378.141 0 .419.394.618.875.26.628.664.958 1.428 1.17 2.424.673 3.496.106 7.828-4.142 1.969-1.93 3.628-3.366 3.686-3.19.06.176.03 1.273-.065 2.437-.537 6.584 1.297 10.65 5.803 12.87l1.97.97h6.168l2.297-1.1c2.546-1.221 2.832-1.203 2.832.188 0 2.251 3.803 5.97 6.753 6.602 3.892.835 9.655-.028 11.974-1.793l.705-.535.524 1.17c.874 1.952 2.577 3.312 5.124 4.094.632.194 1.413.47 1.735.615 5.763 2.57 12.08 1.673 16.168-2.294l1.218-1.183.163.649c.417 1.663 4.319 4.581 7.09 5.303 6.635 1.728 13.937-.673 16.372-5.382.572-1.107.542-1.105 1.649-.106 7.607 6.861 24.218 1.94 25.094-7.435.142-1.517.254-1.856.504-1.515 2.097 2.868 7.645 4.186 12.25 2.91 12.341-3.417 15.72-6.885 13.858-14.226-.403-1.588-.733-2.966-.733-3.062 0-.096.824.625 1.832 1.601 7.153 6.934 14.432 7.66 22.381 2.234 3.4-2.32 4.887-4.344 5.275-7.177l.178-1.298 2.53.905 2.532.906 4.25-.016 4.249-.015 2.167-.787c6.794-2.467 10.027-8.029 8.256-14.202-.325-1.134-.371-1.128 2.569-.38 13.305 3.388 25.588-4.192 21.715-13.4-.824-1.96-.867-1.935 2.558-1.524 12.396 1.486 20.407-4.697 17.496-13.506-.943-2.854-1.036-2.758 2.236-2.311 5.99.819 14.311-.534 17.696-2.876 4.664-3.228 5.01-8.624.836-13.054-.94-.999-1.95-2.2-2.244-2.667l-.533-.852 1.86.194c5.548.496 40.117 3.498 31.886-12.003-.34-.362-.53-.8-.424-.972.107-.174.03-.315-.173-.315-.202 0-.704-.314-1.116-.696-1.06-.986-7.757-4.375-12.031-6.09-4.123-1.653-4.543-1.835-5.225-2.263-1.087-.68-.218-.873 2.734-.608 35.99 3.235 55.03-11.689 23.884-18.01-16.936-3.438-18.443-3.962-11.428-3.975 12.566-.023 26.179-3.236 29.964-7.072 1.595-1.617 2.104-2.315 1.342-1.844-.225.139-.283.056-.17-.24 2.31-6.017-1.217-8.507-15.46-10.917-2.75-.465-6.189-1.367-7.05-1.85-.636-.355.547-.812 5.879-2.268 9.161-2.502 11.004-3.35 12.823-5.9l.867-1.218-.346-2.053c-.65-3.856-2.34-4.74-12.905-6.755-2.819-.538-5.836-.901-12.455-1.5-3.546-.322-7.898-.72-9.67-.885-5.466-.51-6.228-.55-13.775-.73-4.03-.097-8.975-.243-10.99-.323-6.291-.253-40.367-.33-44.985-.101-2.417.12-7.626.299-11.575.398l-12.504.313c-5.33.133-14.208.628-15.681.874-.65.108-.889-.046-1.392-.9-1.32-2.238-7.485-3.223-14.54-3.05zm75.102 3.916c8.062-.031 15.54.025 19.422.18 4.593.184 13.033.445 18.756.58 5.722.135 11.92.394 13.773.574 1.854.181 4.69.455 6.301.609 8.183.783 9.633.952 12.764 1.485 5.64.96 10.257 2.416 11.35 3.58 3.304 3.516-.156 6.284-11.805 9.446-1.612.437-4.04 1.177-5.396 1.643-2.913 1.002-3.983 1.038-7.997.27-1.66-.319-5.458-.916-8.44-1.328-2.982-.412-8.12-1.22-11.418-1.793-3.546-.617-7.677-1.131-10.11-1.26l-4.115-.215-2.638-1.253c-4.827-2.292-5.544-2.543-10.55-3.687-6.697-1.53-27.084-2.867-55.682-3.652l-9.67-.266-3.038-.882c-3.772-1.095-3.732-1.042-1.313-1.755 2.792-.822 7.225-1.142 20.615-1.487 6.367-.164 13.686-.365 16.265-.445 6.219-.195 14.864-.313 22.926-.344zM136.357 6.234c2.726.122 4.701.609 6.755 1.497 2.956 1.279 3.032 1.39 1.73 2.533-2.789 2.449-13.38 8.156-12.939 6.973.86-2.308.903-2.553.577-3.27-1.025-2.25-9.207-4.034-18.184-3.966-2.632.02-4.841-.019-4.909-.087-.367-.367 10.067-2.352 15.702-2.987 5.062-.571 8.54-.814 11.268-.693zm27.718 1.502c4.548-.053 9.535.222 14.266.87 6.278.86 7.117 1.072 9.991 2.523.999.504 1.812 1.08 1.807 1.279-.016.644-.608 1.415-1.508 1.962l-.879.535-2.246-.69c-6.653-2.043-12.996-2.62-28.727-2.612l-9.778.004 1.211-1.075c1.923-1.707 8.283-2.707 15.863-2.795zm31.336 3.178c5.21-.16 17.08.234 32.689 1.12 22.429 1.27 27.12 2.065 34.844 5.895l3.487 1.728 2.081.002c2.007.003 9.6 1.012 14.336 1.905 1.26.238 4.623.706 7.473 1.042 5.759.677 12.434 1.938 20.93 3.954 3.105.737 7.295 1.665 9.31 2.062 6.457 1.274 9.315 2.392 10.125 3.958 1.012 1.958-.487 5.36-2.92 6.626-1.45.754-6.617 2.443-9.696 3.169-13.95 3.288-32.474 1.958-40.568-2.914-7.277-4.38-20.773-8.615-39.731-12.468-17.874-3.631-29.093-5.514-37.558-6.303-5.64-.525-5.595-.51-8.013-2.652l-2.04-1.805c-.075-.065.222-.41.66-.765.576-.47.874-1.08 1.087-2.229.162-.87.442-1.76.622-1.978.149-.179 1.145-.294 2.882-.347zm-81.486 1.066c6.613-.018 13.297.898 15.486 2.33 2.18 1.427-2.503 5.733-7.986 7.344a59.747 59.747 0 00-3.742 1.251c-1.993.764-2.125.697-1.662-.847 1.307-4.364-5.102-8.017-13.213-7.53-3.364.203-4.366-.003-3.615-.739.303-.297 4.458-1.03 8.312-1.466 2.02-.228 4.216-.337 6.42-.343zm48.731 1.044c2.77.028 5.188.194 6.733.534.699.154 3.285.533 5.747.84 8.654 1.084 13.592 2.852 16.285 5.833 3.282 3.632-3.955 6.892-9.625 4.336-9.06-4.085-25.007-7.342-35.46-7.244-5.705.054-5.317.097-4.755-.524.255-.283.603-.878.772-1.324.528-1.387 11.995-2.537 20.303-2.451zm-64.749 3.394c7.668-.305 13.118.787 15.825 3.171.55.483.684 1.392.248 1.662-.146.09-.208.395-.136.677.888 3.515-11.421 3.968-14.057.517-.806-1.056-1.012-1.56-.889-2.175.118-.588-.041-1.039-.599-1.701-.798-.95-1.013-2.126-.392-2.15zm49.523 2.705c12.408.172 35.995 6.312 40.147 11.48 1.353 1.684-.128 4.297-2.681 4.728-.705.12-1.72.4-2.255.624-2.128.889-4.149.56-7.477-1.215-19.723-10.524-36.413-15.81-39.661-12.56-.751.75-.329.897 3.13 1.086 6.759.37 12.896 2.181 21.33 6.295 2.015.983 4.85 2.262 6.3 2.843 6.586 2.635 13.628 7.62 13.628 9.646 0 1.333-1.272 1.767-7.064 2.412l-4.348.484-2.8-2.676c-5.008-4.789-8.22-6.796-21.054-13.161-7.253-3.597-11.01-4.745-15.727-4.804l-2.198-.027 2.345-1.098c1.29-.604 3.4-1.459 4.689-1.9 1.29-.441 2.542-.976 2.784-1.19.366-.323.535-.319 1.009.029.764.56 2.328.526 3.475-.076 1.296-.681 3.564-.96 6.428-.92zm48.604 2.99a9.649 9.649 0 011.389.006c.75.046 1.697.148 2.914.292 27.898 3.288 62.979 11.58 73.48 17.37 6.186 3.41 24.88 9.46 35.168 11.381 24.062 4.493 18.692 11.108 8.74 13.585-9.695 2.412-32.539 2.34-38.404-.12-3.623-1.52-12.599-5.121-15.907-6.382-1.532-.583-7.598-2.93-13.481-5.213-16.244-6.307-17.292-6.71-19.342-7.432a131.34 131.34 0 01-3.077-1.126c-.645-.25-2.557-.939-4.25-1.53a1795.09 1795.09 0 01-11.43-4.092c-9.165-3.309-10.807-3.808-16.815-5.115-4.563-.992-4.729-1.076-4.964-2.526-.093-.57-.578-1.504-1.078-2.074-1.255-1.43-1.147-1.587 2.09-3.041 1.536-.69 2.103-1.19 2.911-2.563.53-.9.936-1.324 2.056-1.421zm-70.882 2.782l.92.423c1.65.759 2.93 1.068 5.61 1.354 4.334.464 8.225 1.809 11.86 4.1.73.46 1.656.936 2.056 1.057.401.12 1.192.578 1.759 1.017.566.438 2.876 1.755 5.133 2.927 6.388 3.316 15.052 10.329 16.73 13.541 3.105 5.943-7.26 6.658-12.4.856-7.873-8.886-14.094-13.644-24.407-18.666-3.103-1.512-8.366-2.598-9.345-1.929-.675.46-.152 1.13 1.045 1.34 5.251.917 15.24 5.89 20.464 10.189 6.46 5.314 8.688 7.479 11.345 11.018 3.699 4.927 3.733 6.616.172 8.391-2.99 1.49-4.525.993-7.354-2.382-6.27-7.477-19.656-18.764-29.422-24.806l-1.229-.76.057-1.206.056-1.206-1.295-.486c-1.864-.7-1.812-1.11.172-1.359 1.162-.145 2.68-.709 4.88-1.812zm-27.401 1.223c.916.01 1.931.147 2.673.409.66.233 2.105.548 3.212.702 5.89.816 18.314 12.822 20.673 19.978.955 2.896.819 4.807-.418 5.88-1.305 1.132-1.824.699-4.758-3.978-8.25-13.15-15.188-19.565-22.806-21.087-.985-.197-1.34-1.04-.651-1.544.343-.25 1.159-.37 2.075-.36zm-6.236.495l1.064 1.2c.586.66 1.348 1.976 1.695 2.926 2.764 7.582-5.006 11.36-10.952 5.324-1.431-1.453-1.508-2.046-.264-2.046.475 0 1.195-.482 2.107-1.411a43.175 43.175 0 012.99-2.711c.882-.715 1.999-1.746 2.482-2.291zm6.27 4.052c.278-.054.607-.022.986.12 7.462 2.792 23.581 23.819 27.96 36.472 1.64 4.742-.85 10.048-5.116 10.9-.974.196-.915.3-1.649-2.965-1.889-8.414-7.485-19.798-16.01-32.567-2.525-3.785-3.14-4.466-4.896-5.43-2.68-1.471-3.217-6.146-1.274-6.53zm93.317 4.158c.284 0 .591.033.931.096l3.811.712c4.375.816 16.109 4.843 31.963 10.968 1.611.623 5.04 1.932 7.62 2.908 4.197 1.59 8.346 3.177 21.54 8.24 2.175.836 4.22 1.631 4.542 1.768a615.56 615.56 0 005.092 2.044c6.599 2.627 10.42 4.388 15.544 7.166 2.512 1.362 6.281 3.156 8.377 3.987 7.119 2.825 11.155 5.166 12.462 7.227 4.493 7.086-6.521 11.416-24.891 9.785-8.605-.764-10.272-1.418-21.42-8.398-21.014-13.159-23.757-14.743-42.31-24.433-5.034-2.63-18.325-9.25-21.27-10.596-12.151-5.552-13.99-7.021-9.86-7.879 1.81-.376 4.741-1.729 5.666-2.616.705-.676 1.35-.978 2.203-.979zM80.41 36.45c.522.078 1.156.562 2.132 1.487 2.619 2.48 3.748 2.944 7.218 2.957l2.917.01.204.733c.919 3.3-3.67 8.315-6.873 7.51-1.213-.304-5.553-5.964-7.23-9.426l-.624-1.29.79-1.034c.532-.699.943-1.026 1.466-.947zm39.935.422c5.886 2.188 25.374 19.348 28.407 25.015 3.322 6.206-5.03 7.165-9.617 1.104-3.36-4.44-5.897-7.392-8.986-10.459l-3.049-3.026-.731-2.25c-.948-2.912-2.364-5.422-4.665-8.273-1.02-1.262-1.63-2.212-1.36-2.11zm-44.101 2.154c.051.066.529.977 1.061 2.025a35.9 35.9 0 005.756 8.185c1.144 1.22 2.232 2.507 2.418 2.859.45.852.494.74-.818 2.092-1.758 1.812-5.23 2.67-6.682 1.653-3.552-2.488-8.611-13.617-6.19-13.617.674 0 1.297-.394 2.623-1.658.956-.913 1.78-1.605 1.832-1.539zm20.495.503c4.965.777 18.469 22.097 21.458 36.569 1.665 8.063-1.42 13.347-8.073 13.826-2.62.19-2.913-.122-2.915-3.103-.003-2.735-.757-6.007-2.316-10.054-.644-1.672-2.708-7.128-4.587-12.124a3119.71 3119.71 0 00-4.85-12.824c-1.533-4-1.683-4.946-.995-6.265.27-.517.438-1.65.44-2.945.002-2.345.692-3.26 1.838-3.08zm-27.896 3.5c.113.825.04.619 1.763 5.042 1.12 2.876 3.478 6.538 5.617 8.722 2.533 2.59 1.17 4.707-3.374 5.241l-1.588.187-1.04-1.28c-4.028-4.958-7.392-13.443-5.33-13.443.955 0 2.265-1.3 3.076-3.052.454-.98.848-1.618.876-1.417zm113.831.44l8.939 4.216c8.19 3.863 22.091 10.711 25.642 12.631 6.073 3.285 13.098 7.195 15.68 8.728 6.605 3.923 9.201 5.499 16.41 9.956l11.137 6.883c7.866 4.859 12.217 8.614 13.783 11.895 2.86 5.991-3.571 10.821-14.37 10.794-6.788-.017-9.228-1.185-21.686-10.38-1.53-1.13-3.37-2.46-4.085-2.957-5.204-3.608-15.344-11.199-19.56-14.64-3.814-3.116-14.33-11.04-16.155-12.175-1.009-.627-5.424-3.665-9.81-6.75-4.387-3.086-8.9-6.114-10.028-6.728-7.65-4.168-10.288-8.305-5.313-8.333 3.904-.022 6.918-.846 8.537-2.333zM36.464 45.423c.218.011.41.177.546.531.263.686.443 3.855.27 4.766-.076.403-.396 1.98-.71 3.504-.315 1.524-.572 3.118-.572 3.543 0 2.175-4.248 6.386-6.965 6.904-1.909.365-3.875-1.245-3.877-3.175-.001-.846.118-.906 2.445-1.219 2.614-.351 4.713-2.318 5.563-5.212.446-1.519.648-2.45 1.389-6.396.357-1.908 1.255-3.277 1.91-3.246zm26.203 2.29l.021.844c.099 3.81 2.985 10.486 5.713 13.214 2.003 2.003-3.104 5.842-5.718 4.298-2.517-1.487-6.508-12.93-5.298-15.19.55-1.028 3.064-2.806 4.234-2.996zm28.948 1.758c.757.017 1.154 1.236 2.556 4.766 5.849 14.725 8.981 23.272 10.312 28.134 2.07 7.568-1.94 16.152-7.59 16.242-2.333.038-2.418-.174-2.445-6.065l-.023-5.049-1.06-4.542a449.12 449.12 0 01-1.958-8.88c-1.25-6.018-1.654-7.63-3.183-12.66-2.052-6.752-1.773-9.015 1.344-10.919 1.008-.616 1.593-1.038 2.047-1.027zm35.02 3.99c2.286-.298 12.101 10.735 13.392 15.384.343 1.235.342 1.33-.03 2.62-.487 1.688-1.669 2.164-5.09 2.047-4.217-.144-4.67-.535-5.733-4.938-.759-3.145-1.815-5.815-3.682-9.314l-1.62-3.035.98-.921c.539-.507 1.183-1.238 1.431-1.626a.47.47 0 01.352-.216zm44.796.49c3.766.013 14.499 7.322 39.232 26.455 1.208.936 2.725 2.053 3.37 2.483.644.43 2.425 1.725 3.956 2.875 9.488 7.13 20.53 15.129 27.07 19.61 4.198 2.876 5.678 4.654 6.903 8.29 2.593 7.696-8.343 13.162-19.532 9.762-2.552-.775-7.582-5.215-21.474-18.949-6.045-5.975-12.111-11.903-13.481-13.171a396.726 396.726 0 01-5.82-5.548c-1.831-1.782-3.481-3.373-3.666-3.534-.186-.16-1.985-1.82-3.998-3.685a307.932 307.932 0 00-7.91-7.011 764.802 764.802 0 01-7.62-6.586c-1.853-1.632-4.204-3.602-5.223-4.379-2.013-1.533-2.569-2.376-2.292-3.477l.178-.71 2.716.03c3.224.034 4.902-.498 6.384-2.026.274-.283.67-.43 1.207-.429zm-116.41 1.849c.82-.094 1.207.969 2.09 4.375.345 1.328 1.01 3.244 1.479 4.259 1.229 2.66.52 3.85-2.44 4.095-4.234.352-6.216-1.924-7.117-8.172l-.195-1.352.85-.606c.467-.333 1.436-.837 2.152-1.12.716-.284 1.698-.754 2.181-1.045.405-.244.727-.403 1-.434zm28.184 1.384c.433-.04.872.03 1.306.228 1.452.662 6.257 19.983 6.726 27.047.325 4.893.347 6.315.144 9.198-.3 4.292-.922 6.165-2.553 7.69l-1.333 1.245h-1.58c-1.866 0-3.19-.504-4.2-1.598l-.732-.793-.196-7.377c-.362-13.64-.947-20.466-2.149-25.105-1.197-4.62 1.537-10.258 4.567-10.535zm-36.11 3.147l.297 1.129c.718 2.733 1.141 4.917 1.015 5.246-.075.195.465.965 1.2 1.71.736.746 1.337 1.415 1.337 1.487 0 .2-1.93 1.625-2.202 1.625-.134 0-.476.21-.76.468-2.168 1.961-5.84-1.405-7.13-6.536-.963-3.827-.691-4.362 2.326-4.576 1.128-.08 2.471-.237 2.984-.35zm113.213.539c.574.116 1.348.73 3.086 2.123 3.863 3.098 16.253 13.962 20.453 17.935a1443.43 1443.43 0 005.316 4.989c7.176 6.701 20.466 19.551 25.31 24.47 5.307 5.391 9.866 9.825 13.229 12.866 2.22 2.008 3.472 3.763 4.165 5.84 2.987 8.953-13.886 14.541-24.286 8.044-1.978-1.235-6.161-5.493-11.053-11.247-.411-.483-1.707-2-2.879-3.37-3.28-3.832-8.564-10.483-12.573-15.825-4.725-6.295-7.063-9.188-11.61-14.36-2.054-2.337-5.937-6.887-8.63-10.11-2.692-3.224-5.671-6.723-6.62-7.775-4.476-4.96-4.777-5.491-3.784-6.671.385-.458.79-1.193.901-1.632.343-1.366 1.716-2.427 4.22-3.26 1.286-.429 2.825-1.11 3.421-1.514.322-.218.566-.38.799-.463a.967.967 0 01.535-.04zM37.065 62.528c1.082-.173 1.66.56 2.179 2.297 1.32 4.42-.1 6.812-5.297 8.924-2.622 1.065-3.88.342-5.59-3.21-1.564-3.25-1.475-4.286.37-4.286 1.254 0 3.502-.96 5.752-2.455 1.107-.736 1.937-1.166 2.586-1.27zm-13.96 1.091c.177-.05.493.376 1.078 1.24 1.301 1.922 2.143 3.837 2.143 4.878 0 .94 1.333 3.732 2.186 4.578 1.787 1.773 1.982 2.112 1.612 2.804-.529.987-4.766 6.85-5.033 6.963a.406.406 0 00-.23.342c0 1.155-5.88 7.696-8.206 9.129-4.716 2.906-6.574 1.553-6.5-4.734 2.158-4.748 7.1-9.035 8.503-14.027.054-.382.325-.753.602-.826.278-.072.658-.486.845-.918.186-.433.792-1.409 1.346-2.17 1.026-1.407 1.307-2.536 1.404-5.65.032-1.035.072-1.56.25-1.609zm51.81.215c1.37-.065 1.535.953 1.97 4.764.1.886.366 2.667.59 3.956.48 2.77.965 7.866 1.158 12.162.615 13.642.503 15.603-1.062 18.698-2.878 5.696-7.126 7.153-9.345 3.204l-.664-1.18.373-4.28c.644-7.4.787-13.94.514-23.551l-.264-9.307.625-1.292c.783-1.618 1.527-2.107 4.277-2.81.78-.2 1.37-.342 1.827-.364zM63.18 68.569c3.148.049 3.147.048 3.412 3.762.588 8.241.341 27.272-.405 31.206-.483 2.549-1.753 4.788-4.062 7.163-3.762 3.869-8.437-.726-6.963-6.843.264-1.098.878-4.568 1.364-7.711.486-3.143 1.165-7.495 1.51-9.671.494-3.127.62-5.181.603-9.797-.03-7.963.09-8.179 4.54-8.11zm81.315.615c2.761 0 4 1.233 16.49 16.413 1.126 1.369 3.566 4.249 5.42 6.399 6.384 7.397 7.775 9.05 9.382 11.153.887 1.16 2.038 2.662 2.559 3.34.52.678 2.216 2.947 3.767 5.042 4.423 5.976 12.216 15.107 18.133 21.247 3.55 3.684 5.39 5.86 6.302 7.456 2.916 5.096 1.27 9.585-4.672 12.734-8.35 4.425-16.585 1.497-21.048-7.483-1.11-2.234-3.58-6.699-5.489-9.923a1445.932 1445.932 0 01-6.6-11.282 578.933 578.933 0 00-7.015-11.723c-4.537-7.36-3.852-6.204-8.915-15.036-2.2-3.838-5.618-9.509-7.596-12.602-5.313-8.308-5.472-8.571-5.472-9.01 0-.221.545-.958 1.213-1.638 1.047-1.067 1.232-1.45 1.35-2.796.16-1.823.608-2.291 2.19-2.291zM54.56 70.649c1.54 0 1.781.25 2.21 2.286.616 2.925.353 9.626-.595 15.151a472.976 472.976 0 00-1.403 8.5c-.758 4.831-2.301 10.706-3.08 11.727-.412.54-.749 1.1-.749 1.243 0 .346-1.134 1.333-2.051 1.784-.403.199-1.063.557-1.466.796-2.148 1.277-4.404-1.065-5.109-5.305-.257-1.546-.03-2.417 2.405-9.22 3.786-10.58 4.748-14.035 5.594-20.114.792-5.684 1.513-6.848 4.244-6.848zm-13.483.576l.654.614c1.11 1.044-.11 5.853-1.93 7.602-.084.08-.327.542-.54 1.026-.427.973-.576 1.22-4.777 7.913-1.619 2.578-3.177 4.952-3.462 5.275-.286.322-1.157 1.509-1.936 2.637-.78 1.128-2.01 2.645-2.733 3.37-.723.726-1.345 1.498-1.382 1.717-.038.219-.341.689-.675 1.045-.334.355-.608.789-.608.962 0 .3-.687.733-1.318.83-.162.025-.53.148-.82.273-2.618 1.135-4.678-1.334-4.721-5.658l-.028-2.736.773-.634c.424-.349 1.385-1.118 2.135-1.709 2.144-1.691 6.053-6.84 10.134-13.353l2.49-3.975 2.938-1.495c1.616-.822 3.584-1.992 4.372-2.6zm7.999 2.668l.02 1.236c.06 3.882-4.347 19.111-7.394 25.552-.413.873-.809 1.89-.88 2.261-.072.371-.263.72-.426.773-.163.055-.303.253-.312.441-.043.925-2.84 4.425-4.087 5.114-6.508 3.595-9.974-5.448-4.889-12.755 6.445-9.26 7.824-11.481 10.833-17.444 2.538-5.03 2.24-4.75 5.358-5.022zm80.261.28l1.875.912c1.256.612 2.483.963 3.721 1.062 2.27.182 2.053-.044 6.282 6.518 6.14 9.527 8.609 13.632 12.597 20.954 1.806 3.314 4.216 7.33 7.125 11.869 3.939 6.146 4.758 7.486 7.072 11.576 1.094 1.934 3.711 6.418 5.816 9.964 4.255 7.168 8.174 14.672 8.847 16.938.985 3.313-1.225 6.284-6.885 9.253-9.771 5.127-19.908-2.472-24.496-18.365-1.583-5.482-8.783-27.08-15.896-47.683-3.515-10.18-3.864-11.079-6.107-15.727-2.113-4.38-2.153-4.714-.768-6.323zm-4.152 4.592l.575.705c.316.387 1.472 2.55 2.568 4.807 2.018 4.154 3.237 7.527 11.597 32.09 8.764 25.75 10.707 31.896 12.381 39.156.488 2.113 1.162 4.553 1.498 5.422 2.533 6.55 1.459 8.54-6.342 11.753-13.374 5.506-17.764 2.281-19.436-14.277-.864-8.56-2.19-18.092-3.385-24.324-3.945-20.568-5.653-28.372-8.322-38.023-1.498-5.413-1.505-5.216.25-6.307 1.812-1.127 2.802-2.61 3.582-5.367.749-2.645 1.548-3.738 3.519-4.81zM107.07 91.726c.32.068 1.681.135 3.025.15 2.944.032 2.935.023 4.137 3.97 4.042 13.273 10.635 47.27 11.738 60.524.188 2.256.6 6.279.915 8.938.315 2.66.641 6.154.725 7.766l.152 2.93-.704 1.466c-2.484 5.164-10.83 7.651-17.782 5.3-5.342-1.808-5.335-1.778-5.725-26.84-.1-6.528-.305-14.506-.453-17.73a321.373 321.373 0 01-.276-11.898c-.005-5.556-.774-17.563-1.46-22.83-.427-3.278-.412-3.349 1.046-5.033.743-.858 1.965-2.748 2.716-4.198 1.12-2.166 1.469-2.616 1.946-2.515zm-98.676.17l.204 1.087c.63 3.334 1.325 4.015 4.116 4.032.975.006 1.931.168 2.125.361.634.635.03 4.239-.827 4.924-.177.141-.644 1.24-.593 1.395.15.46-3.59 6.178-6.213 9.5l-2.103 2.661-.247-.843c-1.449-4.945.061-16.525 2.842-21.798zm84.446 7.359l1.145.643c.8.45 1.64.644 2.783.644 2.944 0 3.772 5.4 4.132 26.961.223 13.361.442 22.597.595 25.057.07 1.128.197 4.491.283 7.473.085 2.982.23 8.587.32 12.455l.166 7.034-.714 1.489c-2.416 5.045-10.27 7.28-15.899 4.525-4.826-2.362-5.727-4.999-4.558-13.34.158-1.13.497-4.756.752-8.06.578-7.48.845-10.381 1.749-19.05 1.067-10.234 1.291-13.446 1.773-25.349.622-15.357.471-14.555 2.967-15.66 1.097-.484 2.444-1.877 4.089-4.225zm-11.885 4.496c.887-.09 1.727.543 2.551 1.894.502.822.873 7.334.445 7.816-.06.067-.186 3.485-.281 7.595-.096 4.11-.301 8.66-.457 10.11-.155 1.451-.429 4.287-.609 6.301-.179 2.015-.45 4.785-.6 6.155l-.595 5.421c-.177 1.612-.38 3.392-.45 3.957-.07.564-.188 2.212-.26 3.663-.157 3.174-.48 7.4-.627 8.198-.059.317-.382 2.955-.719 5.86-.336 2.907-.738 5.811-.89 6.456-.154.645-.329 1.6-.389 2.122-.614 5.318-9.197 7.512-16.62 4.248a76.55 76.55 0 00-2.237-.94c-2.468-.972-2.774-2.327-1.361-6.022 3.057-7.994 6.023-21.006 8.916-39.118 1.905-11.92 4.412-26.214 4.631-26.4.111-.093.795-.335 1.52-.536 2.11-.586 3.478-1.73 5.2-4.345 1.012-1.535 1.945-2.346 2.832-2.435zm-54.366.351c.309.163.426.87.729 2.323.22 1.06.654 2.51.964 3.223.767 1.77.59 2.29-2.539 7.452-.586.967-1.152 1.989-1.257 2.27-.106.283-.328.514-.494.514-.167 0-.303.148-.303.33 0 .292-4.554 7.457-5.938 9.34-.296.404-1.182 1.722-1.97 2.931a340.06 340.06 0 01-3.208 4.809c-.978 1.436-1.778 2.71-1.778 2.831 0 .122-1.022 1.288-2.272 2.593l-2.27 2.371H5.138c-1.446-.002-2.414-1.005-2.622-2.713-.287-2.367-.26-7.27.05-8.797.357-1.773 1.844-9.674 2.378-12.642l.365-2.024 2.472-3.398a890.65 890.65 0 005.014-6.977c2.91-4.1 2.977-4.15 4.297-3.142 2.3 1.753 4.716 1.645 7.616-.34 1.07-.732 1.57-1.116 1.88-.953zm39.923 4.047l.902.52c.496.285 1.147.914 1.446 1.397.815 1.316.72 2.192-1.619 14.946-.384 2.096-.86 4.8-1.057 6.008-.197 1.209-.471 2.594-.61 3.077-.137.484-.404 1.802-.591 2.93a141.554 141.554 0 01-.57 3.224c-.127.645-.5 2.755-.828 4.69-1.842 10.868-2.783 15.538-3.836 19.048-.29.967-.949 3.407-1.463 5.422-1.554 6.082-2.534 7.806-5.233 9.202-11.758 6.08-19.195-.183-13.71-11.545 5.44-11.269 8.756-20.66 13.042-36.927 4.007-15.21 4.297-15.849 7.343-16.21 2.415-.286 3.652-1.278 6.253-5.018zm-26.057.123c.289-.002.451.403.82 1.211.331.728.565 1.75.52 2.272-.305 3.52-.442 4.01-1.941 6.956-.862 1.693-1.834 3.54-2.161 4.103-.328.564-1.256 2.279-2.064 3.81-1.757 3.334-1.782 3.376-5.076 8.938-1.432 2.418-2.685 4.462-2.785 4.543-.1.08-.353.476-.562.88-1.897 3.643-10.207 14.948-11.035 15.011-.238.018-.93.88-1.86 2.317-.241.374-.896 1.144-1.455 1.713-.558.568-.987 1.132-.952 1.253.035.12-.065.22-.22.22-.156 0-1.112.841-2.125 1.87-5.596 5.687-10.164-4.244-7.229-15.718.31-1.21.363-1.236 1.652-.787 3.41 1.189 9.53-6.322 21.747-26.687 4.695-7.826 4.982-8.13 7.744-8.185 1.888-.038 3.647-.85 5.403-2.491.874-.818 1.29-1.227 1.579-1.229zm12.785 1.866c.308-.073.579.17.954.697.906 1.273.949 3.908.106 6.558-.359 1.128-1.08 3.634-1.604 5.568-2.555 9.435-4.968 17.755-5.27 18.17-.117.16-.282.834-.366 1.496-.083.663-.35 1.652-.591 2.198-.242.547-.673 1.786-.96 2.753-.286.967-.616 1.956-.732 2.198a29.57 29.57 0 00-1.277 3.077c-.228.645-.649 1.7-.936 2.345a32.372 32.372 0 00-.567 1.318c-.024.08-.264.637-.531 1.236-.268.6-.486 1.168-.486 1.262 0 1.725-6.141 12.628-6.94 12.322-.23-.088-.34-.036-.246.116.484.783-5.307 3.527-7.445 3.527-4.801 0-8.958-4.768-8.942-10.257.016-5.43 1.286-8.216 8.416-18.463 2.138-3.072 5.68-8.788 7.539-12.162l1.694-3.077c.4-.725.826-1.45.947-1.612.557-.746 5.833-11 6.295-12.235.863-2.31 1.544-2.78 4.211-2.9 2.613-.12 4.125-.918 5.553-2.932.524-.74.87-1.13 1.178-1.203z"
        fill="#2a3537" />
    <g fill="#247cb0">
        <path
            d="M303.163 22.55c-.303-.116-11.502-1.886-24.918-3.938-1.867-.286-5.096-.62-7.175-.744-3.552-.21-4.018-.332-7.679-2.01-6.192-2.839-11.499-3.926-24.085-4.935-7.224-.58-24.175-1.388-38.206-1.823-10.958-.339-13.085-.495-15.246-1.122-1.381-.4-2.643-.852-2.804-1.004-.437-.414 2.53-1.061 6.668-1.455 12.805-1.217 61.357-1.74 86.18-.927 35.57 1.165 51.48 3.813 51.48 8.569 0 2.463-2.906 4.048-13.285 7.246-6.814 2.099-9.61 2.647-10.93 2.143z" />
        <path
            d="M293.297 43.7c-.493-.084-2.105-.33-3.58-.549-4.913-.727-8.028-1.773-13.819-4.64-9.581-4.743-20.925-8.108-41.076-12.185-13.216-2.674-25.766-4.787-33.004-5.556-3.058-.325-6.08-.751-6.714-.947-.635-.196-1.963-1.083-2.952-1.972l-1.797-1.617.687-.96c.378-.529.862-1.636 1.075-2.46.385-1.49.402-1.502 2.392-1.751 3.206-.4 30.47.714 44.977 1.84 12.209.946 16.515 1.891 23.483 5.153 3.305 1.548 3.947 1.722 7.028 1.907 3.136.189 12.717 1.538 26.095 3.673 7.725 1.234 29.662 6.168 31.883 7.171 3.147 1.422 3.73 3.472 1.802 6.336-1.089 1.616-2.86 2.529-7.78 4.012-6.82 2.054-9.948 2.473-19.372 2.59-4.637.059-8.835.038-9.328-.045z" />
        <path
            d="M289.204 66.153c-6.446-.505-8.102-.949-17.355-4.647-8.458-3.38-32.928-12.892-39-15.16-16.504-6.164-29.497-10.602-35.336-12.07l-6.637-1.667-.717-1.45c-.395-.797-.994-1.832-1.33-2.3-.338-.468-.528-.99-.423-1.16.105-.17 1.128-.781 2.274-1.36 1.202-.607 2.568-1.664 3.232-2.503 1.131-1.428 1.188-1.451 3.467-1.451 4.381 0 21.07 2.59 34.826 5.405 18.967 3.881 33.622 8.13 41.361 11.992 8.127 4.055 22.72 8.764 36.054 11.634 8.917 1.919 12.979 3.392 15.157 5.498 2.229 2.154 1.206 4.31-2.94 6.194-1.392.633-3.26 1.328-4.15 1.543-5.531 1.337-20.503 2.127-28.483 1.502zM276.078 89.434c-6.924-.776-8.923-1.713-25.292-11.858-12.194-7.557-16.512-10.12-23.318-13.841-8.475-4.634-22.714-11.909-32.592-16.651-10.695-5.135-13.327-6.61-13.327-7.472 0-.304 1.107-.89 2.806-1.486 1.543-.542 3.158-1.236 3.587-1.544.43-.308 1.16-.833 1.62-1.166.749-.54 1.135-.557 3.588-.163 5.678.911 14.654 3.86 33.242 10.923 38.75 14.722 43.871 16.788 53.811 21.705 4.538 2.245 9.623 4.65 11.3 5.345 9.128 3.78 12.193 6.228 12.196 9.739.003 3.032-3.373 5.183-9.927 6.326-3.364.587-13.036.665-17.694.143z" />
        <path
            d="M255.988 108.243c-1.798-.286-5.219-1.677-7.534-3.064-4.2-2.515-25.163-17.807-34.08-24.859-9.61-7.6-30.734-22.549-37.31-26.403-3.452-2.024-6.098-4.53-6.098-5.778 0-1.053.559-1.36 2.475-1.36 3.29 0 6.873-1.079 8.494-2.557.738-.674.83-.64 9.686 3.579 25.532 12.163 35.357 17.525 60.42 32.979 12.847 7.92 15.925 10.04 18.846 12.975 2.868 2.883 3.752 4.452 3.752 6.656 0 3.982-3.452 6.619-10.073 7.693-2.22.36-6.726.433-8.578.139zM233.7 123.606c-3.916-1.022-4.497-1.528-28.295-24.645-9.175-8.912-18.134-17.543-19.91-19.18-3.708-3.42-17.75-15.64-21.629-18.825-4.016-3.297-3.98-4.49.137-4.49 2.79 0 4.504-.502 6.153-1.799 1.223-.962 2.271-.743 6.098 1.271 5.104 2.688 12.875 8.136 27.358 19.184 10.038 7.658 27.787 20.73 36.553 26.92 8.006 5.655 10.407 7.942 11.364 10.822 1.458 4.39.177 7.43-4.047 9.606-3.601 1.856-9.24 2.32-13.782 1.136zM212.696 139.146a27.954 27.954 0 01-3.588-1.29c-3.498-1.598-14.51-13.706-25.41-27.938-8.132-10.62-10.116-13.014-28.947-34.944-2.526-2.94-4.592-5.635-4.592-5.988 0-.741 1.232-3.01 2.264-4.168.39-.437 1.936-1.301 3.437-1.92s2.883-1.27 3.07-1.447c1.165-1.101 2.807.043 13.6 9.482 11.182 9.777 21.883 19.885 42.908 40.524 15.7 15.414 16.514 16.383 16.514 19.685 0 2.123-.604 3.399-2.323 4.909-2.822 2.477-6.636 3.655-11.72 3.619-1.846-.013-4.192-.25-5.213-.524zM190.282 154.281c-4.49-1.674-6.778-4.143-11.025-11.897-3.566-6.51-11.105-19.412-17.085-29.238-2.221-3.65-6.206-10.35-8.855-14.887-2.648-4.538-6.595-11.077-8.77-14.53-5.376-8.532-5.008-7.62-3.68-9.133.695-.791 1.276-1.987 1.535-3.156l.416-1.88 1.556-.113c2.722-.196 3.162.225 14.95 14.283 3.721 4.439 8.749 10.389 11.171 13.221 2.423 2.833 6.852 8.381 9.842 12.33 6.05 7.992 11.195 14.18 17.039 20.496 9.417 10.177 10.316 11.496 10.344 15.177.015 1.899-.137 2.43-1.073 3.762-1.374 1.955-3.84 3.822-6.518 4.935-2.561 1.065-7.784 1.4-9.847.63zM166.799 164.299c-1.01-.245-2.604-.896-3.543-1.446-5.573-3.266-9.157-9.164-12.875-21.189-5.305-17.157-17.659-52.909-20.205-58.473-2.702-5.905-2.76-6.142-1.863-7.593.868-1.405.98-1.423 2.871-.458.795.405 2.282.834 3.304.952 1.465.17 2.087.456 2.935 1.35 1.882 1.986 9.986 14.947 15.596 24.942 1.827 3.256 5.296 9.067 7.708 12.915 10.904 17.394 22.077 37.562 22.077 39.85 0 1.738-.858 3.295-2.757 5.003-2.239 2.012-4.76 3.395-7.48 4.103-2.461.642-3.28.648-5.768.044z" />
    </g>
    <g fill="#309b3f">
        <path
            d="M135.09 174.596c-.418-.151-1.51-.984-2.424-1.85-2.376-2.246-3.467-6.33-4.958-18.555-2.091-17.14-5.864-37.105-10.207-54.015l-2.331-9.075 1.858-1.579c1.111-.944 2.317-2.7 2.998-4.369.626-1.534 1.361-3.146 1.633-3.582.537-.86 2.765-2.506 3.392-2.506.614 0 4.414 7.878 6.356 13.18 4.29 11.71 16.961 49.677 18.886 56.59 1.164 4.18 2.672 9.46 3.35 11.732 1.509 5.056 1.534 6.257.167 7.994-2.794 3.552-14.85 7.439-18.72 6.035zM111.499 183.274c-3.437-.844-5.403-1.923-6.155-3.378-.972-1.88-1.43-10.794-2.225-43.248-.3-12.277-.858-25.405-1.239-29.172l-.692-6.849 1.657-2.536c.911-1.396 2.181-3.42 2.823-4.498 1.139-1.915 1.22-1.954 3.443-1.649 1.252.172 2.592.312 2.979.312.93 0 1.427 1.378 3.749 10.4 4.428 17.213 8.478 39.824 10.393 58.028 1.678 15.947 1.683 15.812-.654 18.407-1.047 1.162-2.88 2.546-4.075 3.076-2.133.947-8.008 1.597-10.004 1.107zM87.285 186.044c-1.04-.293-2.866-1.398-4.059-2.456l-2.167-1.923v-3.99c0-3.981.222-6.698 2.548-31.134.678-7.115 1.467-18.074 1.754-24.352.731-16.02.812-16.594 2.458-17.586.746-.45 2.168-1.706 3.159-2.791l1.802-1.974 2.67.616c1.469.339 2.862.974 3.096 1.412 1.077 2.013 1.616 8.092 2.05 23.113.258 8.93.726 24.823 1.041 35.32.622 20.748.639 20.565-2.14 23.092-2.937 2.672-8.134 3.8-12.212 2.653zM65.325 184.583c-2.984-.593-7.65-2.78-8.027-3.76-.18-.468.457-3.293 1.415-6.278 2.137-6.659 3.85-13.505 5.547-22.17 1.227-6.258 6.906-39.475 6.906-40.39 0-.236 1.08-.948 2.402-1.582 1.456-.697 3.078-2.05 4.117-3.434.943-1.256 2.035-2.468 2.428-2.694 1.149-.664 2.565.077 3.233 1.69.841 2.03.254 19.795-1.089 32.966-.555 5.442-1.321 13.66-1.703 18.265-.844 10.165-2.137 20.474-2.845 22.686-.723 2.258-2.994 4.01-6.046 4.665-2.867.615-3.414.618-6.338.036zM42.725 180.558c-2.46-.744-3.61-1.634-4.326-3.347-1.491-3.57-1.264-4.44 4.994-19.053 2.894-6.758 5.575-15.01 9.296-28.612 3.618-13.23 4.267-14.837 6.149-15.236 2.797-.592 4.622-1.72 6.054-3.742.8-1.13 1.625-2.06 1.834-2.066.895-.026 2.41 2.13 2.41 3.43 0 .776-.668 5.17-1.484 9.766-2.523 14.197-5.108 28.403-6.185 33.976-1.326 6.868-4.74 18.894-5.838 20.571-1.769 2.7-9.593 5.315-12.904 4.313zM23.49 174.149c-3.99-1.731-5.795-4.905-5.774-10.157.018-4.49 1.423-7.696 6.87-15.675 4.841-7.09 11.704-18.797 15.698-26.778 1.707-3.41 3.333-6.345 3.613-6.523.28-.178 1.631-.472 3.002-.654 1.878-.25 2.993-.783 4.524-2.165 2.468-2.23 3.29-1.773 3.181 1.774-.103 3.389-8.258 31.314-11.638 39.856-3.736 9.438-7.105 15.794-9.425 17.78-1.792 1.534-5.956 3.374-7.529 3.328-.418-.012-1.553-.366-2.521-.786zM4.817 164.465c-.356-.143-1.153-1.21-1.77-2.37-.944-1.77-1.125-2.924-1.129-7.183-.006-6.957.292-7.863 2.59-7.863 3.5 0 9.643-7.637 20.697-25.73 4.532-7.417 6.176-9.277 8.2-9.277 1.774 0 3.869-.932 5.421-2.413 1.903-1.815 2.682-.979 2.591 2.782-.073 3.037-2.078 7.547-7.864 17.684-8.336 14.607-14.572 23.328-22.55 31.535-2.998 3.085-4.197 3.635-6.186 2.835z" />
        <path
            d="M3.514 144.092c-1.355-1.498-1.107-9.07.586-17.873l1.42-7.385 4.733-6.567c2.603-3.611 4.89-6.743 5.083-6.958.192-.216 1.38.064 2.641.622 2.496 1.104 4.174.914 6.729-.76 1.657-1.085 1.898-.837 3.064 3.153l.915 3.13-2.157 3.932c-1.187 2.162-2.358 4.178-2.603 4.48-.245.3-3.431 5.113-7.082 10.694-6.655 10.175-10.11 14.46-11.658 14.46-.457 0-1.209-.418-1.67-.928zM4.957 114.578c-.506-.818-.333-9.583.25-12.685 1.156-6.149 3.556-11.29 3.556-7.614 0 1.382 2.396 3.05 4.38 3.05 1.566 0 1.708.13 1.708 1.551 0 2.063-2.446 6.89-5.971 11.787-3.16 4.389-3.45 4.677-3.923 3.91z" />
    </g>
    <g fill="#ffc707">
        <path
            d="M184.598 13.893c-6.078-1.706-9.059-1.986-23.677-2.225l-13.811-.225 1.144-.817c4.332-3.09 22.313-3.651 35.268-1.101 2.294.451 6.457 2.378 6.457 2.989 0 .4-1.223 1.674-1.973 2.053-.197.1-1.73-.204-3.408-.674zM180.652 23.968c-9.34-3.844-23.523-6.606-33.92-6.606-2.85 0-5.183-.096-5.183-.214 0-.117.322-.665.715-1.217.615-.864 1.155-1.085 3.857-1.577 4.536-.826 13.303-1.41 17.67-1.177 2.072.111 6.656.626 10.187 1.144 9.842 1.445 14.722 3.104 17.102 5.815 1.65 1.878 1.258 3.299-1.22 4.424-2.448 1.111-5.555.912-9.208-.592z" />
        <path
            d="M165.564 42.04c-3.833-3.553-6.816-5.616-12.879-8.905-10.8-5.86-17.364-8.464-22.288-8.844-3.399-.262-3.44-.22 2.595-2.63 2.638-1.054 4.38-1.568 4.677-1.38.76.481 2.253.357 3.747-.313 2.162-.97 9.953-.78 16.801.411 12.65 2.2 24.945 6.315 28.461 9.526 2.297 2.097 1.199 4.419-2.649 5.604-4.115 1.267-4.751 1.109-14.14-3.527-13.904-6.865-23.32-10.242-29.496-10.579-2.917-.159-3.643-.088-4.433.43-.57.373-.815.748-.617.946.18.18 2.094.495 4.253.699 6.784.64 10.747 1.815 19.498 5.778 13.543 6.133 16.537 7.816 19.364 10.883 2.478 2.688 1.597 3.32-5.899 4.228l-3.967.48z" />
        <path
            d="M151.709 60.668c-.43-.24-2.87-2.619-5.424-5.287-6.95-7.261-16.755-15.471-24.415-20.442-3.452-2.24-3.59-2.38-3.614-3.648-.023-1.179-.157-1.36-1.28-1.732-1.668-.55-1.585-.932.265-1.227.836-.134 2.99-.94 4.786-1.79 3.088-1.463 3.319-1.518 4.267-1.021.552.289 3.12.893 5.707 1.343 6.522 1.134 6.729 1.223 19.234 8.315 6.463 3.666 9.092 5.497 13.785 9.605 4.115 3.602 5.527 6.704 3.773 8.291-1.173 1.062-4.682 1.13-7.334.142-1.891-.704-2.739-1.396-6.995-5.713-5.506-5.583-8.182-7.871-12.612-10.784-3.823-2.514-10.255-5.826-12.732-6.556-3.055-.9-5.654-1.113-6.16-.505-.607.732-.108 1.03 3.342 1.993 3.804 1.062 12.19 5.202 15.845 7.824 7.227 5.183 13.416 11.447 15.568 15.757 1.388 2.779 1.127 3.69-1.432 4.986-1.953.99-3.356 1.127-4.574.449z" />
    </g>
    <path
        d="M11.617 94.53c-.725-.508-1.332-2.588-1.332-4.562 0-1.494.07-1.667 1.59-3.95.874-1.312 2.179-3.186 2.9-4.162 1.752-2.376 3.015-4.51 3.61-6.1.27-.72.812-1.653 1.205-2.072.393-.42 1.193-1.552 1.778-2.518 1.108-1.828 1.584-3.694 1.609-6.306l.012-1.269.763.888c.997 1.16 2.233 3.68 2.43 4.953.252 1.637 1.479 4.065 2.726 5.399.64.683 1.163 1.467 1.163 1.74 0 .507-2.011 3.6-4.14 6.368-.653.848-1.187 1.628-1.187 1.734 0 .47-2.97 3.992-5.26 6.24-3.493 3.427-6.297 4.716-7.867 3.617zM18.672 104.012c-1.085-1.01-1.614-2.668-1.729-5.414l-.106-2.537 2.042-1.596c1.255-.981 2.844-2.592 4.127-4.185 1.896-2.354 7.31-10.283 8.653-12.672.448-.798 1.057-1.247 3.348-2.47 1.54-.824 3.54-2.012 4.443-2.641 1.527-1.065 1.673-1.117 2.093-.737.923.836.243 4.911-1.126 6.742-.336.45-1.036 1.599-1.555 2.554-2.864 5.267-9.954 15.784-12.338 18.303-.895.945-1.98 2.462-2.734 3.817-.37.665-2.244 1.383-3.61 1.383-.593 0-1.13-.195-1.508-.547zM31.06 109.315c-.484-.32-1.14-1.127-1.496-1.84-.553-1.105-.633-1.592-.623-3.804.016-3.488.42-4.386 5.073-11.28 3.78-5.6 6.02-9.362 8.734-14.672.736-1.44 1.615-2.796 1.955-3.02.365-.239 1.392-.454 2.506-.526l1.887-.12v.76c0 2.951-2.856 13.87-5.46 20.868-1.127 3.03-2.758 6.95-3.167 7.61-.13.209-.448.837-.709 1.395-.758 1.627-2.941 4.066-4.172 4.662-1.514.733-3.393.72-4.528-.033zM44.443 111.364a6.606 6.606 0 01-1.564-2.635c-.768-2.398-.617-3.793.88-8.102 4.79-13.783 5.47-16.133 6.591-22.763.773-4.568 1.35-6.282 2.282-6.78.27-.145 1.13-.263 1.914-.263 1.405 0 1.431.014 1.835.951.553 1.287.736 7.456.337 11.397-.438 4.337-2.66 17.235-3.538 20.53-1.254 4.713-2.098 6.185-4.327 7.54-.88.535-1.988 1.036-2.463 1.113-.773.126-.98.02-1.947-.988zM58.46 111.905c-1.154-.312-1.913-.98-2.646-2.326-1.007-1.85-.974-3.665.187-10.22 2.234-12.604 2.523-14.985 2.703-22.247.156-6.329.202-6.82.697-7.483.66-.886 2.228-1.22 4.55-.972 1.316.141 1.725.292 2.023.747 1.155 1.762 1.142 29.58-.017 34.59-.45 1.947-.988 3.028-2.523 5.07-1.78 2.368-3.37 3.276-4.974 2.841zM70.568 108.604c-.934-.271-1.591-.876-2.339-2.152l-.6-1.025.424-4.176c.34-3.36.426-7.044.436-18.888.012-13.455.05-14.781.452-15.515.63-1.15 1.557-1.791 3.428-2.37 2.207-.681 3.26-.665 3.645.056.4.745 1.866 10.978 2.284 15.927.182 2.162.336 7.65.341 12.193l.01 8.262-1.075 2.171c-2.019 4.076-4.7 6.189-7.006 5.517zM83.754 102.157c-.54-.193-1.356-.712-1.812-1.154l-.83-.804-.159-4.986c-.464-14.527-1.005-21.744-1.962-26.158-.729-3.359-.586-5.916.455-8.14 1.247-2.664 2.976-3.979 4.657-3.54.746.194 1.544 2.072 2.896 6.813 3.366 11.809 4.898 22.48 4.258 29.669-.372 4.186-.834 5.587-2.41 7.311-1.227 1.344-1.263 1.362-2.677 1.35-.788-.005-1.875-.168-2.416-.36zM94.965 97.9c-.21-.377-.373-2.415-.48-6.024-.158-5.31-.193-5.586-1.32-10.4a875.3 875.3 0 01-2.198-9.691c-.573-2.61-1.601-6.688-2.286-9.063-1.891-6.564-2.082-8.778-.91-10.568.521-.793 3.395-2.685 3.93-2.586.53.097 1.12 1.395 4.106 9.024 5.202 13.295 8.227 21.872 8.858 25.12.19.98.254 2.505.164 3.931-.233 3.684-1.4 6.582-3.532 8.768-1.414 1.45-2.743 2.047-4.565 2.054-1.244.005-1.495-.075-1.767-.565zM107.726 89.504c-.157-.188-.396-1.706-.532-3.373-.373-4.56-.128-3.825-9.795-29.389-1.636-4.325-3.026-8.38-3.089-9.011-.065-.657.06-1.735.293-2.52.224-.754.408-1.984.408-2.733 0-.749.174-1.698.387-2.11 2.32-4.485 14.722 12.674 20.545 28.424 3.124 8.45 3.378 14.204.782 17.721-.94 1.274-2.405 2.265-4.175 2.824-1.872.591-4.4.679-4.824.167z"
        fill="#ec5299" />
    <path
        d="M120.802 77.995c-.072-.116-.474-1.578-.893-3.249-2.14-8.54-7.286-19.062-15.128-30.94-2.665-4.038-3.732-5.28-6.053-7.051a4.925 4.925 0 01-1.942-3.956c0-2.058.88-2.525 2.858-1.516 4.94 2.52 13.887 12.618 20.423 23.05 3.405 5.435 6.308 11.452 6.9 14.302.863 4.157-1.624 8.623-5.234 9.4-.44.095-.859.077-.93-.04z"
        fill="#ec5299" />
    <path
        d="M144.148 66.636c-2.304-.797-3.603-1.925-6.544-5.687-2.574-3.292-4.487-5.46-7.91-8.968l-2.625-2.69-.59-1.794c-.88-2.668-2.28-5.262-4.302-7.965-.99-1.323-1.765-2.438-1.724-2.479.15-.15 2.052.932 4.154 2.364 7.593 5.17 19.047 15.578 23.054 20.946 2.261 3.03 2.344 5.443.217 6.35-.791.336-2.644.298-3.73-.077z"
        fill="#ffc707" />
    <g fill="#bd3c7b">
        <path
            d="M121.745 52.786c-.385-.414-1.331-1.744-2.102-2.956-4.489-7.057-7.542-11.077-11.143-14.674-3.416-3.411-7.284-5.856-10.773-6.808-1.858-.508-2.217-.671-2.318-1.057-.262-1.004 1.823-1.432 4.261-.873.58.133 2.01.446 3.178.696 1.488.318 2.546.656 3.53 1.127 6.206 2.979 15.213 12.307 17.574 18.203 1.207 3.015 1.205 5.25-.005 6.461-.868.868-1.305.844-2.202-.12zM132.706 73.292c-2.07-.362-2.478-.914-3.483-4.709-.894-3.377-1.457-4.81-3.425-8.715l-1.83-3.63 1.249-1.309c.687-.72 1.395-1.33 1.575-1.353 1.526-.2 7.48 5.813 11.009 11.115 2.112 3.174 2.699 5.055 2.12 6.796-.339 1.021-.952 1.561-2.036 1.794-.925.198-4.069.205-5.179.01z" />
    </g>
    <g fill="#ee7f03">
        <path
            d="M105.282 24.619c-2.524-.294-4.605-1.161-5.5-2.29-.696-.88-.955-1.55-.814-2.11.08-.322-.086-.762-.628-1.658-.876-1.45-.937-1.949-.259-2.12.726-.181 6.128.076 8.28.396 3.207.476 5.933 1.522 7.34 2.817.422.388.565 1.444.225 1.654-.099.061-.18.437-.18.836 0 1.321-1.35 2.098-4.304 2.478-1.533.197-2.45.196-4.16-.003z" />
        <path
            d="M115.973 22.609c.33-2.077.328-2.21-.073-3.142-1.405-3.267-6.905-5.328-13.286-4.98-2.444.134-3.576.017-3.576-.369 0-.433 2.16-.893 8.072-1.72 2.602-.363 11.99-.306 14.977.092 3.824.51 6.645 1.279 7.489 2.043 1.255 1.136-1.683 4.37-5.506 6.061-.921.408-7.817 2.777-8.082 2.777-.075 0-.082-.343-.015-.762z" />
        <path
            d="M132.042 17.121c0-.083.164-.627.364-1.208.213-.62.32-1.257.258-1.54-.572-2.602-8.567-4.428-19.545-4.465-4.059-.014-4.079-.08-.27-.89 10.22-2.173 21.623-3.225 26.24-2.42 1.684.294 3.612.935 5.182 1.724 1.136.57 1.293.737 1.145 1.205-.261.822-5.441 4.133-10.04 6.417-2.512 1.247-3.334 1.537-3.334 1.177z" />
    </g>
    <g fill="#de3720">
        <path
            d="M27.78 64.78c-.681-.174-1.042-.359-1.513-.772-.912-.8-1.474-2.185-1.211-2.982.245-.744.786-1.032 2.702-1.444.947-.203 1.853-.438 2.013-.52.915-.476 2.083-1.804 2.751-3.13.246-.487 1.668-4.529 1.659-4.712-.012-.218-.507.646-1.482 2.587-1.633 3.247-2.408 4.335-3.488 4.893-1.24.641-2.976-.093-3.688-1.561-1.286-2.653-1.231-2.469-1.231-4.143V51.46h1.395v.632c0 .52.066.706.37 1.047.333.372.44.413 1.046.407.515-.005.865-.107 1.47-.43 1.627-.868 2.317-2.03 3.007-5.061.676-2.97 1.338-3.917 2.015-2.884.341.52.59 1.63.59 2.634 0 .766.04.992.177.992.124 0 .283-.459.519-1.49.187-.82.382-1.662.432-1.872.084-.343.135-.376.529-.336 1.1.11 2.01.823 2.364 1.849.36 1.043.276 2.522-.326 5.736-1.001 5.356-1.686 7.298-3.246 9.213-1.703 2.09-4.827 3.405-6.855 2.884zM34.65 43.032a5.545 5.545 0 01-.834-.73c-.499-.553-1.424-2.33-1.86-3.572-.293-.832-.322-1.014-.171-1.1 1.453-.82 2.363-2.182 2.586-3.868.187-1.409.155-1.356.745-1.26 1.487.244 2.64 1.214 3.116 2.622.146.432.265.91.265 1.064 0 .307.218.432.755.432.574 0 2.705.584 3.378.926.827.419 1.086.73 1.153 1.384.093.917-.64 1.759-1.898 2.18-1.444.484-2.232.123-3.093-1.414-.244-.436-.465-.793-.492-.793-.027 0-.196.484-.376 1.074-.898 2.944-1.967 3.942-3.274 3.055zM38.139 60.433c-.557-.268-.834-1.043-.825-2.314.01-1.208.127-1.81.93-4.756.275-1.012.56-2.372.633-3.022.193-1.728.644-2.46 1.739-2.821.56-.185 1.639-.087 2.21.202.598.301 1.227.921 1.54 1.518.21.402.268.746.275 1.65.004.627-.036 1.398-.09 1.712-.064.38.068.117.397-.786.794-2.184 1.39-2.994 2.405-3.267.753-.203 1.374.035 2.14.821 1.433 1.469 1.37 3.521-.18 6.013-1.243 1.995-3.143 3.444-4.545 3.465-.902.014-1.142-.303-1.106-1.463.015-.503.166-1.514.335-2.247.17-.732.293-1.347.276-1.366-.018-.02-.162.323-.32.76-.96 2.651-2.745 5.002-4.373 5.76-.701.327-.996.355-1.441.141z" />
        <path
            d="M27.462 52.385c-.104-.038-.324-.19-.487-.339-.854-.773-.887-1.993-.072-2.683.29-.245.31-.367.437-2.537.206-3.548.592-5.548 1.328-6.876l.298-.538-.569-.698c-.312-.384-.613-.698-.667-.698-.055 0-.26.328-.458.729-.386.788-.47 1.651-.28 2.922.1.667.098.671-.286.805-.212.074-.385.2-.385.28 0 .08.146.68.324 1.33.179.65.307 1.234.286 1.297-.022.063-.321-.241-.666-.676-1.523-1.92-1.384-1.667-1.16-2.101.45-.868.218-1.764-.953-3.699l-.73-1.204.53-.133.53-.132.037-.787c.035-.721.016-.788-.221-.788-.247 0-.26-.073-.26-1.41V33.04l.602.084c.332.047.788.117 1.015.156.395.068.409.057.345-.292-.107-.587-.54-3.658-.519-3.684.011-.013.78.549 1.709 1.247.929.699 1.709 1.25 1.733 1.227.024-.024-.033-.414-.126-.867a19.247 19.247 0 01-.253-1.774c-.047-.523-.116-1.058-.153-1.188-.186-.65 2.852 1.593 3.9 2.881 1.362 1.674 1.827 3.332 1.28 4.568-.349.789-.92 1.06-1.785.844-1.027-.257-2.158-1.037-2.813-1.94l-.355-.49-.148.548c-.213.784-.07 2.14.36 3.402.32.945.406 1.083.69 1.117.264.031.348-.035.465-.372l.143-.41.368.352c.945.906 1.399 2.897 1.166 5.115-.185 1.77-1.182 6.196-1.603 7.116-.637 1.392-1.644 2.053-2.597 1.705zM48.54 34.623c-.328-.332-.806-1.002-1.06-1.49-.393-.753-1.753-4.003-1.753-4.187 0-.033.509-.316 1.131-.628l1.132-.569 1.563.284 1.564.284.15 1.52c.31 3.17.195 4.121-.593 4.91-.4.4-.565.478-1.007.478-.461 0-.603-.076-1.126-.602zM42.073 36.11c-1.227-.253-2.18-1.116-2.18-1.973 0-.58.19-1.025.769-1.792.274-.363.499-.692.499-.731 0-.04-.3.085-.666.276-.541.281-.837.347-1.574.35-.824.004-.953-.031-1.395-.382-.577-.459-1.023-1.286-1.136-2.11l-.081-.592.551-.149c.736-.198 2.22-.105 2.797.176.59.287 1.332 1.024 1.645 1.635.216.42.62.66.62.366 0-.185.759-1.077 1.118-1.314.992-.654 1.948.188 2.312 2.034.323 1.643-.174 3.395-1.113 3.92-.581.324-1.432.436-2.167.285zM48.18 41.69c-.97-.13-1.602-.451-2.289-1.159-1.67-1.722-1.358-4.376.64-5.436l.565-.3 1.06.9c.583.495 1.152 1.005 1.266 1.135.14.16.31.965.53 2.515.179 1.254.314 2.29.3 2.3-.118.1-1.451.13-2.071.045zM51.182 49.071c-.519-.519-.778-1.501-.872-3.298l-.08-1.564-.592.806c-.76 1.037-1.845 2.06-2.452 2.314-1.747.73-3.385-.424-3.4-2.396-.01-1.364.642-2.342 1.691-2.539.636-.118 3.27.49 5.01 1.158.074.028.328-.35.565-.84.237-.49.503-.891.591-.891.088 0 1.168.317 2.4.705 1.232.388 2.305.68 2.385.65.08-.03.254-.362.388-.737.133-.375.317-.863.409-1.084l.166-.403 1.62.699c.89.384 1.797.774 2.015.865l.397.167-.167.996c-.2 1.194-.318 1.598-.667 2.282-.638 1.252-1.469 1.814-2.686 1.818-1.427.004-1.986-.738-1.861-2.47.04-.558.112-1.2.158-1.427.069-.331.045-.412-.12-.412-.114 0-.207.025-.207.056 0 .31-.996 3.219-1.294 3.777-.959 1.8-2.541 2.624-3.397 1.768zM39.938 45.896c-.485-.304-1.008-1.329-1.195-2.344-.075-.408-.112-.766-.083-.795.09-.09 4.403-.344 4.483-.265.1.1-.53 1.96-.83 2.453-.589.965-1.665 1.396-2.374.951z" />
        <path
            d="M54.415 41.519c-1.724-.556-2.614-1.562-3.27-3.694-.58-1.885-.59-1.82.354-2.441.451-.297.921-.538 1.044-.536.284.005 2.719 2.138 3.204 2.807.522.722.696 1.63.557 2.92l-.114 1.055-.634.027c-.349.014-.862-.048-1.141-.138zM51.18 55.104c0-1.321 1.105-4.084 2.036-5.095.706-.765 1.307-.956 1.97-.626 1.442.716 1.278 2.14-.445 3.86-.947.945-2.432 1.945-3.275 2.205-.257.08-.286.045-.286-.344zM63.393 45.757c-.833-.508-1.432-1.845-1.432-3.2 0-.92.219-1.465.774-1.932.425-.358.433-.36 1.698-.275.698.047 1.755.155 2.348.239l1.078.154-.085.76c-.1.903-.399 1.83-.821 2.556-.363.622-1.424 1.645-1.889 1.822-.52.198-1.228.146-1.67-.124zM65.386 39.045c-.674-.22-1.372-.653-1.756-1.09-.529-.602-.559-1.38-.076-1.954.275-.327.302-.427.177-.66-.131-.245-.084-.34.42-.844l.568-.568 1.333.895c1.163.78 1.376.98 1.665 1.56.447.896.459 1.851.03 2.349-.267.312-.398.354-1.172.383-.48.018-1.015-.014-1.189-.071zM59.575 40.223c-1.231-.613-2.061-1.965-2.153-3.505-.07-1.154.106-1.54.786-1.727 1.022-.282 2.8.615 3.608 1.82.4.596.423.684.367 1.48-.097 1.378-.776 2.261-1.738 2.261-.115 0-.507-.148-.87-.329zM54.64 34.975c-.737-.45-1.636-1.922-2.177-3.566-.25-.759-.7-3.53-.592-3.639.025-.025.783-.138 1.684-.252 2.44-.308 3.382-.036 3.988 1.153.37.726.456 2.388.182 3.55-.576 2.45-1.797 3.54-3.084 2.754zM67.337 33.879c-1.07-.38-2.081-1.567-2.59-3.04-.251-.728-.934-3.851-.858-3.924.021-.02.994.025 2.163.1l2.124.136v3.467c0 2.693-.035 3.464-.158 3.456-.087-.006-.394-.094-.68-.195zM61.898 34.794c-1.405-.444-2.304-1.358-2.754-2.8-.248-.795-.826-4.446-.721-4.56.179-.194 2.184-.247 2.715-.072.71.234 1.377.911 1.779 1.805.475 1.058.573 2.823.254 4.592-.244 1.354-.25 1.359-1.273 1.035zM70.65 33.835c-.376-.156-.912-.767-1.128-1.283-.431-1.033-.736-4.954-.41-5.28.08-.081 2.248.542 3.456.994.914.342 1.782 1.134 1.958 1.788.54 2.008-2.054 4.54-3.876 3.781zM70.512 40.44c-.532-.325-.883-.797-1.174-1.579-.292-.785-.81-3.66-.681-3.783.18-.176 3.55-.758 4.802-.83 1.255-.072 1.296-.066 1.608.247.463.462.648 1.26.484 2.08-.302 1.505-1.626 3.303-2.837 3.852-.704.32-1.689.326-2.202.012zM77.033 36.686c-.903-.507-1.627-3.622-1.627-6.996 0-1.205.181-1.773.695-2.177.826-.65 1.758-.47 2.693.52.71.753 1.218 1.74 1.492 2.902.268 1.137.24 1.76-.132 2.873-.748 2.235-2.08 3.463-3.121 2.878zM82.964 32.176c-.565-.169-1.15-.807-2.226-2.426-1.422-2.141-2.077-3.536-2.074-4.417.007-1.486.979-2.721 2.336-2.967 1.004-.181 2.904.754 3.924 1.933.828.956 1.438 2.312 1.495 3.32.104 1.83-.9 3.863-2.197 4.452-.56.255-.714.268-1.258.105zM87.791 26.95c-1.095-1.101-3.036-3.783-3.87-5.346-1.141-2.141.24-3.755 3.214-3.755 1.858 0 3.265.672 3.87 1.847.294.571.318.745.304 2.209-.03 3.279-1.058 5.71-2.413 5.71-.365 0-.558-.116-1.105-.666zM71.967 26.751c-.32-.286-.41-.48-.46-.993-.076-.794.114-1.188.955-1.974 1.087-1.016 3.122-1.876 4.442-1.876.963 0 1.673.52 1.673 1.228 0 1.77-2.947 3.972-5.315 3.972-.803 0-.938-.037-1.295-.357zM80.15 21.097c-.427-.19-.56-.418-.555-.944.008-.664.544-1.038 1.478-1.032.657.005.923.143 1.172.61.464.87-1.027 1.842-2.096 1.366zM68.56 25.825c-.803-.32-1.1-.875-1.32-2.46l-.166-1.204h.646c1.207.004 2.59.937 2.8 1.892.118.535-.13 1.207-.586 1.59-.399.336-.84.394-1.375.18zM62.725 25.554c-.687-.35-1.015-.783-1.105-1.456-.145-1.082.783-1.825 2.29-1.834 1.045-.005 1.582.177 2.102.713.537.554.651 1.337.281 1.926-.571.909-2.407 1.244-3.568.651zM58.89 25.578c-.248-.144-.607-1.23-.607-1.834 0-.401 0-.401.54-.313.748.122 1.183.353 1.349.716.215.473.171.749-.188 1.175-.335.4-.702.485-1.095.256zM54.476 25.736c-.396-.32-.511-1.442-.185-1.803.428-.473 2.454-.176 3.097.454.16.156.144.22-.119.5-.392.418-1.718 1.08-2.163 1.08-.19 0-.474-.104-.63-.23zM50.064 26.769c-.988-.487-1.037-1.803-.083-2.255 1.386-.658 3.223.658 2.584 1.852-.307.575-1.697.799-2.5.403zM46.486 26.442c-.509-.347-.845-.796-.962-1.286l-.087-.365.557.075c.306.041.996.112 1.531.158l.975.083-.53.807c-.596.908-.813.985-1.484.528zM41.455 28.32c-1.235-.386-1.816-1.03-1.816-2.013 0-.483.06-.623.39-.9.506-.426.839-.501 1.885-.426 1.531.11 2.417.862 2.417 2.052 0 .71-.338 1.122-1.093 1.332-.63.175-1.12.163-1.783-.045zM36.133 26.492c-.275-.199-.599-.513-.72-.697l-.22-.336.416.003c.641.006 2.779.226 2.846.293.107.107-.333.833-.585.968-.469.251-1.207.153-1.737-.23zM33.994 30.304c-.462-.098-1.19-.734-1.963-1.714-.42-.533-.764-1.084-.764-1.225 0-.22.082-.257.571-.257.314 0 .571-.031.571-.069 0-.037-.119-.301-.264-.586l-.264-.518.832.053c1.04.067 1.755.52 2.21 1.402.355.693.43 1.723.17 2.341a.983.983 0 01-1.099.573zM74.653 20.44c.23-.279.994-.65 1.547-.755.539-.1 1.446.268 1.712.697.157.254.136.257-1.633.257-1.615 0-1.776-.02-1.626-.2z" />
    </g>
    <g fill="#b32c11">
        <path
            d="M31.271 74.047c-.605-.176-1.39-.932-2.026-1.953-.782-1.256-1.828-3.696-1.922-4.484-.066-.559-.038-.673.232-.943.244-.245.488-.323 1.19-.384 1.449-.126 3.192-.844 5.321-2.19 2.296-1.45 3.152-1.76 3.86-1.394.51.264.824.777 1.203 1.97 1.288 4.054.26 6.378-3.696 8.357-1.978.99-3.222 1.295-4.162 1.021zM45.62 72.34c-1.839-.698-3.736-3.384-4.621-6.541-.549-1.956-.704-3.114-.5-3.736.24-.738.739-.931 2.99-1.158 1.026-.103 2.237-.262 2.69-.354.454-.092.847-.146.875-.12.133.126 1.164 4.667 1.235 5.444.045.488.163 1.048.262 1.245.1.197.668.897 1.264 1.557.949 1.051 1.062 1.225.911 1.406-.25.301-1.437 1.159-1.847 1.334-.194.084-.63.35-.968.59-.72.513-1.514.63-2.292.333zM53.599 68.304c-1.896-.628-3.082-2.082-3.86-4.733-.335-1.144-.912-4.518-.787-4.606 1.079-.764 1.594-1.056 2.93-1.662a60.501 60.501 0 002.382-1.137c.689-.362.834-.397 1.117-.268.45.205.821 1.105 1.573 3.814.346 1.248.953 3.087 1.35 4.089.827 2.088.947 2.766.614 3.468-.177.373-.385.552-.934.805-.62.286-.903.33-2.292.362-1.067.024-1.752-.019-2.093-.132zM63.555 66.325c-1.038-.205-1.776-.943-2.83-2.826-1.616-2.89-3.302-8.122-3.47-10.77-.07-1.104-.05-1.279.211-1.819.55-1.133 3.104-2.847 4.536-3.043l.666-.09v.784c0 3.266 2.552 9.48 5.203 12.67.817.983.884 1.11.88 1.65-.002.32-.074.7-.158.843-1.002 1.683-3.403 2.923-5.038 2.6zM70.396 61.096c-1.152-1.461-1.624-2.137-2.457-3.514-2.443-4.039-4.097-8.658-3.5-9.773.07-.131.331-.262.614-.307.959-.153 2.143-1.412 3.08-3.275.269-.535.54-1.005.603-1.044.063-.039.145.119.182.35.11.676 1.69 4.714 2.441 6.242 1.197 2.432 2.584 4.48 4.534 6.696 1.193 1.355 1.487 1.894 1.487 2.72 0 .908-.367 1.378-1.525 1.956-.972.484-2.17.78-3.738.924l-.888.08zM78.417 56.037c-.93-.372-2.523-2.217-3.926-4.544-2.488-4.127-3.953-8.626-2.971-9.127.119-.06.411-.147.65-.193.506-.096.948-.41 2.42-1.72.593-.528 1.2-1.063 1.35-1.189.27-.228.272-.225 1.19 1.522 1.747 3.327 3.375 5.656 5.955 8.517 1.725 1.913 2.319 2.657 2.53 3.167.144.348.132.434-.103.765-.802 1.126-2.66 2.357-4.143 2.743-.816.212-2.486.246-2.952.06zM85.78 48.993c-1.33-.681-5.335-6.024-6.96-9.284-.682-1.367-.683-1.36.334-2.473.542-.592.736-.724 1.068-.724.525 0 1.247.478 2.676 1.771 2.544 2.303 3.624 2.669 7.875 2.669h1.92l.164.773c.502 2.365-1.47 5.584-4.277 6.98-.983.49-2.168.612-2.8.288zM88.732 38.968c-.762-.116-1.78-.457-2.607-.874-1.866-.94-4.125-3.161-3.875-3.811.039-.102.239-.18.458-.18.7 0 1.235-.344 2.816-1.803.858-.792 2.159-1.96 2.891-2.594a41.054 41.054 0 002.207-2.064l.874-.91.438.42c1.137 1.088 2.287 3.159 2.643 4.757.31 1.395.211 3.17-.23 4.126-.184.4-.487.926-.672 1.168-.42.552-1.449 1.235-2.275 1.512-.663.222-2.025.351-2.668.253z" />
    </g>
</svg>